<?xml version="1.0" encoding="utf-8"?>
<!-- Generator: Adobe Illustrator 27.5.0, SVG Export Plug-In . SVG Version: 6.00 Build 0)  -->
<svg version="1.1" id="Layer_1" xmlns="http://www.w3.org/2000/svg" xmlns:xlink="http://www.w3.org/1999/xlink" x="0px" y="0px"
	 viewBox="0 0 480 672" style="enable-background:new 0 0 480 672;" xml:space="preserve">
<style type="text/css">
	.st0{clip-path:url(#SVGID_00000085219063102090819360000003398671198062110089_);}
	.st1{clip-path:url(#SVGID_00000119108542545260303830000013407896129904969600_);}
	.st2{fill:#757371;}
</style>
<g>
	<g transform="matrix(1, 0, 0, 1, 67, 10)">
		<g>
			<g>
				<defs>
					<rect id="SVGID_1_" x="22.3" y="3.3" width="324" height="646.7"/>
				</defs>
				<clipPath id="SVGID_00000119090662452082601630000002402710995853887399_">
					<use xlink:href="#SVGID_1_"  style="overflow:visible;"/>
				</clipPath>
				<g style="clip-path:url(#SVGID_00000119090662452082601630000002402710995853887399_);">
					<g>
						<g>
							<defs>
								<rect id="SVGID_00000000194515549190829040000004740245887861699258_" x="23.1" y="4.7" width="320.5" height="644"/>
							</defs>
							<clipPath id="SVGID_00000081649953119837987000000001571106178123515297_">
								<use xlink:href="#SVGID_00000000194515549190829040000004740245887861699258_"  style="overflow:visible;"/>
							</clipPath>
							<g style="clip-path:url(#SVGID_00000081649953119837987000000001571106178123515297_);">
								<path class="st2" d="M336.7,302.5c-1.7-1-4.2-1.1-5-3.6c0.6-1.1,1.3-2.3,1.8-3.6c3.1-7.9,4.2-15.8-1.1-23.3
									c-2.5-3.5-3.6-7.6-4.3-11.7c-0.8-4.6-2.4-8.9-4.1-13.3c-1.4-3.4-3.4-6-6.4-7.9c-1.8-1.1-3.7-2-4.7-4
									c-3.2-6.3-8-11.4-12.7-16.6c-2.4-2.7-5.2-4.3-8.7-5.3c-5.2-1.6-10.2-3.1-15.7-2.6c-1.1,0.1-2.3-0.2-3.5-0.3
									c-4.4-0.7-8.7-1.4-13-2.2c-2.3-0.4-4.7-0.6-6.9,0c-4.7,1.3-9.6,1.9-13.9,4.5c-1,0.6-2.2,0.7-3.3,1c-1.3-0.9-2.3-1.8-3.6-2.5
									c-4.3-2.2-8.5-2.9-13.2-0.2c-4.4,2.6-8.5,5.6-12.4,8.9c-0.8-0.3-1.5-0.5-2.1-0.7c-6.5-1.6-9.5,0.2-11.6,6.4
									s-4.3,12.3-6.8,18.3c-2.7,6.5-4.9,12.9-6.4,19.8c-1.3,5.9-0.5,11.2,1.7,16.3c3.3,7.7,7.7,14.9,12.6,21.7
									c5.4,7.4,11.9,13.7,19,19.3c1.5,1.2,3.1,2.1,4.3,4.2c-1.8,3.2-2.9,7-4.1,10.7c-1.9,6.5-4.9,12.6-8.2,18.5
									c-4.7,8.1-9.2,16.2-13.9,24.2c-3.4,5.8-6.8,11.7-10.7,17.2c-8.3,11.8-16.3,23.8-25.8,34.8c-4.8,5.4-8.9,11.4-14.2,16.4
									c-4.9,4.7-9.5,9.6-13.8,14.8c-1.3,1.6-2.5,3.4-4.6,4c-0.6-1.1-0.5-2.3-0.2-3.4c2.9-14.9,7.7-29.2,12.6-43.5
									c1.9-5.5,4.1-10.9,5.4-16.6c1.4-6.4,2.6-12.8,4-19.1c2.2-10.5,4.9-20.9,4.4-31.7c0-0.5,0-0.9,0.1-1.4
									c2.7-10,2.5-20.3,3.9-30.4c1.3-9.7,1.9-19.5,2.9-29.2c0.8-8.3,1.8-16.7,2.6-25c1-10.2,1.8-20.4,2.7-30.6
									c0.9-10.2,2.4-20.3,4.9-30.3c1.1-4.3,1.9-8.6,3-12.9c0.4-1.6,1-3.1,1.5-4.6c2-6,4.1-11.9,5.8-17.9
									c3.2-10.7,6.4-21.5,11-31.7c5.4-12.1,11.9-23.7,17.9-35.5c0.4-0.8,0.9-1.6,2.1-1.8c1.9,0.8,3.2,2.4,4.5,4c2,2.6,4,5.1,6,7.7
									c6.3,8.6,15.3,12.8,25.3,14.6c9.4,1.7,18.5,0,27.2-3.7c4.5-1.9,8.8-4.3,13.2-6.3c5.9-2.7,11.8-5.3,18.2-6.8
									c9.6-2.3,16.8-7.6,18.5-18.5c0.4-3-0.8-5.5-1-8.3c0.7-1.1,1.5-2.2,2.3-3.3c3.6-5,4.1-10.5,1.2-15.8
									c-2.4-4.4-3.8-8.9-4.7-13.8c-1-6-4.6-10.1-10.7-11.5c-2.1-0.5-4-1.1-5.7-2.5c-0.6-2.9-1.1-5.9-2-8.8
									c-1.6-5.2-5.5-8-10.9-8.2c-1.9-0.1-3.7,0-5.6,0c-1.5,0-2.7-0.4-3.9-1.3c-6.6-5.2-13.6-5.1-21-2c-3.6,1.5-7.3,3-11.1,4.5
									c-1.2-2.6-2.1-5.3-3.4-7.7c-3.2-6-9.3-8.5-15.9-6.5c-4.8,1.5-9.5,1.9-14.4,0.9c-3.1-0.6-6.3-0.8-9.4-0.4
									c-5.8,4.2-7.2,10.5-8.7,16.6c-1.3,5.2-2.5,10.4-4.2,15.5c-2.1,6.2-4.4,12.3-5.3,18.8c-0.4,3-0.8,6,0.3,9
									c2.6,7.3,5.8,14.2,11.9,19.3c1.2,1,2.6,2,3.8,3.1c2.9,2.7,3.5,6.6,1.5,10c-5.1,8.6-9.2,17.8-14.3,26.4
									c-7.3,12.4-11.8,25.8-16.1,39.4c-4.6,14.7-8.7,29.5-11.9,44.5c-0.3,1.6-0.7,3.3-1.8,4.9c-0.4-0.9-0.6-1.3-0.8-1.8
									c-4.1-12.8-8-25.7-14.5-37.7c-1.1-2.1-1.1-3.1,0.8-4.9c3.4-3.3,6-7.2,8.2-11.2c4.7-8.5,7.6-17.5,3.9-27.4
									c-1.3-3.3-2-6.7-0.3-10.1c0.4-0.7,0.1-1.8,0.1-2.8c0.4-10-3.6-18.6-8.9-26.7c-0.5-0.8-1.2-1.5-1.9-2.1
									c-9.9-9.1-20.4-16.3-31.4-21.6c-4.7-2.3-10-1-12.7,3.5c-1.2,2-2.7,3.1-4.6,3.9c-0.9,0.4-1.8,0.6-2.6,1.1
									C82.7,81.6,76.9,90.2,78,102.5c0.7,8.2,0.9,16.2-1.1,24.2c-1.4,5.5-0.8,11,1.7,16.4c2.4,5.4,5.8,10,10.2,13.9
									c2.6,2.3,5,4.8,6.9,7.8c2.3,3.7,5.2,7.3,8.9,9.8c4.9,3.3,10,5.7,16.3,4.3c3.9-0.9,7.7-1.8,11.2-3.7c1.8-1,3.7-2,6-1
									c2.7,2.9,4,6.7,5.1,10.5c3,9.3,6.1,18.6,8.5,28.1c2,7.8,4.4,15.4,3.2,23.9c-1,7.3-1.3,14.8-1.7,22.2
									c-0.8,15.4-3.4,30.5-4.9,45.8c-1.1,11.6-3.4,23-4.8,34.6c-0.5,4.4-1.5,8.7-2,13.1c-1,9.9-2.2,19.9-4.8,29.6
									c-1.5,5.6-2.5,11.4-3.8,17c-1.8,7.7-3.7,15.3-5.7,23.2c-0.3-0.7-0.6-1-0.7-1.4c-2.9-18.8-5.1-37.8-10.9-56.1
									c-0.5-1.4-0.1-2.7,0.6-4c3.4-5.6,5.3-11.9,6.8-18.2c1.7-7.3,2.2-14.7,0.9-22.2c-1.3-7.1-2.2-14.2-3.3-21.4
									c-0.6-3.7-0.9-7.4-1.8-11c-2.8-10.4-7.3-20.1-12.9-29.2c-2.5-4-5.6-7.4-9.4-10.2c-5.1-3.7-10.2-7.3-15.3-11
									c-5.5-3.9-11-7.8-15.5-13c-8.1-9.3-17.6-17.2-27.7-24.3c-0.9-0.7-1.9-1.5-3.7-0.2c-0.4,4.1-2.3,8.4-2.9,13
									c-0.8,6.7-2.3,13.3-3.5,19.9c-1.1,6.4-2.4,12.8-3.2,19.3c-0.8,6.2-1.1,12.5-1.4,18.8c-0.2,4.9-0.2,9.8,0.4,14.7
									c0.8,6.1,2.6,11.7,5.3,17.3c3.6,7.6,7.5,14.9,12.9,21.5c4.9,6,9.9,11.8,15.2,17.3c5.4,5.6,11.3,9.9,19.2,11.8
									c10.4,2.5,20.4,6.3,30.6,9.5c4,1.2,6.2,3.8,6.9,7.9c0.1,0.7,0.2,1.4,0.4,2.1c4.2,16.6,6.2,33.4,6.4,50.5
									c0.1,5.6,0.5,11.2,0.7,16.8c0,0.9,0.3,1.9,0,2.7c-1.3,3.1-0.9,6.4-1.6,9.6c-2.3,10.7-4.8,21.3-8.1,31.8
									c-2.7,8.4-5.1,16.9-7.8,25.4c-5.1,16.2-10.9,32.2-18.2,47.6c-4.9,10.3-10.5,20.2-16.4,29.9c-1.9,3.2-3.8,6.4-5.5,9.7
									c-4.7,9.1-10.6,17.6-16.8,25.7c-6.3,8.1-12.8,16-20.4,22.9c-0.7,0.6-1.4,1.3-1.4,2.3c0.6,0.9,1.5,1,2.4,0.7
									c3.7-1.5,7.2-3.3,10-6.2c3.4-3.5,6.5-7.3,9.6-11c5.6-6.8,10.3-14.3,15.2-21.7c8.3-12.5,14.6-26,21.6-39.1
									c2.9-5.3,4.6-11.2,8.4-16.1c4.5-5.7,9.2-11.1,14.5-16c7.2-6.5,14.4-13.1,22.9-18.3c2.6,1.6,4.7,3.8,6.7,6.1
									c6.6,7.7,14.2,13.9,23.5,18.2c5.4,2.5,10.8,4.3,16.7,4.1c3.2-0.1,6.6-0.8,9.6-0.2c3.8,0.7,7.3,0.2,11-0.6s7.3-1.5,10.9-2.2
									c9.6-1.9,19.1-4,28.3-7.3c6.8-2.5,13.3-5.6,19-10.1c6.1-4.8,11.6-10,16.7-15.9c1.1-1.2,2.1-2.5,3.3-3.6
									c10.2-8.5,18.9-18.6,28.4-27.8c1.8-1.8,3.4-3.8,4.8-6c2.2-3.2,1.7-6-1.3-8.5c-2-1.7-4.3-2.8-6.6-3.8
									c-5.2-2.2-10.6-3.5-16.1-4.5c-10-1.8-20.2-2.7-30.1-5.5c-6-1.7-12.3-2.8-18.1-5.2c-10.2-4.1-20.4-6-31.3-3.2
									c-3.6,0.9-7.1,2.1-10.6,3.6c-4.7,2-9.4,4-14.3,5.6c-8.2,2.7-15.1,7.5-21.1,13.2c-7.7,7.4-14.5,15.7-19.2,25.6
									c-3.3,6.9-7.2,13.5-10.6,20.4c-1.6,3.3-3.7,5.8-6.9,7.6c-3.2,1.9-6.2,4.1-8.9,6.7c-4.7,4.5-9.6,8.8-14.4,13.2
									c-0.4,0.3-0.9,1.2-1.8,0c0.8-2.5,1.6-5.1,2.5-7.7c2.7-7.7,5.5-15.3,8.1-23c3.1-9.3,5.9-18.6,8.8-28c0.9-2.7,2.1-5.2,3.8-7.4
									c4.1-5.7,8.8-10.8,13.6-15.9c4.9-5.2,10-10.4,14.6-15.9c6.1-7.3,11.9-14.9,17.9-22.3c6.6-8.1,12.7-16.7,18.4-25.4
									c5-7.6,9.2-15.7,14.1-23.3c5.7-8.8,10.4-18.1,14.5-27.8c1.9-4.4,3.7-8.9,5.6-13.5c5,2.8,9.1,6.2,13.5,9.2s7.5,6.9,9.9,11.5
									c1.4,2.7,2.9,5.4,4,8.2c1.2,2.9,2.8,5.4,4.6,7.8c5.4,7.1,12.2,10.6,21.3,8.2c3.7-1,7.4-0.9,11.1-0.9c9.1,0,17.9,2.4,27,2.4
									c4.7,0,9.2-0.6,13.7-2c4.7-1.4,7.3-4.8,7.6-9.7c0.1-2.1,0.2-4.2,0.2-6.3c0-3.9-1.5-7.2-4.1-10.1c-3.5-3.9-7.9-6.4-12.2-9.2
									c-1.5-1-3.4-1.6-4.4-3.7c1.8-1.9,4.2-2.5,6.6-3.3c5.5-1.9,11-3.7,15.8-7.1c2.9-2,5.3-4.6,7.1-7.6
									C344.1,312.3,341.9,305.4,336.7,302.5z M310.7,101c-3.7,2.9-7.5,5.3-12.4,5.9c-5.6,0.7-10.5,3.7-15.6,5.9
									c-3.7,1.5-7.2,3.2-10.6,5.2c-4.5,2.6-9.7,3.2-14.3,5.3c-14.3,1.7-27.4-0.5-37.6-11.8c-1.8-2-3.4-4.3-5.2-6.7
									c2.5-0.9,3.7,0.7,4.3,1.9c3.5,6.9,10.1,9,16.7,11.3c1.5,0.5,3.1,0.8,4.7,1.1c0.2,0,0.4-0.2,1-0.4c-1.2-2.4-3.8-2.3-5.7-2.8
									c-2.3-0.7-4.2-1.9-6.3-3c-2-1.1-4.6-1.2-5.8-3.5c0.6-1.2,1.4-0.6,2.2-0.4c3.5,1.1,7.1,2.3,10.7,3.2c2.8,0.8,2.8,0.6,7.1-0.4
									c-4.2-2.3-9.3-1.2-14.2-5.2c5.9,0.3,10.2-0.3,14.6,0.1c6.5,0.6,13,0.2,19.3-1.9c4.2-1.4,8.2-3.3,11.5-6.4
									c2-1.9,4.1-3.6,6.1-5.3c-0.5-1.1-1.2-1.4-1.8-0.9c-0.9,0.7-1.8,1.4-2.6,2.2c-5.5,5.5-12.2,8.4-19.7,9.6
									c-3.4,0.5-6.8,1.8-10.5,0.7c1.6-2.4,3.7-3.3,6.3-3.5c5-0.3,9.4-2.4,13.7-4.7c1.5-0.8,3.2-1.8,3.7-3.9
									c-1.8-0.6-2.4,1-3.5,1.6c-1.2,0.7-2.4,1.4-3.7,2c-1.3,0.6-2.6,1.1-3.9,1.6s-2.6,1.1-3.9,0c1.3-5.7,5.8-8.1,10.6-9.9
									c0-2.2-1.1-1.8-2.3-1.4c-0.4,0.1-0.9,0.2-1.3,0.2c-0.1-0.4-0.4-0.8-0.3-1.2c2.2-6.3,4.7-12.6,5.9-19.5
									c4.6,0.3,8.8,0.8,12.7,1.8c2.7,0.7,5.4,1.1,8.2,1.2c4.7,0.2,9.2,1.2,13.5,2.9c6.3,2.6,10.7,7.4,13.1,13.7
									C317.1,90.6,314.9,97.8,310.7,101z M313.5,49.4c0.3,1.1,0.5,2.3,0.7,3.4c0.6,3.9,1.4,7.7,3.8,11.1c1.8,2.5,1.9,5.7,1.5,8.8
									c-0.3,2.5-1.5,4.3-3.5,5.8c-2.3-1.1-4.1-2.7-5.4-4.9c-0.6-1.7,1.4-2,1-3.7c-2.1-1.1-4.7,2.9-6.7-0.4c0.2-2.7,4-2.8,4.3-5.5
									c-0.2-0.2-0.5-0.5-0.6-0.5c-2,1.1-4,2.3-5.9,3.4c-1.2-1-0.4-1.8,0.2-2.3c1.4-1.2,3-2.3,4.4-3.4c0.9-0.7,1.8-1.5,1.8-3
									c-2.2-1.2-2.9,2.1-5.1,1.7c0.1-6.1,0.6-12.4-4-18.6C308.4,41.3,312,43.7,313.5,49.4z M281,23.1c0.7-0.4,1-0.8,1.4-0.9
									c7.5-2.4,12.7,1.4,13.8,9.2c0.1,0.2,0.1,0.4,0.2,0.7c-0.1,6.2,1.7,11.9,4,17.5c1.2,2.9,0.7,6-0.1,8.9
									c-0.7,2.9-1.7,5.7-2.6,8.8c-6.6-1.8-13.6,0.1-19.8-3.5c0.1-0.8,0.3-1.6,0.4-2.4c-0.4-0.1-0.9-0.3-1.3-0.2
									c-2.3,1-4.5,2.5-7.7,1.2c-0.6-3.2-0.5-5.9,1.6-8.2c1-1.1,1.4-2.4,1.4-3.8c0.2-3.5,2.2-6.1,4.7-8.2c2.7-2.2,5.5-4.3,8.2-6.5
									c0.8-0.6,2.1-1.1,1.6-2.7c-1.9-0.7-2.9,1-4.1,1.8c-1.2,0.7-2.3,1.6-3.4,2.5c-1.2,0.9-2.4,1.9-4.8,3.7
									C277.2,34.1,280.2,28.8,281,23.1z M258.8,17.8c5.2-2.1,10.4-2.2,15.5,0.5c2.3,1.2,3.4,3.1,3.2,5.7c-0.3,3.5-1.3,6.9-3.1,9.9
									c-2.4,4.3-4.4,8.7-6.1,13.3c-2,5.3-2.6,10.9-3.5,16.3c-1.7,10.5-5.2,20.2-10.9,29.2c-4.2,6.6-10,10.2-17.7,10.8
									c-5.6,0.4-11.1-0.5-16.6-1.6c-0.8-0.2-1.6-0.9-3.2-1.8c7.5,0.1,14.5,1.6,20-3.9c-3.3,0.6-6.6,1.5-10,1.8
									c-3.5,0.3-7,0.1-10.8,0.1c1.4-1.9,3.2-2.3,5.1-2.5c11.3-1.2,19.4-7,24.6-17.1c0.8-1.7,1.8-3.2,2.6-4.9
									c0.4-0.8,0.7-1.8-0.1-2.6c-0.8-0.4-1.3,0-1.6,0.6s-0.6,1.3-0.9,1.9c-4.5,10.9-12.3,17.8-24.1,20.1c-1.2-2,2.3-2.7,1.2-4.7
									c-3.3,0.2-3.3,4-5.5,5.3c-1.5-1-0.9-2.1-0.4-3c2.8-5.7,6.2-10.9,9.7-16.2c0.6-1,1.4-1.8,2-2.9c0.3-0.5,0.2-1.3,0.3-2
									c-1.7-0.7-2.1,0.7-2.7,1.4c-3.9,5.3-7.1,10.9-10.3,16.6c-0.6,1.1-0.9,2.6-2.3,3.1c-0.3,1.3-0.5,2.6-0.9,3.8
									c-0.6,1.5-1,1.5-4,0.7c-0.2-0.4-0.6-0.8-0.5-1.2c0.6-5.5,1-11.1,1.9-16.6c0.8-4.8,2-9.5,4.9-13.7c1.2-1.7,2-3.6,2.3-5.7
									c-5.7,3.8-10,13.2-11.2,29.9c-1.5-1-1.8-2.7-1.8-4.2c-0.2-7-0.7-14,0.7-20.9c0.9-4.3,2.5-8.3,5.4-11.9
									c6.6-8.3,14.6-15,23.9-20c1.6-0.9,3.2-1.9,4.7-3C244.9,24.1,251.7,20.6,258.8,17.8z M202.7,56.7c-0.5,0.4-1.1,0-1.7-0.4
									c-0.5-0.2-1-0.5-1.5-0.6c-0.2,5.5,2.9,10.9,0.5,16.3c-3.1-3.4-3.1-3.4-5.8-15c-1.2-0.3-1.7,0.4-1.7,1.4
									c0.1,3.3,0.7,6.5,1.8,9.6s2.6,5.9,4.6,8.6c1.9,2.5,2.2,4.8,1.1,8c-7.5-5.8-11.5-13-13-21.8c-0.2-1.4-0.1-2.8,0.3-4.1
									c1-4.1,2-8.1,3.3-12.1c2.3-7.3,4.9-14.5,6.3-22.1c0.8-4.4,2.3-8.5,4.4-12.5c1-1.8,2.3-2.9,4.4-2.7c2.5,0.2,5.1,0.3,7.6,0.6
									c4.4,0.5,8.8,0.8,13-0.9c1.5-0.6,3-1.1,4.7-1c3.8,0.3,6.6,2,8.4,5.3c1.5,2.7,2.3,5.6,2.2,9.1c-3.7,2.9-7.8,5.4-12.1,7.3
									c-3.3-4.1-1.6-9.4-4.4-13.4c-1.6,0.7-1.1,1.9-1,2.8c0.7,3.6,1.7,7.3,2.4,10.9c0.3,1.3-0.5,2.1-1.7,2.4
									c-2.1-1.4-1.4-4.1-3.1-5.9c-1.6,2.6,0.1,4.9,0.2,7.2c0,0.3-0.1,0.7-0.3,0.9c-0.2,0.3-0.5,0.5-0.8,0.6s-0.7,0.1-1,0
									s-0.6-0.3-0.8-0.6c-0.3-0.4-0.4-0.9-0.6-1.2c-0.4-0.5-0.9-1-1.3-1.5c-0.2,3.9,1.2,8.3-3.9,9.6c-1.3-0.1-1.6-1.3-2.1-2.4
									c-0.5-1.2-0.6-2.7-2-3.4c-2.1,3.1,1.7,5.8,0.4,8.9c-2.4-2.1-2.8-4.9-3.3-7.6c-0.4-2.1-0.4-4.2-0.7-6.3
									c-0.2-1.6-0.3-3.2-1.7-4.4c-1.3,4.8-0.3,10.9,3.6,21.2L202.7,56.7z M101.7,82.9c0.2-3,0.6-6,1-9c0.4-3.1,1.9-4.5,5.1-4.6
									c1.4,0,2.8,0.1,4.1,0.6c6.8,2.9,13.3,6.6,19,11.4c2.7,2.3,5.3,4.6,8.1,6.6c3.5,2.5,6.2,5.6,7.9,9.5c1.3,3.2,3.4,6,4.2,9.5
									c0.8,3.3,0.9,6.4,0.7,10.9c-2.7-3.3-4.4-5.5-6.3-7.6c-1.7-2-3.2-4-3.4-6.7c-0.2-1.9-1-3.6-2.3-5c-0.2-0.2-0.8-0.1-1.2,0
									c-0.5,0.1-0.5,0.6-0.2,1.1c0.2,0.7,0.4,1.3,0.5,2c-3.9-1.5-5.4-2.7-7-5.7c-1.5-2.9-2.9-5.8-4.4-8.7
									c-1.6-3.2-3.9-5.8-6.8-7.8c-0.5-0.4-1.1-0.8-2.2,0.1c-0.1,1.6,1.9,2.1,2.8,3.2s1.9,2.1,2.7,3.2c1,1.3,2.2,2.4,2.2,4.5
									c-4.6-1.2-6.8-5.1-9.9-8.5c-1.7,3.9-5,1.4-7.1,2.4c-3.4,1.9-2.8,6.1-5.6,8.1C101.7,89.4,101.5,86.2,101.7,82.9z M88.2,133.4
									c-0.1,0.2-0.4,0.5-0.4,0.7c0.5,2.7,1.1,5.5,1.6,8.2c0.4,1.8,0.7,3.7,0.2,5.6c-3.5-3-3.9-4.9-4.1-18.9
									c-1.6-0.3-1.9,0.9-2,1.9c-0.3,3.2-0.4,6.5,0.4,9.7c0.4,1.5,0.8,3.1,0.2,5c-4.5-5.4-5.8-11.5-4.3-17.9
									c1.8-7.6,2.1-15.2,1.3-22.9c-0.4-3.8,0.1-7.4,0.9-11.1c1.4-6.1,4.9-10.4,10-13.7c2.1-1.3,4.2-2.9,7.6-3.1
									c-2,7.1-0.6,13.1,2,19c1,2.3,1.4,4.4,0.5,6.7c-1.2,3-0.7,6.5-2.7,9.3c-1.6-0.4-0.8-2.7-2.5-3.1c-0.9,0.1-1,0.8-0.8,1.4
									c0.5,2,1.3,4,1.8,6c0.2,1-0.3,1.8-1.1,2.3c-3.2-4-3.5-4.4-3.8-8.3c-0.3-4.4-1.8-8.6-2.6-13c-0.1-0.3-0.6-0.6-0.9-0.9
									c-0.8,1-0.8,2.2-0.6,3.3c1.7,7,1.8,14.3,5,21c0.9,1.8,0.7,3.6-0.3,5.3c-1.5,2.4-2.2,5.1-2.8,8.4L88.2,133.4z M140.4,134.9
									c-0.7-2.9-1.1-5.8-3.2-8.6c-1.6,2.5-0.6,4.4,0,6.3c2.2,7.2,3.1,14.5,3.2,22c0,3.1-0.7,6-1.4,8.9c-0.3,1.3-1.2,2.4-2.3,4.4
									c-1.2-7.7,0.7-14.5-1.7-21c-0.1-0.3-0.8-0.3-1.4-0.6c-0.8,7,1.1,14-0.2,20.8c-1.6,0.5-2.2-0.6-2.8-1.5
									c-2.1-3.2-3-6.8-4.1-10.3c-0.8-2.5-1.2-5.3-3.9-7.8c0.5,5.8,3,10.4,4,15.6c-3.6-1.4-4-2-5.8-5.1c-1.1-2-1.2-4.6-3.8-6.1
									c-0.1,4.4,1.5,7.9,4.2,10.9c1.2,1.4,2.7,2.5,4.1,3.8c1,0.9,2.3,1.6,2.4,3.6c-6.7,0.4-9.8-5-14-9.3c0.6,4.6,1.2,5.3,8.6,11.7
									c0,0.1-0.1,0.1-0.1,0.2h0.3l-0.2-0.2c1.5,0,3.2-0.4,4.4,1.1c-0.3,0.4-0.4,1-0.8,1.1c-1.3,0.3-2.8,0.3-4.1,0.8
									c-6,2.3-11.2-0.1-15.6-3.5c-8.1-6.2-12.7-14.6-13.4-25c-0.5-8.1,0.7-15.7,5-22.8c4.2-6.8,5.9-14.6,7.6-22.3
									c0.6-2.7,1-5.5,1.5-8.2c0.5-2.5,1.5-4.9,3.8-6.6c3.9,0,7.3,1.5,10.1,3.9c8.4,7.2,16.9,14.5,23.9,23.2
									c2.1,2.6,3.9,5.1,4.7,8.4c0.8,2.9,2.1,5.7,3,8.5c3,9.6,1.7,17.4-4.5,26.6c-1.1-2.1-0.2-4.1-0.3-6c-0.1-2.1,0.1-4.2,0-6.3
									c-0.1-1.8-0.2-3.8-0.8-5.5c-0.6-1.9,0-4.2-1.6-5.8c-1,0.1-1.2,0.6-1.1,1.4c0.4,2.5,0.6,5.1,1.1,7.6
									c1.3,5.7-0.2,11.1-0.9,16.6c-0.1,1.1-1,2-1.8,3.7c-1-2-0.7-3.5-0.6-4.9C142.6,150.6,142.2,142.7,140.4,134.9z M33,226.3
									c1.9-1.3,3.8-0.2,5.5-0.6c0.4,0.4,0.9,1,1.3,1c3.2,0.1,4.2,2.1,4.9,4.9c0.8,3.3,1.9,6.5,3,10.2l-16.2-5.7
									C31.4,232.6,30.9,229.2,33,226.3z M27.2,283.5c0-2.8-0.6-5.5-0.7-8.3c-0.1-4.3,0.9-5.4,5-6c4.2-0.6,8.3-0.7,12.5-0.1
									c6.2,0.9,12.2,2.4,18.1,4.8c0.9,0.4,1.7,1,1.6,2c-0.1,1.6-1.5,1.2-2.5,1.6c0.2,0.4,0.3,1,0.6,1c4.7,1.6,7.4,5.2,9.8,9.3
									c2.1,3.7,5.1,7.1,7,11.7c-3.4-0.1-5.9-1.3-8.5-1.9c-2.7-0.6-5.5-0.8-8.3-0.4c0.8,1.6,2,1.4,3,1.5c4.2,0.4,8.1,1.7,12.1,2.8
									c3.3,1,5.7,2.8,7.1,6.1l-3.2,0.6c-0.3-1.2-1.4-1.5-2.4-1.8c-6.2-2-12.4-3.8-19-3.7c-6.2,0.1-12.5,0.1-18.7,0.1
									c-2.3,0-4.6,0.1-7,0.9C29.6,297.6,27.2,290.9,27.2,283.5L27.2,283.5z M61.8,341.9c-1.5-1.2-2.3-1.9-2-3.3
									c3.6-1.3,3.6-1.3,8.9-0.4C66.3,339.9,63.6,339.9,61.8,341.9z M108.8,359.5c-0.4,0.2-0.8,0.6-1.2,0.6
									c-8.4-1.7-16.4-4.9-24.6-7.4c-1.8-0.5-3.5-1.5-5.3-1.6c-5.7-0.5-9.8-3.8-13.8-7.3c0.3-1.1,1.2-1.5,2.1-1.7
									c12.4-2.2,24.5-1.4,36.2,3.3c1.7,0.7,1.7,0.7,2.9,3.7c-3,0.8-5.3-1.5-7.9-1.7c-3-0.2-6-0.8-8.9-1.3s-5.6-0.2-8.3,1
									c4.3,0.5,8.7,1.2,13.1,1.5c4.5,0.4,8.5,2.1,12.6,3.8c-0.7,1.4-2.8,0.2-3.4,1.8c1.2,2.2,4.1,0.6,5.6,2.3
									C108.6,357.3,109.2,358.3,108.8,359.5L108.8,359.5z M111,351.9c0.5-1.7,1.3-3.4,1.6-5.2c0.4-1.8,1.6-3.4,1.1-5.4
									c-3.1,0.9-1.9,4.6-4.5,6c-1.2-1.4-1.2-2.8-0.4-4.3c0.8-1.5,1.3-2.9,0.1-4.5c-1.1-1.5-0.3-3.1,0.1-4.7
									c1.4-5.9,3.6-11.5,5.9-17.1c0.4-1,1-2.1,0.6-3.3c-0.8-0.6-1.2-0.1-1.5,0.5c-2.8,5.9-5.5,11.8-7,18.2c-0.4,1.6-1,3.1-1.5,4.6
									c-1.9,0-1.7-2.2-3.6-2.5c-1,0.1-1.1,2.5-3.2,2.1c-1.5-0.3-2.9-1.8-4.6-0.6c0.2,1,0.9,1.5,1.8,1.8c1.3,0.4,2.7,0.7,4,1.2
									c1.6,0.7,2.3,2,2.4,3.6c-2.1,1.1-3.4-0.3-4.9-0.6c-2.3-0.5-4.5-1.2-6.7-1.8c-5.1-1.5-10.6-0.2-15.8-2.2
									c-5-2-10.5-1.6-15.9-1.6c-2.7,0-4.4-1-5.2-3.5c4-1.5,4-1.6,7.1-1c2.3,0.4,4.5,0.8,7.4,0.3c-6.2-2.8-12.1-2.2-18.4-2.2
									c-5.4-7.4-12.3-13.8-15.5-23.3c4.8-1.4,9.4-1.7,13.9-1.7c9.3,0,18.6,0.2,27.6,3.4c1.4,0.5,3.1,0.5,4.6,0.6
									c0.6,1.7,2.4,1.8,3.8,2.4c2.7,1.2,4.5,3.2,5.8,5.8c2.3,4.6,4.8,9.1,7.1,13.6c0.5,1,1.1,1.4,2.3,1.4c1.2-2.9-0.3-5.4-1.6-7.8
									c-0.9-1.6-2.1-3.1-3.1-4.6s-1.6-3.1-1.9-4.8c-0.3-1.8-0.2-3.5,0.2-5.2c1.5-6.4,3.2-12.6,5.7-18.7c1-2.3,1.7-4.8,2.5-7.2
									c0-0.1-0.2-0.4-0.5-1c-5.6,8-7.7,17.2-10.3,26.1c-0.8-0.2-1.4-0.2-1.5-0.4c-3.3-5.1-6.5-10.2-9.8-15.3
									c-1.2-1.9-1-3.9-0.7-6.1c1.6-11.6,4.7-22.8,9.9-33.3c0.5-1,1.1-2.1,0.3-3.3c-1.6-0.5-1.9,0.9-2.3,1.8
									c-4.3,8.6-7.2,17.6-8.7,27.1c-0.4,2.5-0.7,5-1.9,7.4c-3.6-2.4-2.2-6.2-2.5-9.7l-3,1.8c-4.3-6-7.6-12.5-10.6-18.9l2.1-10.8
									c-2.9,1.2-1.7,4.6-4.1,5.8c-2.6-0.4-1.9-4.1-4.5-4.6c-1.3,0.8-1,2-0.6,3c0.7,1.7,1.7,3.3,2.5,5c1.1,2.3,2.1,4.6,3.2,7
									c1.2,1.4,2,2.9,2.4,4.7c-0.8,1.5-2,0.8-3,0.6c-4.1-1-8.1-2.1-12.1-3c-5-1.1-10.1-1.3-15.2-0.1c-0.6,0.2-1.3,0-1.8,0
									c-1.5-1.3-1.1-2.7-0.9-4c1-1.5,2.5-1,3.8-1c1.1,0,2.3,0.2,3.5-0.7c-2.2-1.4-5.2-0.3-7.2-3.2c1.2-6,0.6-12.8,3.5-19.3
									c7.5,0.5,14.3,2.6,19.5,8.5c2-1.7,0.7-4,1.2-5.9c0.6-2.2,1.4-4.4,2.1-6.7c0.6-2,1.4-3.9,1.9-6c0.4-1.9,2.7-3.2,2-5.9
									c-2.8,1.4-3.6,3.8-4.6,6.1s-1,5-2.9,7.2c-1.8-2.9-2.7-5.9-3.5-9.1c-0.7-3.1,1.7-5.7,1-9l-3.3,1.4c-1.4-2.1-1.3-4.5-1.9-6.7
									c-0.3-0.9-0.6-1.7-1.2-2.5c-0.2-0.3-0.5-0.5-0.8-0.6s-0.7-0.1-1,0.1c-0.4,0.2-0.8,0.7-0.8,1c0,1.2,0.1,2.3,0.3,3.4
									c1,3.5,2.1,7.1,3.2,10.5c-1.3,1.4-2.7,0.6-3.9,0.7c-1.1-1.9-3.5-1.7-5.4-3.2c0.5-6,2.2-11.9,3.3-17.7
									c1.9-1.2,3.2-0.1,4.1,0.7c7.4,6,14.9,11.8,21.2,19.1c5.8,6.7,12.6,12.4,20.1,17c5.4,3.3,10.1,7.4,15.1,11.2
									c1.5,1.1,2.8,2.4,3.9,3.9c4,6,7.4,12.3,10.3,18.9c0.3,0.6,0.1,1.4,0.2,2c1.7,1.3,2.2,3.3,2.9,5.2c1.7,5.3,2.9,10.8,3.5,16.4
									c0.6,5.8,1.9,11.5,2.8,17.2c1.7,11.4,1.3,22.8-2.5,33.8c-0.8,2.4-2,4.6-3.1,7C112.1,356.1,112.1,353.7,111,351.9L111,351.9z
									 M258.5,456.7c0.7,1.2-0.1,2.3-0.7,3.2c-3.3,5.1-6.8,9.9-11.7,13.5c-0.9,0.7-1.6,1.6-2.4,2.4c-1.3,1.3-1.3,1.3-4.9,0.9
									c-0.1-1.1,0.6-1.7,1.3-2.2c5.7-4.8,10.6-10.2,13.9-17.1C254.8,455.5,255.5,455.5,258.5,456.7L258.5,456.7z M223.9,446.2
									c3.8,1.1,7.6,1.9,11.2,3.7c2.2,1.1,4.9,1.5,7.3,2.1c3.1,0.8,6.2,1.6,9.2,3.5c-2.1,6.9-6.7,11.7-11.7,16.1
									c-1,0.9-2.3,1.6-3.3,2.6c-0.9,1-1.5,2.2-2.4,3.6c-1.1,0-2.3,0.1-3.4,0c-0.6,0-1.2-0.3-2.1-0.6c2.8-4.1,7.9-6.1,9.5-11
									c-1.6-1-2.3,0.3-2.8,1c-2.6,3.3-5.6,6.1-9.1,8.5l-0.4,3l-25.9,2.7c0-2.4,1.7-3.5,2.5-4.9c0.9-1.6,2.2-3,3.4-4.4
									c1-1.3,2-2.6,2.9-3.9c1-1.5,2.2-3,2.5-4.9c-0.9-1.1-1.6-0.6-2.2,0.2c-2.7,3.8-5.3,7.7-8.2,11.3c-2,2.5-4.4,4.8-6.7,7.1
									c-0.8,0.7-1.8,1.4-3.2,0.9c9-11,16.6-22.5,21.7-36.4C216.6,445.3,220.2,445.1,223.9,446.2z M135.2,508.5
									c0.3-1.1,0.8-2.2,1.4-3.2c3.5-5.7,6.5-11.8,9.7-17.6c2.1-3.9,4.7-7.5,7.6-10.8c5.2-5.9,10.2-12,18.4-15.9
									c-0.9,10.6-5.5,18.6-10.2,26.5c-2.6,4.5-5.1,9.2-10.4,12.8c1.4-5.7,5.3-9.6,5.2-15.4c-1,1-1.8,1.3-1.9,1.9
									c-1.2,3.5-3.3,6.7-4.7,10.1c-2.6,6.1-6.9,10.2-12.6,13.2c-1,0.5-1.9,1.2-2.9,1.8C133.7,510.4,134.9,509.5,135.2,508.5z
									 M134.8,515.8c1.1-0.6,2.2-0.2,3.3,0.2c1.9,0.6,3.4,2.6,5.8,2c-0.7-2.2-3.7-2-4.2-4.3c1.7-1.1,2.9,0.5,4.3,0.9
									c2.1,0.7,3.8,2.8,6.3,2.3c-0.2-1.3-1.2-1.8-2.1-2.5c-1.5-1.1-3.5-1.4-4.5-3.1c3.2-3.7,4.3-4.4,11.9-7.7
									c2.3,0.2,4.4,1.1,6.5,2.2c9.6,4.9,17.8,11.6,25.6,18.9c5.1,4.8,9.8,9.8,14.8,14.8c0.8,0.7,1.5,1.9,2.9,0.8
									c-7.7-11.3-25.5-26.5-44.5-38.1c0.4-2.2,1.9-2.4,3.6-1.9c3.3,1.1,5.9,3.7,9.5,4.2c1.3,1.6,2.8,2.9,4.4,4.1s3.5,2,5.4,2.6
									c0-0.4,0-0.9-0.2-1c-2.8-2.4-5.5-5.1-9.3-6c-1.4-2.6-4.7-2.9-6.4-5.1c2.9-3.3,2.9-3.3,9.2-1c0.3-1.3-1.4-1.7-1.3-2.9
									l1.9-2.6c-0.3-0.4-0.5-1-0.8-1c-4.6-0.2-8.4,2.3-12.6,3.6c-1.5,0.5-2.7,1.9-4.8,1.6c3.4-6.1,6.9-12,10.1-17.9
									c3.4-6.2,4.7-13.1,6-19.6c2.9-2.5,6.2-3.2,9.2-4.4c5.6-2.3,11.2-4.6,16.8-6.7c3.4-1.3,3.5-1.2,7.3-0.2
									c0,3.6-1.6,6.8-3.5,9.7c-3.7,5.9-7.6,11.7-11.5,17.5c-2.6,4-6.1,7-10.1,9.5c-2.7,1.7-2.8,1.7-4.2,5.4
									c5.4,0.9,9.9-1.8,15-3.2c4.4,1,8.6,3.4,13.4,4.1l-6.8-4c0.3-1.6,1.2-1.8,2.2-1.6c3.4,0.7,6.7,1.8,9.9,3.2
									c12.1,5.2,22.6,12.9,32.3,21.7c2.6,2.3,4.9,4.9,7.4,7.4c0.8,0.8,1.3,1.9,2.7,1.6c-0.6-3-1.1-3.9-5-7.5
									c-2.4-2.2-4.9-4.3-7.4-6.4s-5-4.2-7.6-6.1c-2.4-1.8-4.9-3.6-7.4-5.2c-2.8-1.7-5.7-3.2-8.5-4.8c-2.8-1.5-5.9-2.4-9-5.1
									c7.2-1.3,13.6-2.2,19.9-2.5c5.1-0.3,10.1-1.1,15.2-1.4c3.7-0.2,7.4-0.4,11.1-0.9c2.7-0.3,5,0.4,7.3,1.7
									c3.1,1.8,5.7,4.1,8.2,6.5c2.8,2.7,5.7,5.4,8.4,8c1.8-0.9,0.9-1.7,0.4-2.2c-4.7-4.5-9.5-8.9-14.6-13.7
									c5-2.1,9.4-2.4,13.7,1.1c2.5,2,4.9,4,7.2,6.6c0.2-1,0.6-1.6,0.4-1.8c-2.3-2.5-4.7-5-7.4-7.8c5.5-2.9,12.1-1.8,17.7-5.9
									c-4.1-1.9-7.4,1.3-10.6-0.3c0.3-2.5,3-4.1,2.8-6.8c-0.7-0.7-1.3-0.4-1.7,0.2c-0.8,1.1-1.5,2.4-2.3,3.5
									c-2.5,3.3-5.5,5.3-10,5.4c-6,0.1-12,1.1-18,1.7c-0.9,0.1-1.9,0.3-2.7-0.6c0.3-2.5,4-3.1,3.6-6.7c-4.4,2.1-6.2,7.8-12.4,7.9
									c5.6-6.1,11.1-11.5,14.3-18.6c10.9,0.7,21.6,2.8,32.2,5.3c6.1,1.4,9.8,3.8,13.8,8.2c-1.2,4-4.1,6.8-7.1,9.8
									c-1.5,1.5-3.2-1.2-4.3,0.5l0.9,1.7c-0.5,2.3-26.3,27.6-32.6,32.3c-15.6-16.7-15.6-16.7-23.5-21.6c-1.1,0.6-1,1.4-0.2,2
									c4.2,2.9,8.5,5.6,11.9,9.6c3.3,3.9,6.6,7.8,10.1,11.9c-2.4,3.9-5.8,6.1-9.2,8.2c-3.7-2-5.9-5.1-8.4-7.8
									c-8-8.6-17.1-15.7-27.3-21.5c-0.8-0.5-1.8-0.6-2.7,0.4c3.9,3.6,9.1,5.3,13,9c3.8,3.5,8.1,6.3,11.8,9.8
									c3.8,3.7,6.8,8.3,10.7,11.7c0,1.6-1.1,2.2-2.1,2.7c-2.9,1.5-5.8,2.8-8.3,4c-2.9-0.2-2.8-3.5-5.6-3.7l1.8,4.2
									c-0.5,1-1.4,1.3-2.3,1.5c-0.4-0.1-1-0.1-1.2-0.4c-6-6.8-12.3-13.3-19.5-19c-3.5-2.7-7.1-5.2-11-7.4c-0.7-0.4-1.5-1.2-2.7,0
									c5.2,4.5,11.6,7.6,16.6,12.3c4.9,4.6,9.7,9.3,13.6,14.7c-0.4,1.6-1.5,1.9-2.6,2.2c-4.4,1.4-8.9,2.7-13.5,3.4
									c-6,0.9-11.9,2.4-17.8,3.2c-8.1,1.1-16.2,0.4-24.4,0.4c-1.8,0-3.7-0.6-5.4-1.3c-10.3-4.1-19.4-9.8-26.4-18.7
									c-2-2.5-4.4-4.7-6.6-7C133.2,516.7,134,516.2,134.8,515.8L134.8,515.8z M320.1,246.1c2.2,4.1,3.9,8.4,4.6,13.1
									c0.8,5.1,2.3,10,4.9,14.5c5.1,8.8,4,16.8-2.3,24.4c-6.6,0.6-7.7,0.5-10.6-1.4c2.4-2.5,5.3-4.7,6.6-8.1
									c0.2-0.7,0.4-1.3-0.1-2c-1.2-0.5-1.5,0.6-1.9,1.3c-1.5,3-3.7,5.4-6.3,7.3c-2.6,2-5.6,3-9,1.9c1.5-2.4,1.5-2.5,1.7-5
									c-2,0.9-3.3,2.5-4.5,4.1c-1.6,2.1-3.3,2.1-5.8,1.2c0.4-2.6,2.9-3.4,4.2-5.2c1.5-2,3.1-4.1,4.6-6.2c1.3-1.9,2.6-3.9,3.7-5.9
									c1.1-1.9,2.5-3.8,2.4-6.3c-1.9-0.4-2.2,1-2.6,1.9c-1.6,3.9-4,7.3-6.4,10.8c-1.7,2.5-3.5,5-6,6.7c-1.3,1-2.4,2.2-3.2,3.6
									c-0.9,1.7-2.3,1-3.4,0.7c-0.7-1.3-0.2-2.2,0.5-2.7c2.2-1.8,3.9-3.9,5.4-6.4c0.4-0.6,0.5-1.3-0.5-2.2
									c-3.1,4-6.6,7.6-10.6,10.8c-2.1,0.4-4,0.2-5.9-0.7c-0.4-2.6,2.8-3.5,2.9-5.8c-0.7-0.9-1.4-0.5-1.9-0.1
									c-1.7,1.6-3,3.5-5.3,4.4c-1.5,0.6-2.7,0.5-3.5-1.5c5.6-5.2,10.6-10.8,15.2-17c3.7-5,7.6-10,8.9-16.4c0.1-0.7,0.1-1.3,0.1-2
									c0-0.2-0.3-0.3-0.6-0.6c-0.1-0.1-0.2-0.1-0.3-0.1c-0.1,0-0.2,0-0.3,0.1s-0.2,0.1-0.2,0.2c-0.1,0.1-0.1,0.2-0.1,0.3
									c-1.5,5.7-4.4,10.7-7.8,15.5c-4.1,6-8.9,11.4-14.2,16.2c-3.7,3.4-7.9,5.5-13.2,5.5c-5.9,0.1-11.4,1.8-16.8,4.1
									c-0.9,0.4-1.7,0.5-2.3-0.7c1.1-1.8,3.4-1,4.8-2.2c1.4-1.2,3.1-2,4.6-3.2c1.4-1.2,3.1-2.1,3.9-3.9c-0.9-1-1.6-0.4-2.3,0.2
									c-2,1.6-3.9,3.3-6.2,4.2c-1.3-0.2-1.1-1.4-1.8-1.9c-0.6-0.4-1.2-0.6-2.1-1.1c-0.1-3.1-0.3-6.4-0.4-9.6c0-0.5-0.1-1,0.2-1.4
									c2.4-4,3.9-8.4,7.8-11.4c7.3-5.8,15.4-10.2,24-13.9c3.4-1.5,7.1-2.3,10.6-3.3c5.9-1.7,11.1-4.6,16.4-7.5
									c2-1.1,4-2.4,6.2-3.2C311.6,238.6,317.2,240.7,320.1,246.1L320.1,246.1z M238.3,266.6c-0.2-2.9,0.8-5.5,1.5-8.2
									c0.7-2.7,1.6-5.3,2.5-8c0.8-2.5,2.8-4.7,3.1-8.8c-6.4,7.3-6.9,15.7-10.2,23.6c-2.9-2.8-4-6.2-5.8-8.1
									c-1.2-2.4,0.7-3.7,0.2-5.5l-1.8-0.5c-0.1-0.3-0.4-0.8-0.4-1.2c0.1-2.7,2.5-4.9,2-8.5c-3.5,2.4-2.7,6.6-5.2,9.1
									c-3-2.6-5.6-5.4-5.9-10.2c3.3-4.2,7.8-7.3,13.2-9.2c1.8-0.6,3.6-0.6,5.5-0.3c6.2,1,12.5,0.7,18.8,0.8c1.4,0,2.9,0,4.1-0.5
									c4.7-1.9,9.2-0.2,13.6,1c3.3,0.8,5.8,3,7.6,5.8c1.9,2.9,2.9,6.1,2.9,9.6c-6.2,2.9-12.8,5.1-19.1,7.3
									c-0.3-0.1-0.5-0.3-0.8-0.5c0.5-1.3,1-2.6,1.5-3.9c-0.8-0.8-1.6-0.9-2.1,0.2c-0.7,1.7-1.4,3.4-2,5.2
									c-0.7,1.8-2.1,2.3-3.9,2.3l0.2-0.2l-0.3-0.2c0,0.1,0,0.3,0.1,0.4c-3.6,2.8-7.1,5.6-10.7,8.3c-0.5,0.4-1.2,0.5-1.8,0.7
									c-0.9-2.6,1.8-4.3,1.2-6.7c-2.2,0.3-2.2,2.4-2.9,3.7c-0.8,1.6-1.2,3.5-1.9,5.2c-0.7,1.6,0.2,3.8-2,5.2
									C237.7,272.2,238.5,269.3,238.3,266.6L238.3,266.6z M242.2,213.9c5.4-2.1,10.7-3.8,16.8-2.8c7,1.2,14.1,2.6,21.4,2.4
									c4.4-0.1,8.5,2,12.8,3.2c1.1,0.4,2.1,1,2.9,1.9c4.7,5.1,9.7,10.1,12.9,16.6c-1.3,2.2-3.9,2.1-5.9,3.2
									c-2.2,1.2-4.6,2.2-6.7,3.7c-2.7,2-2.8,1.9-6.7,2.6c4-3.9,5.5-8.4,6.1-13.3c0.1-0.6-0.2-1.3-1.2-1.6
									c-1.6,3.5-1.8,7.6-4.1,10.9c-0.7,0.9-1.4,1.8-2.4,2.9c-2.6-1.2-2.2-4-3.3-5.8c-1.2-1.9,0.3-4-0.2-6.1
									c-0.7,0.2-1.2,0.3-1.5,0.5c-0.5,0.4-0.9,1.3-1.7,0.6c-0.4-0.4-0.9-1.3-0.8-1.8c0.4-1.8,1.2-3.5,1.7-5.3
									c0.4-1.5,1.2-3.1,0-4.9c-2.6,2.5-1.2,6.9-4.9,9.1c-3.1-0.8-6.4-1.7-9.8-2.5c-3.5-0.9-6.8,1.3-10.3,0.8
									c-1.5-1.1-1.4-3.2-3.1-4.3c-1.6-1.1,1.3-3.4-0.8-5.3c-2.5,2.7-2.5,7.1-6.3,9.4c-0.6-5.3-4.2-8.3-7.2-11.3
									C240,214.9,241.2,214.3,242.2,213.9L242.2,213.9z M222.3,212.1c0.9-0.4,1.8-0.6,2.7-0.6c1,0,1.9,0.3,2.7,0.7
									c5.7,3.2,11,7,15.2,12c0.8,0.9,0.9,2.1,0.1,3.4c-3.5,0-7.2-0.2-10.8,0.1s-6.2,3-9.9,4.9c0-1.3,0.1-1.8,0-2.3
									c-0.1-0.4-0.2-1-0.5-1.1c-0.4-0.1-0.8-0.1-1.1,0.2c-1.4,1.6-1.1,3.9-2,6c-2.7-0.7-0.5-3.3-2-4.5s-0.7-3-0.2-4.5
									c0.6-1.7,1.4-3.3,2.1-4.9c-1.2-1.4-1.9-0.2-2.3,0.4c-1.1,1.7-1.9,3.5-3.1,5.6c-2.2-1.5-2.8-3.8-4.3-5.7
									C212.1,216.5,217.3,214.4,222.3,212.1z M219.3,318.9c-0.6-3.3,0-6.4-0.7-10.1c-2.8,3.6-0.6,7.4-2.3,10.5
									c-1.3-1.4,0-2.9-0.9-4.3c-0.9-1.3-1.2-3-1.6-4.6c-1.4-7-1.2-13.9,0.6-20.8c0.7-2.7,1.7-5.3,2.5-8c0.3-1.1,0.5-2.3-0.1-3.4
									c-1.1-0.1-1.5,0.7-1.8,1.6c-1,3.1-1.9,6.2-3,9.3c-0.8,2.4-1.3,4.9-1.4,7.5c-0.3,6.8-0.6,13.5,3.1,20.2
									c-4.8-2-6.3-3.2-8.8-6.7c-1.8-2.4-2.2-5.2-2.1-7.9c0.1-2.8,0.1-5.5-1.1-8.5c-2.3,2.1-0.4,4.9-1.7,6.9
									c-1.4-0.1-2-1.1-2.4-2.2c-1.4-3.1-1.5-6.3-1.5-9.6c0-4.9,0.4-9.8,1.7-14.6c0.4-1.5,1.4-3,0.3-4.6c-3.3,3.1-4.7,10.7-4.7,25
									c-1.6,0.3-2.2-0.6-1.6-1.8c0.9-1.9,0.7-3.6,0.1-5.4c-2.5-8.2-1.4-16.2,1.7-23.9c1.6-4.1,2.9-8.4,5.4-12.1
									c0.5-0.8,0.6-1.8-0.4-2.7c-2.5,1.5-3.6,4.2-4.7,6.6c-1.5,3.4-2.8,6.9-3.9,10.5c-2.3,7.4-3.1,15-1,22.7
									c-4.4-5.3-6.8-11.5-7.7-18.3c-0.2-1.3,0-2.8,0.3-4.2c1.2-6.4,3-12.7,5.7-18.6c2.5-5.3,4.8-10.6,6.1-16.3
									c0.5-2.2,1.7-4.3,2.5-6.5c1.3-3.8,5.6-4.1,8-2.3s4.8,3.7,6,6.7c1.4,3.4,3.3,6.7,4.5,10.2c2.2,6.5,6,12.1,10.5,17.2
									c4.9,5.7,8.8,11.9,11.3,19.1c1.2,3.4,1.1,6.8,1.4,10.3c0.4,4.9-0.5,9.8-1.3,14.6c-0.3,2.1-1.1,4.1-2.9,5.4
									c-4.7,3.5-8.5,7.9-12.2,12.4C220.8,318.4,220.3,318.4,219.3,318.9L219.3,318.9z M317,343.3c2,1.2,3.8,2.6,5.7,4
									c7.4,5.4,7.2,11.3,6,18.6c-0.5,2.9-2.5,4.9-5.5,5.7c-4.3,1-8.5,2.1-13,1.6c-8.1-0.8-16.2-1.2-24.3-1.9
									c-3.5-0.3-7,0-10.4,0.5c-1.8,0.3-3.7,0.6-5.5,0.9c-6.7,0.9-11.7-2.1-15.6-7.3c-1.4-1.9-2.6-3.8-3.7-5.9
									c-2.6-5.1-5.1-10.3-7.8-15.7c3.2-0.7,4,2.2,5.8,3.3c2,1.2,3.6,2.9,5.4,4.4c1.7-2.2-1.9-2.8-1.4-4.6
									c6.2,2.2,9.5,5.5,17.2,17.6c0.7-4.1-1.6-6.5-3.4-8.9c-1.8-2.6-4-5-6.5-8c6.8-0.7,12.5-0.5,16.7,4.9c2.1,2.7,4.4,5.1,7,7.8
									c0.7-2.5-1-3.4-1.8-4.6c-0.8-1.1-1.8-2.1-2.7-3.2c-1-1.2-2.1-2.5-3.1-3.9c1.7-1.8,3,0.3,4.4,0.2c1.3-0.3,0.5-1.6,1.2-2.2
									c1.4-0.7,3.1-1.1,4.6-0.7c2.1,0.5,3.4,0.2,4.6-1.7c0.6-1.1,2.1-0.9,3.2-0.5c3.1,1.1,6,2.4,8.6,4.6c1.9,1.7,3.9,3.1,5.9,4.7
									c-2.3-5.3-7.2-7.7-11.2-11.2c2.7-2.8,6.3-3.2,8.8-5.1c2.6,0.6,3.6,2.8,5.4,3.7S315.3,342.2,317,343.3L317,343.3z
									 M338.2,317.1c-1.8,2.7-4.1,5-7.1,6.6c-3.3,1.8-6.7,3.3-10.2,4.4c-6.5,1.9-12.7,4.5-18.9,7.1c-1,0.4-2,1.3-3.2,0.4
									c14.7-14.6,14.9-14.9,15.8-18.9c-2.4,1.5-3.9,3.5-5.5,5.4c-6.3,7.7-13.9,13.6-22.7,18.2c-5.2,2.7-10.6,3.9-18.3,3.7
									c8.4-3.2,16.4-5.7,21.8-12.6c-1.2-1.1-2-0.3-2.6,0.2c-7.1,6.1-15.5,8.9-24.6,10.6c-5.6,1-10.5,0.3-15.6-1.4
									c-0.4-0.1-0.6-0.7-1.1-1.3c5.6-1.9,11.9-1.5,16.8-5.1c-0.5-1.5-1.4-1.2-2.2-0.8c-4.5,2.2-9.3,2.9-14.1,3.6
									c-2.5,0.4-5.1,0.3-7.6,0.2c-1.2,0-2.2-0.7-2.4-2.5c11.1,0.9,21-2.5,29.7-9.2c-0.4-1.7-1.4-1.3-2.2-0.8
									c-1.4,0.8-2.8,1.7-4.2,2.5c-6.2,3.5-12.7,5.5-21.2,5.5c11.8-4.8,22.8-8.5,30.2-18.2c-1.6-1.4-2.3-0.2-3.1,0.5
									c-5.5,5.5-11.9,9.6-19.3,12.2c-6.4,2.3-12.9,3.7-21.4,2.8c5.6-4,11.4-5.6,15.6-10.5c-4.1-0.8-5.3,3.5-8.6,3.2
									c-0.1-1.6,1.4-2.1,2.2-2.9c1.1-1.2,2.3-2.3,3.3-3.6c0.8-1,2.3-1.8,1.3-3.9c-5.5,4.6-9.4,11.6-17.2,12.3
									c-1.2-1.3-0.4-2.1,0-2.8c6.2-9.9,14.4-17.6,25.4-21.9c7.1-2.7,14.5-3.1,22-3.2c1.1,0,2.3,0.4,3.4,0.7
									c9.5,2.6,19.3,2.8,29,2.4c7.2-0.3,14.4-0.3,21.6,0.8c4.1,0.7,8.2,1.6,12,3.6C339.8,307.3,341.2,312.6,338.2,317.1
									L338.2,317.1z"/>
							</g>
						</g>
					</g>
					<path class="st2" d="M58.2,265L58.2,265l-0.2-0.2L58.2,265z"/>
					<path class="st2" d="M190.6,537.6c0.7,0.9,1.6,1.7,2.9,1.8c0.2,0.9,0.6,1.7,1.2,2.4c0.6,0.7,1.4,1.2,2.2,1.4
						c-0.1-2.5-0.1-2.5-3.2-4.1c-0.4-1.9-1.8-3.2-3.1-4.5c-7.8-8.4-16.8-15.3-26.4-21.4c-0.8-0.5-1.6-0.7-2.3,0.4
						c2.1,1.5,4.1,3.1,6.2,4.5C176.3,523.8,184,530,190.6,537.6z"/>
					<path class="st2" d="M186,479.1c2.5-3.4,5.2-6.6,7.2-10.2c2.1-3.8,3.7-8,5.4-12c0.4-1,0-1.8-1.7-2.4c-0.6,1.7-1.2,3.2-1.8,4.7
						s-1.2,3-1.8,4.5c-0.7,1.5-1.3,3-2.1,4.4c-0.9,1.6-1.8,3.2-2.8,4.8c-0.9,1.4-1.9,2.7-2.9,3.9c-1.4,1.6-1.4,1.6-1.7,3.6
						C184.9,480.5,185.5,479.8,186,479.1z"/>
					<path class="st2" d="M192.1,508.7c-2.2-2.7-4-3.6-7.8-4.8c0.6,2.1,2.7,2.5,3.8,3.8c1.2,1.4,2.5,2.7,3.8,4.1
						c1.4,1.5,2.8,3.1,4.3,4.5c1.4,1.2,3,2.1,4.4,3.1c0.3-0.2,0.6-0.3,0.7-0.5c0.1-0.1-0.1-0.4-0.2-0.5
						C198,515.2,194.9,512.2,192.1,508.7z"/>
					<path class="st2" d="M271.7,504.7c-2.5-3.8-5.6-7.1-9.3-9.8c1.9,4.6,5.7,7.5,8.7,11.5C271.5,505.5,271.9,504.9,271.7,504.7z"/>
					<path class="st2" d="M275.5,498.7c-1.6-2.9-3.9-5.1-6.3-7.3c-0.7-0.6-1.4-1.2-2.4,0.3c2.6,3,5.9,5.6,8.2,9.6
						C276.1,500,275.9,499.3,275.5,498.7z"/>
					<path class="st2" d="M210.2,535.3c-1.6-2.1-3.3-4.4-6.4-4.9c1.7,1.8,3.5,3.7,5.2,5.6C209.5,536.3,209.8,536.2,210.2,535.3z"/>
					<path class="st2" d="M256.1,487.7c-1.3-1.3-2.7-2.5-4.1-3.8c-0.7-0.6-1.6-0.9-2.3,0.3C251.4,486,253,487.8,256.1,487.7z"/>
					<path class="st2" d="M222,519.2l4.5,4.5C226,521.1,224.4,519.6,222,519.2z"/>
					<path class="st2" d="M191.6,516.3c-3.5-2.1-4.6-5-7.6-5C186.5,514.7,186.6,514.7,191.6,516.3z"/>
					<path class="st2" d="M184,511.3l-0.1-0.1h-0.1c0,0.1,0,0.1,0,0.2h0.2V511.3z"/>
					<path class="st2" d="M220.3,530.5c-0.5-0.3-0.8-0.3-1.1,0.6l3.5,3.9C223.2,532.6,221.7,531.5,220.3,530.5z"/>
					<path class="st2" d="M227.5,485.3c-0.3-0.1-0.8,0.2-1.2,0.2c1.2,1.9,3.3,2.1,6.3,3.4C230.9,486.4,229,486.2,227.5,485.3z"/>
					<path class="st2" d="M155.7,520.4c-2.5-2.6-2.5-2.6-5.3-3.4C152.6,520.1,152.6,520.2,155.7,520.4z"/>
					<path class="st2" d="M150.5,517l-0.1-0.2h-0.1v0.1L150.5,517z"/>
					<path class="st2" d="M111.1,277.6L111.1,277.6v-0.1C111.1,277.5,111.1,277.5,111.1,277.6z"/>
					<path class="st2" d="M109.6,278.6c-2,3.4-4.3,6.6-5.9,10.2c-2.3,5-4.3,10.2-6.2,15.4c-0.6,1.5-1,3.4,0.4,5.3
						c0.4-1,0.7-1.6,0.9-2.2c2.9-9.3,6.3-18.4,11.6-26.6c0.6-1,1-2,0.7-3.2C110.4,277.6,110,278,109.6,278.6z"/>
					<path class="st2" d="M59.6,326c4.6,0.7,8.5,0.5,12.3,1c4.1,0.5,8.1,1.7,12.2,2.3c3.8,0.5,7.3,2.5,12,2.7
						C85.1,325.9,68.2,323.1,59.6,326z"/>
					<path class="st2" d="M93.5,254.2c-3.6,5.8-6.5,12.1-8.9,18.6c-0.8,2.3-2,4.7-1,7.8c1.3-0.7,1.4-1.7,1.6-2.5
						c2.1-7.9,4.8-15.5,9.2-22.4C94.9,255.1,94.7,254.4,93.5,254.2z"/>
					<path class="st2" d="M73.6,312.4c1.2,0.4,2.6,0.1,3.9,0.1c-0.1-0.2-0.1-0.4-0.2-0.5c-6.7-2.6-13.5-3.9-20.7-2.7
						c-0.6,0.1-0.7,0.6-0.5,1.1c0.6,0.8,1.6,0.6,2.4,0.5C63.6,310.9,68.7,310.9,73.6,312.4z"/>
					<path class="st2" d="M62.8,263.3c1-1.1,1.7-1.5,1.8-2.1c0.7-4.9,2.9-9.3,5.1-13.6c0.5-1,1.3-2,0-3.5
						C66.6,250.1,62.5,255.5,62.8,263.3z"/>
					<path class="st2" d="M80.4,255.3L80.4,255.3c0.1-0.2,0.1-0.3,0.1-0.3l-0.1,0.1C80.4,255.2,80.4,255.2,80.4,255.3z"/>
					<path class="st2" d="M75.4,270c1.2-3,2.6-5.9,3.6-9c0.6-1.9,1.9-3.6,1.5-5.7c-3.9,3.8-5.2,8.9-6.5,13.9
						C73.8,269.7,74.5,270.3,75.4,270z"/>
					<path class="st2" d="M54.3,264.1c-3.2-1.2-6.5-2.2-10-2.5c-0.9-0.1-1.9,0.1-1.5,1.6c4.1,0.5,8.1,1.4,11.9,2.8
						c1.2,0.4,2.6,0.7,3.3-1C56.7,265.1,55.5,264.5,54.3,264.1z"/>
					<path class="st2" d="M58.2,265l-0.2-0.2c0,0.1,0,0.1-0.1,0.2C58.1,265,58.1,265,58.2,265z"/>
					<path class="st2" d="M106.7,270.4c-2.6,1.9-3.6,3.7-3.2,6.3C105.3,275.3,106.7,273.6,106.7,270.4z"/>
					<path class="st2" d="M80.8,334.5c2.3,0.8,4.7,0.6,7.2-0.7l-6.7-0.9L80.8,334.5z"/>
					<path class="st2" d="M77.9,312.6l-0.2-0.1h-0.2c0,0.1,0,0.1,0.1,0.1H77.9z"/>
					<path class="st2" d="M85.5,314.3c-2.3-2.1-4.9-2-7.6-1.7C81.6,314.4,82.4,314.6,85.5,314.3z"/>
					<path class="st2" d="M80.6,254.9c2.5-2.1,2.5-2.2,3.2-4.8C82.2,251.5,80.7,252.8,80.6,254.9z"/>
					<path class="st2" d="M67.3,237.2c-1.9,2.4-1.9,2.4-2,5C66.5,240.7,67.5,239.4,67.3,237.2z"/>
					<path class="st2" d="M223.5,61.9C219,67.7,216,74.2,213.4,81c-0.2,0.4-0.2,0.9-0.1,1.4c0.1,0.4,0.5,0.9,0.8,0.9
						c0.4,0,1.1-0.3,1.2-0.6c1.1-3.8,2.6-7.4,4.7-10.8c4.3-7,9-13.6,14.9-19.3c3.5-3.4,6.9-6.9,10.6-10.8c-1-0.4-1.3-0.6-1.4-0.5
						c-0.6,0.3-1.2,0.6-1.8,1C235.2,48,229.1,54.7,223.5,61.9z"/>
					<path class="st2" d="M254.6,76.2c1.8-5.1,4.4-10.4,2.4-16.3c-1.9,3.5-2.2,7.4-3.2,11.1c-1.1,4.1-2.8,7.9-5,11.4
						c-2.1,3.3-4.4,6.4-6.6,9.6C249,88.9,252.2,82.6,254.6,76.2z"/>
					<path class="st2" d="M231.2,41.7c-3,3.3-5.5,5.2-7.5,9.7C228,48.4,229.2,46.8,231.2,41.7z"/>
					<path class="st2" d="M211.2,90.1c-0.9,1.5-1.8,3-1.4,4.9c2.4-0.2,2-2.7,3.3-3.7c-0.2-0.6-0.5-1.1-0.8-1.6
						C212.2,89.5,211.3,89.8,211.2,90.1z"/>
					<path class="st2" d="M213.1,91.2L213.1,91.2h0.1c0-0.1,0-0.1,0-0.2C213.2,91.1,213.1,91.2,213.1,91.2z"/>
					<path class="st2" d="M308.1,310.5c-3.7,4.8-7.7,9.6-13.3,14.5c2-0.3,2.5-0.3,2.8-0.5c5-3.2,8.7-7.7,11.8-12.6
						C309.7,311.5,309.4,310.6,308.1,310.5z"/>
					<path class="st2" d="M285.4,315c-0.2,0.2-0.2,0.7-0.2,1.1c3.6-1.6,5.9-3.4,8.2-6.6c0.7-1,1.9-2.1,0.3-4.4
						C291.4,308.8,288.6,312.1,285.4,315z"/>
					<path class="st2" d="M282.3,308.7l-8.8,9.8C281.5,313.5,282.2,312.6,282.3,308.7z"/>
					<path class="st2" d="M246.3,315.2c2.7-2,4.8-4.5,6.3-7.6C248.2,310.1,246.7,312,246.3,315.2z"/>
					<path class="st2" d="M303,249.3c-2,3.9-1.4,7.8-3.1,11.1c-1.6,3.1-2.8,6.4-4.4,9.4c-1.7,3.2-3.7,6.3-5.6,9.4
						c7.4-6.6,11.9-14.6,13.7-22.6C304.1,254.4,304.9,252.1,303,249.3z"/>
					<path class="st2" d="M259.2,269.1c-2.3,1.8-2.9,4.4-4.4,6.4c-1.4,1.8-2.8,3.6-4.3,5.4c-1.6,2-3.9,3.3-4.6,6.1
						c5-2.3,7.9-6.6,11-10.8C258.9,273.4,259,272.8,259.2,269.1z"/>
					<path class="st2" d="M267.5,270.8c-4.9,5.9-8.2,11.1-12,16.1C261.5,282.4,265.9,276.6,267.5,270.8z"/>
					<path class="st2" d="M301.8,281.5c3.3-3.8,6-7.6,7.7-12.1c0.5-1.3,0.6-2.7-1.1-4.6c-1,6-4.6,10.2-7,15.1
						C301.3,280.1,301.6,280.7,301.8,281.5z"/>
					<path class="st2" d="M110,165.2c-1.4-2.1-2.6-4.4-3.6-6.8c-1.8-4.3-3.1-8.7-3.8-13.3c-0.2-1.1-0.3-2.3-1.9-2.8
						c-0.2,0.6-0.6,1.2-0.5,1.7c0.8,7.2,3,14,6.2,20.5c1.6,3.2,4.2,5.5,6.8,7.8c2.2,2,5,2.4,7.8,1.6c0.5-0.1,0.8-0.8,1.2-1.2
						C116.8,172.5,112.9,169.5,110,165.2z"/>
					<path class="st2" d="M143,126.2c-1.1-6.3-8.2-17.1-13.5-20.5c-0.9-0.6-1.7-0.5-2.9,0.6c7.7,5.6,11.8,13.8,16.1,22.7
						C142.9,127.5,143.2,126.8,143,126.2z"/>
					<path class="st2" d="M126.5,118c-0.6-0.9-1.4-1-2.4,0.4c4,6.3,6.8,13.2,8.1,20.8c0.1,0.8,0.8,0.9,1.9,0.3
						c-0.2-1.4-0.4-2.9-0.6-4.5C133,128.7,129.9,123.3,126.5,118z"/>
					<path class="st2" d="M109.7,121c-0.4,8.4,0.7,15.9,5.6,24c-1.4-7.9-2.6-14.4-3.8-21C111.3,123.1,111.5,122.1,109.7,121z"/>
					<path class="st2" d="M150,130.7c-0.2-2.4-0.9-4.8-3.8-6c2.9,6.3,3.2,12.9,3.3,19.7C150.7,139.9,150.3,135.3,150,130.7z"/>
					<path class="st2" d="M221.4,283.5c-3.2,3.4-2.8,7.1-3.7,10.2c-0.8,3-1.3,6.3,0.6,9.3C218.4,296.6,221.7,290.8,221.4,283.5z"/>
					<path class="st2" d="M207.9,246.1c-4.6,4.5-6.2,10.3-6.6,16.6c2.9-5.2,4.5-11,7.7-15.7C208.6,246.1,208.2,245.8,207.9,246.1z"
						/>
					<path class="st2" d="M223.9,276.8c2.3-3.2,2.3-3.2,0.5-5.7C224.7,273.3,223,274.4,223.9,276.8z"/>
					<path class="st2" d="M267,109.2c3.4,0.5,5.1-1.6,6.9-3.1c0.7-0.6,2.2-1.2,1-2.9C272.3,105.1,269.8,107,267,109.2z"/>
					<path class="st2" d="M249.9,111.5c2.8,2.2,4.9,2.3,7.4,0C254.7,111.3,252.6,110.6,249.9,111.5z"/>
					<path class="st2" d="M299,351.8c-1.1-0.8-2.3-1.5-3.5-2.1c-0.2-0.1-0.7,0.3-1.4,0.7c1,2.3,3.3,3,4.9,4.5
						c1.8,1.8,3.6,3.5,5.3,5.4c1.5,1.7,2.9,3.5,4.6,5.6c1-2.4-0.4-3.3-1.2-4.3C305.1,358.1,302.5,354.5,299,351.8z"/>
					<path class="st2" d="M206.7,19c-0.6,5.2-0.6,5.2,2.2,8.5C209.5,24.3,207.7,21.8,206.7,19z"/>
					<path class="st2" d="M258.8,252.9c1.7-3.8,3.7-7.4,5.9-10.9c0.5-0.9,1.5-1.8,0.7-3c-0.2-0.1-0.6-0.3-0.6-0.3
						c-2.9,3.1-7.2,11.6-8.9,17.5c0.5,0.5,1.1,1,1.7,1.6C257.5,256,258.1,254.5,258.8,252.9z"/>
					<path class="st2" d="M55.7,274.7c-4.3-1.1-8.7-1.4-13.1-1.5c-1.2,0-2.3-0.1-3.2,0.9c1,1.3,2.5,1,3.9,1
						c5.1,0.2,10.2,0.7,15.1,2.3c0.8,0.2,1.7,0.1,2.5,0.1C59.6,275.6,57.6,275.2,55.7,274.7z"/>
					<path class="st2" d="M60.8,277.4l0.1,0.1l0.2-0.1v-0.1h-0.3V277.4z"/>
					<path class="st2" d="M51,295.9c-2,0.2-4.1-1.5-6.7,1.3C47.2,296.5,49.2,297.7,51,295.9z"/>
					<path class="st2" d="M228.1,458.3c-2.5,2.2-3.5,5-5.1,7.4c-1.5,2.4-4.7,3.6-5.2,7.3C224.8,467.5,227,464.3,228.1,458.3z"/>
					<path class="st2" d="M244.7,455.6L241,462C245.4,458.7,245.4,458.7,244.7,455.6z"/>
					<path class="st2" d="M282.3,50.1c5.1-2.2,5.4-2.4,6.9-5.8C285.9,45.4,284.2,47.9,282.3,50.1z"/>
					<path class="st2" d="M271.4,59.2c-0.7,0.7-1,1.4,0.2,2.1c1.6-1.2,3.4-2.2,4.5-4.6C273.4,56.7,272.6,58.2,271.4,59.2z"/>
					<path class="st2" d="M162.5,472.4c-2.3,2.6-2.4,5.6-2.8,8.4C161.5,478.5,163.7,476.2,162.5,472.4z"/>
					<path class="st2" d="M43.2,236.5c-1.5-1.9-3.5-2.4-5.4-3.1c-0.9-0.3-1.8,0.1-1.7,1.6C38.4,235.4,40.4,237.3,43.2,236.5z"/>
				</g>
			</g>
		</g>
	</g>
</g>
</svg>
