<svg xmlns="http://www.w3.org/2000/svg" xmlns:xlink="http://www.w3.org/1999/xlink" width="480" zoomAndPan="magnify" viewBox="0 0 360 503.999982" height="672" preserveAspectRatio="xMidYMid meet" version="1.0"><defs><filter x="0%" y="0%" width="100%" height="100%" id="6cb9b0df52"><feColorMatrix values="0 0 0 0 1 0 0 0 0 1 0 0 0 0 1 0 0 0 1 0" color-interpolation-filters="sRGB"/></filter><clipPath id="9f79192850"><path d="M 171.15625 414.226562 L 188.332031 414.226562 L 188.332031 428.699219 L 171.15625 428.699219 Z M 171.15625 414.226562 " clip-rule="nonzero"/></clipPath><clipPath id="f0a5b4c36f"><path d="M 172.503906 416.726562 C 171.183594 418.902344 172.113281 421.019531 173.28125 422.140625 L 180.117188 428.699219 L 186.808594 422.164062 C 187.894531 420.957031 188.3125 419.675781 188.082031 418.246094 C 187.761719 416.269531 186.132812 414.738281 184.121094 414.519531 C 182.890625 414.386719 181.699219 414.734375 180.769531 415.507812 C 180.519531 415.714844 180.292969 415.949219 180.097656 416.203125 C 179.867188 415.914062 179.597656 415.652344 179.289062 415.417969 C 178.222656 414.605469 176.859375 414.28125 175.554688 414.535156 C 174.316406 414.773438 173.203125 415.570312 172.503906 416.726562 Z M 172.503906 416.726562 " clip-rule="nonzero"/></clipPath><mask id="956f1ef1ce"><g filter="url(#6cb9b0df52)"><rect x="-36" width="432" fill="#000000" y="-50.399998" height="604.799979" fill-opacity="0.53"/></g></mask><clipPath id="cfbd59327a"><path d="M 0.597656 1 L 241 1 L 241 484 L 0.597656 484 Z M 0.597656 1 " clip-rule="nonzero"/></clipPath><clipPath id="9f145598b0"><rect x="0" width="243" y="0" height="485"/></clipPath></defs><g clip-path="url(#9f79192850)"><g clip-path="url(#f0a5b4c36f)"><path fill="#ffffff" d="M 171.859375 414.449219 L 188.140625 414.449219 L 188.140625 428.699219 L 171.859375 428.699219 Z M 171.859375 414.449219 " fill-opacity="1" fill-rule="nonzero"/></g></g><g mask="url(#956f1ef1ce)"><g transform="matrix(1, 0, 0, 1, 67, 10)"><g clip-path="url(#9f145598b0)"><g clip-path="url(#cfbd59327a)"><path fill="#000000" d="M 235.773438 224.34375 C 234.464844 223.613281 232.648438 223.527344 232.007812 221.617188 C 232.429688 220.761719 232.957031 219.855469 233.339844 218.890625 C 235.632812 212.929688 236.464844 207.066406 232.496094 201.394531 C 230.65625 198.773438 229.820312 195.675781 229.285156 192.589844 C 228.6875 189.109375 227.511719 185.898438 226.195312 182.648438 C 225.148438 180.0625 223.636719 178.160156 221.367188 176.710938 C 220.050781 175.875 218.585938 175.183594 217.832031 173.691406 C 215.433594 168.957031 211.832031 165.171875 208.316406 161.277344 C 206.480469 159.238281 204.425781 158.058594 201.796875 157.269531 C 197.929688 156.105469 194.140625 154.953125 190.039062 155.296875 C 189.1875 155.371094 188.300781 155.179688 187.441406 155.039062 C 184.175781 154.511719 180.917969 153.957031 177.65625 153.410156 C 175.917969 153.117188 174.164062 152.960938 172.457031 153.441406 C 168.949219 154.4375 165.269531 154.871094 162.058594 156.839844 C 161.34375 157.269531 160.433594 157.339844 159.601562 157.578125 C 158.640625 156.902344 157.847656 156.195312 156.933594 155.734375 C 153.6875 154.089844 150.589844 153.558594 147.070312 155.613281 C 143.777344 157.554688 140.683594 159.78125 137.792969 162.285156 C 137.171875 162.082031 136.699219 161.894531 136.210938 161.777344 C 131.335938 160.585938 129.058594 161.960938 127.5 166.601562 C 125.945312 171.246094 124.265625 175.820312 122.402344 180.332031 C 120.394531 185.171875 118.722656 190.042969 117.578125 195.207031 C 116.601562 199.636719 117.230469 203.582031 118.867188 207.433594 C 121.332031 213.230469 124.625 218.601562 128.332031 223.707031 C 132.375 229.257812 137.238281 233.972656 142.613281 238.1875 C 143.707031 239.050781 144.941406 239.730469 145.855469 241.347656 C 144.507812 243.730469 143.648438 246.5625 142.804688 249.398438 C 141.347656 254.28125 139.164062 258.835938 136.621094 263.238281 C 133.125 269.285156 129.742188 275.390625 126.203125 281.421875 C 123.640625 285.78125 121.117188 290.191406 118.199219 294.316406 C 111.949219 303.132812 105.980469 312.191406 98.855469 320.378906 C 95.289062 324.460938 92.160156 328.902344 88.222656 332.652344 C 84.558594 336.15625 81.113281 339.863281 77.886719 343.78125 C 76.898438 344.972656 76.042969 346.347656 74.410156 346.8125 C 73.9375 345.972656 74.066406 345.097656 74.234375 344.253906 C 76.429688 333.097656 80.046875 322.347656 83.660156 311.605469 C 85.050781 307.46875 86.710938 303.421875 87.675781 299.15625 C 88.75 294.390625 89.644531 289.585938 90.664062 284.808594 C 92.328125 276.960938 94.355469 269.160156 93.949219 261.019531 C 93.933594 260.667969 93.964844 260.320312 94.054688 259.980469 C 96.078125 252.507812 95.957031 244.753906 96.984375 237.148438 C 97.972656 229.886719 98.433594 222.550781 99.171875 215.253906 C 99.800781 208.992188 100.550781 202.746094 101.148438 196.488281 C 101.875 188.839844 102.5 181.183594 103.164062 173.535156 C 103.832031 165.882812 104.941406 158.28125 106.8125 150.808594 C 107.617188 147.589844 108.265625 144.332031 109.042969 141.105469 C 109.332031 139.914062 109.785156 138.789062 110.164062 137.636719 C 111.632812 133.167969 113.203125 128.726562 114.546875 124.222656 C 116.949219 116.183594 119.347656 108.105469 122.765625 100.476562 C 126.824219 91.40625 131.65625 82.683594 136.171875 73.820312 C 136.480469 73.222656 136.851562 72.609375 137.71875 72.449219 C 139.164062 73.019531 140.15625 74.234375 141.117188 75.476562 C 142.621094 77.402344 144.152344 79.308594 145.605469 81.269531 C 150.363281 87.6875 157.050781 90.875 164.601562 92.253906 C 171.621094 93.53125 178.472656 92.277344 184.992188 89.464844 C 188.351562 88.015625 191.570312 86.25 194.894531 84.714844 C 199.308594 82.675781 203.714844 80.757812 208.519531 79.578125 C 215.6875 77.816406 221.140625 73.902344 222.367188 65.734375 C 222.703125 63.484375 221.742188 61.644531 221.652344 59.476562 C 222.210938 58.675781 222.785156 57.808594 223.394531 56.972656 C 226.109375 53.207031 226.484375 49.125 224.261719 45.144531 C 222.429688 41.863281 221.40625 38.472656 220.765625 34.804688 C 219.980469 30.292969 217.351562 27.210938 212.730469 26.164062 C 211.1875 25.8125 209.710938 25.363281 208.421875 24.308594 C 207.945312 22.113281 207.59375 19.863281 206.933594 17.710938 C 205.742188 13.84375 202.808594 11.703125 198.773438 11.53125 C 197.378906 11.472656 195.980469 11.53125 194.585938 11.515625 C 193.496094 11.535156 192.527344 11.207031 191.671875 10.535156 C 186.753906 6.617188 181.445312 6.734375 175.9375 9.058594 C 173.230469 10.195312 170.5 11.273438 167.628906 12.4375 C 166.765625 10.460938 166.054688 8.496094 165.082031 6.671875 C 162.671875 2.144531 158.140625 0.296875 153.191406 1.828125 C 149.605469 2.933594 146.054688 3.226562 142.355469 2.484375 C 140.011719 2.003906 137.652344 1.894531 135.277344 2.160156 C 130.941406 5.335938 129.867188 10.058594 128.769531 14.59375 C 127.820312 18.5 126.867188 22.371094 125.582031 26.183594 C 124.019531 30.808594 122.253906 35.390625 121.570312 40.269531 C 121.253906 42.519531 120.988281 44.761719 121.785156 46.996094 C 123.742188 52.476562 126.164062 57.664062 130.746094 61.507812 C 131.679688 62.292969 132.683594 62.996094 133.574219 63.824219 C 135.769531 65.871094 136.207031 68.773438 134.683594 71.339844 C 130.847656 77.796875 127.761719 84.667969 123.980469 91.132812 C 118.539062 100.453125 115.105469 110.519531 111.9375 120.667969 C 108.492188 131.65625 105.390625 142.769531 103.007812 154.058594 C 102.769531 155.234375 102.519531 156.507812 101.671875 157.765625 C 101.363281 157.066406 101.195312 156.761719 101.089844 156.4375 C 98 146.820312 95.054688 137.132812 90.25 128.179688 C 89.402344 126.597656 89.449219 125.832031 90.867188 124.476562 C 93.417969 122.023438 95.382812 119.078125 97.039062 116.074219 C 100.566406 109.683594 102.757812 102.933594 99.933594 95.535156 C 98.984375 93.066406 98.398438 90.53125 99.726562 87.925781 C 100.007812 87.371094 99.769531 86.554688 99.800781 85.859375 C 100.132812 78.332031 97.125 71.914062 93.140625 65.839844 C 92.742188 65.261719 92.277344 64.742188 91.75 64.28125 C 84.300781 57.433594 76.453125 52.023438 68.207031 48.050781 C 64.703125 46.359375 60.675781 47.304688 58.695312 50.671875 C 57.808594 52.171875 56.707031 52.996094 55.25 53.613281 C 54.605469 53.878906 53.925781 54.089844 53.308594 54.40625 C 45.28125 58.695312 40.921875 65.160156 41.726562 74.363281 C 42.265625 80.507812 42.402344 86.480469 40.894531 92.53125 C 39.875 96.640625 40.328125 100.769531 42.136719 104.816406 C 43.941406 108.847656 46.496094 112.328125 49.800781 115.257812 C 51.761719 117.011719 53.527344 118.832031 54.953125 121.082031 C 56.714844 123.890625 58.84375 126.523438 61.621094 128.394531 C 65.273438 130.847656 69.113281 132.683594 73.824219 131.632812 C 76.738281 130.980469 79.59375 130.320312 82.210938 128.863281 C 83.589844 128.101562 84.996094 127.367188 86.746094 128.148438 C 88.757812 130.335938 89.710938 133.171875 90.605469 135.992188 C 92.820312 142.980469 95.167969 149.945312 96.984375 157.039062 C 98.472656 162.867188 100.269531 168.625 99.410156 174.960938 C 98.667969 180.460938 98.460938 186.082031 98.160156 191.644531 C 97.539062 203.167969 95.628906 214.542969 94.511719 226.011719 C 93.667969 234.6875 91.929688 243.273438 90.945312 251.941406 C 90.574219 255.246094 89.804688 258.464844 89.46875 261.773438 C 88.714844 269.230469 87.820312 276.671875 85.863281 283.953125 C 84.730469 288.15625 84.019531 292.472656 83.023438 296.722656 C 81.675781 302.476562 80.234375 308.207031 78.78125 314.152344 C 78.527344 313.648438 78.308594 313.386719 78.265625 313.101562 C 76.054688 298.96875 74.476562 284.71875 70.070312 271.019531 C 69.730469 269.953125 69.980469 268.96875 70.546875 268.019531 C 73.121094 263.785156 74.539062 259.097656 75.667969 254.335938 C 76.972656 248.855469 77.347656 243.328125 76.34375 237.710938 C 75.394531 232.390625 74.679688 227.03125 73.847656 221.6875 C 73.417969 218.929688 73.195312 216.113281 72.476562 213.433594 C 70.386719 205.636719 67.007812 198.386719 62.777344 191.507812 C 60.929688 188.492188 58.574219 185.953125 55.710938 183.882812 C 51.90625 181.109375 48.042969 178.414062 44.222656 175.660156 C 40.117188 172.703125 35.957031 169.773438 32.609375 165.933594 C 26.5 158.929688 19.425781 153.035156 11.816406 147.703125 C 11.117188 147.214844 10.425781 146.609375 9.066406 147.523438 C 8.773438 150.621094 7.308594 153.789062 6.859375 157.292969 C 6.222656 162.300781 5.109375 167.261719 4.246094 172.25 C 3.40625 177.0625 2.457031 181.867188 1.867188 186.714844 C 1.296875 191.390625 1.027344 196.113281 0.816406 200.820312 C 0.652344 204.480469 0.652344 208.144531 1.121094 211.8125 C 1.707031 216.371094 3.089844 220.613281 5.078125 224.757812 C 7.804688 230.445312 10.710938 235.957031 14.730469 240.894531 C 18.371094 245.375 22.125 249.726562 26.144531 253.859375 C 30.214844 258.035156 34.632812 261.25 40.566406 262.679688 C 48.335938 264.554688 55.863281 267.40625 63.511719 269.785156 C 66.488281 270.710938 68.1875 272.644531 68.703125 275.695312 C 68.789062 276.214844 68.875 276.734375 69.003906 277.242188 C 72.171875 289.660156 73.625 302.289062 73.808594 315.089844 C 73.871094 319.28125 74.15625 323.46875 74.332031 327.65625 C 74.363281 328.335938 74.558594 329.113281 74.308594 329.6875 C 73.300781 331.988281 73.597656 334.484375 73.085938 336.863281 C 71.375 344.894531 69.5 352.871094 67.019531 360.695312 C 65.011719 367.023438 63.160156 373.398438 61.148438 379.722656 C 57.292969 391.878906 52.988281 403.863281 47.511719 415.398438 C 43.84375 423.117188 39.609375 430.527344 35.179688 437.824219 C 33.730469 440.207031 32.324219 442.640625 31.054688 445.121094 C 27.515625 451.980469 23.125 458.316406 18.433594 464.363281 C 13.742188 470.414062 8.800781 476.347656 3.117188 481.5625 C 2.609375 482.023438 2.070312 482.515625 2.0625 483.289062 C 2.511719 483.972656 3.21875 484.050781 3.851562 483.796875 C 6.617188 482.691406 9.265625 481.304688 11.324219 479.128906 C 13.839844 476.472656 16.226562 473.6875 18.558594 470.863281 C 22.785156 465.746094 26.3125 460.136719 29.972656 454.609375 C 36.1875 445.257812 40.914062 435.140625 46.171875 425.296875 C 48.3125 421.304688 49.59375 416.859375 52.441406 413.246094 C 55.789062 408.988281 59.308594 404.902344 63.351562 401.253906 C 68.78125 396.359375 74.152344 391.410156 80.519531 387.535156 C 82.484375 388.753906 84.027344 390.355469 85.515625 392.082031 C 90.460938 397.828125 96.195312 402.488281 103.171875 405.695312 C 107.214844 407.5625 111.257812 408.898438 115.71875 408.796875 C 118.136719 408.738281 120.632812 408.226562 122.949219 408.671875 C 125.824219 409.222656 128.460938 408.851562 131.199219 408.214844 C 133.9375 407.578125 136.667969 407.113281 139.398438 406.578125 C 146.589844 405.183594 153.71875 403.550781 160.628906 401.070312 C 165.746094 399.230469 170.617188 396.882812 174.914062 393.507812 C 179.464844 389.945312 183.632812 385.980469 187.421875 381.613281 C 188.222656 380.691406 188.996094 379.71875 189.929688 378.949219 C 197.601562 372.582031 204.078125 364.992188 211.222656 358.089844 C 212.582031 356.722656 213.792969 355.234375 214.855469 353.625 C 216.519531 351.195312 216.097656 349.117188 213.863281 347.261719 C 212.359375 346.011719 210.648438 345.167969 208.890625 344.402344 C 205.027344 342.714844 200.957031 341.78125 196.828125 341.027344 C 189.296875 339.671875 181.644531 338.972656 174.238281 336.9375 C 169.703125 335.6875 165.015625 334.816406 160.679688 333.074219 C 153.023438 330 145.359375 328.566406 137.226562 330.691406 C 134.527344 331.390625 131.886719 332.277344 129.3125 333.355469 C 125.773438 334.839844 122.25 336.390625 118.609375 337.578125 C 112.480469 339.582031 107.273438 343.183594 102.769531 347.511719 C 96.996094 353.066406 91.882812 359.273438 88.40625 366.691406 C 85.960938 371.894531 82.996094 376.851562 80.441406 382.003906 C 79.226562 384.453125 77.652344 386.351562 75.269531 387.703125 C 72.839844 389.101562 70.621094 390.777344 68.613281 392.730469 C 65.085938 396.109375 61.421875 399.339844 57.785156 402.597656 C 57.519531 402.835938 57.105469 403.496094 56.421875 402.628906 C 57.019531 400.777344 57.625 398.785156 58.308594 396.824219 C 60.324219 391.058594 62.46875 385.335938 64.378906 379.539062 C 66.679688 372.578125 68.8125 365.5625 70.96875 358.566406 C 71.613281 356.550781 72.566406 354.699219 73.835938 353.007812 C 76.929688 348.769531 80.445312 344.90625 84.039062 341.09375 C 87.75 337.160156 91.511719 333.269531 95 329.144531 C 99.609375 323.683594 103.949219 317.996094 108.453125 312.441406 C 113.40625 306.335938 117.941406 299.921875 122.25 293.378906 C 125.980469 287.699219 129.113281 281.628906 132.808594 275.921875 C 137.089844 269.3125 140.589844 262.339844 143.667969 255.109375 C 145.082031 251.789062 146.417969 248.4375 147.835938 244.980469 C 151.5625 247.09375 154.664062 249.648438 157.964844 251.910156 C 161.261719 254.171875 163.613281 257.050781 165.363281 260.539062 C 166.382812 262.570312 167.503906 264.558594 168.351562 266.65625 C 169.214844 268.800781 170.457031 270.707031 171.824219 272.496094 C 175.867188 277.796875 180.984375 280.472656 187.78125 278.648438 C 190.519531 277.914062 193.300781 278 196.105469 277.984375 C 202.90625 277.953125 209.527344 279.757812 216.335938 279.792969 C 219.835938 279.828125 223.257812 279.34375 226.605469 278.328125 C 230.160156 277.246094 232.058594 274.753906 232.277344 271.019531 C 232.367188 269.453125 232.433594 267.878906 232.425781 266.308594 C 232.40625 263.382812 231.304688 260.9375 229.335938 258.75 C 226.71875 255.851562 223.386719 253.941406 220.199219 251.8125 C 219.054688 251.042969 217.65625 250.621094 216.933594 249.027344 C 218.25 247.597656 220.085938 247.167969 221.863281 246.546875 C 225.964844 245.117188 230.101562 243.765625 233.742188 241.25 C 235.933594 239.734375 237.703125 237.828125 239.054688 235.527344 C 241.332031 231.703125 239.679688 226.523438 235.773438 224.34375 Z M 216.308594 73.246094 C 213.558594 75.390625 210.648438 77.210938 206.992188 77.679688 C 202.796875 78.214844 199.144531 80.488281 195.292969 82.070312 C 192.550781 83.203125 189.894531 84.507812 187.324219 85.988281 C 183.945312 87.929688 180.0625 88.386719 176.585938 89.992188 C 165.871094 91.234375 156.050781 89.582031 148.378906 81.144531 C 147.003906 79.632812 145.851562 77.917969 144.449219 76.105469 C 146.351562 75.4375 147.253906 76.625 147.707031 77.511719 C 150.347656 82.679688 155.296875 84.289062 160.222656 85.957031 C 161.363281 86.34375 162.574219 86.527344 163.757812 86.777344 C 163.894531 86.804688 164.066406 86.652344 164.492188 86.460938 C 163.566406 84.664062 161.679688 84.75 160.238281 84.339844 C 158.519531 83.84375 157.0625 82.933594 155.539062 82.121094 C 154.011719 81.304688 152.109375 81.234375 151.160156 79.5 C 151.582031 78.578125 152.203125 79.023438 152.789062 79.214844 C 155.445312 80.035156 158.089844 80.929688 160.777344 81.648438 C 162.875 82.214844 162.898438 82.125 166.085938 81.375 C 162.914062 79.613281 159.082031 80.449219 155.402344 77.46875 C 159.832031 77.671875 163.050781 77.230469 166.378906 77.550781 C 171.226562 78.027344 176.128906 77.71875 180.839844 76.144531 C 184.007812 75.089844 186.976562 73.703125 189.453125 71.378906 C 190.953125 69.976562 192.546875 68.671875 194.019531 67.394531 C 193.609375 66.542969 193.148438 66.359375 192.675781 66.699219 C 191.964844 67.207031 191.304688 67.769531 190.691406 68.386719 C 186.59375 72.496094 181.53125 74.664062 175.910156 75.554688 C 173.367188 75.957031 170.824219 76.886719 168.023438 76.097656 C 169.191406 74.328125 170.761719 73.625 172.777344 73.476562 C 176.507812 73.222656 179.847656 71.671875 183.074219 69.925781 C 184.234375 69.296875 185.476562 68.574219 185.859375 66.984375 C 184.492188 66.558594 184.050781 67.757812 183.242188 68.1875 C 182.324219 68.683594 181.425781 69.21875 180.484375 69.65625 C 179.542969 70.097656 178.566406 70.484375 177.582031 70.835938 C 176.597656 71.183594 175.628906 71.660156 174.628906 70.847656 C 175.640625 66.582031 178.984375 64.804688 182.566406 63.441406 C 182.550781 61.796875 181.714844 62.09375 180.851562 62.378906 C 180.523438 62.457031 180.195312 62.515625 179.859375 62.546875 C 179.777344 62.253906 179.554688 61.910156 179.636719 61.675781 C 181.300781 56.925781 183.164062 52.242188 184.085938 47.058594 C 187.558594 47.265625 190.652344 47.621094 193.621094 48.414062 C 195.640625 48.953125 197.691406 49.257812 199.777344 49.339844 C 203.292969 49.488281 206.675781 50.226562 209.933594 51.550781 C 214.660156 53.480469 217.957031 57.070312 219.738281 61.851562 C 221.066406 65.417969 219.390625 70.847656 216.308594 73.246094 Z M 218.410156 34.566406 C 218.625 35.414062 218.789062 36.269531 218.898438 37.136719 C 219.320312 40.089844 219.949219 42.921875 221.753906 45.457031 C 223.105469 47.363281 223.179688 49.699219 222.882812 52.023438 C 222.648438 53.882812 221.75 55.273438 220.238281 56.355469 C 218.519531 55.539062 217.175781 54.308594 216.210938 52.667969 C 215.761719 51.386719 217.296875 51.136719 216.984375 49.90625 C 215.441406 49.058594 213.484375 52.050781 211.960938 49.589844 C 212.074219 47.578125 214.933594 47.472656 215.191406 45.449219 C 215.011719 45.304688 214.804688 45.078125 214.742188 45.109375 C 213.253906 45.945312 211.777344 46.8125 210.300781 47.671875 C 209.398438 46.953125 210.019531 46.359375 210.476562 45.957031 C 211.519531 45.039062 212.695312 44.265625 213.757812 43.371094 C 214.398438 42.835938 215.082031 42.265625 215.078125 41.152344 C 213.429688 40.265625 212.9375 42.699219 211.273438 42.40625 C 211.320312 37.828125 211.734375 33.089844 208.261719 28.476562 C 214.554688 28.476562 217.230469 30.296875 218.410156 34.566406 Z M 193.964844 14.808594 C 194.457031 14.480469 194.71875 14.210938 195.03125 14.113281 C 200.675781 12.324219 204.554688 15.144531 205.382812 21.023438 C 205.4375 21.1875 205.480469 21.359375 205.507812 21.53125 C 205.398438 26.152344 206.746094 30.421875 208.476562 34.636719 C 209.359375 36.785156 208.976562 39.125 208.40625 41.335938 C 207.851562 43.5 207.144531 45.628906 206.457031 47.921875 C 201.527344 46.578125 196.269531 48.03125 191.574219 45.296875 C 191.667969 44.707031 191.765625 44.089844 191.859375 43.472656 C 191.539062 43.429688 191.167969 43.257812 190.90625 43.359375 C 189.171875 44.074219 187.53125 45.238281 185.117188 44.238281 C 184.703125 41.855469 184.773438 39.839844 186.328125 38.121094 C 187.070312 37.304688 187.355469 36.335938 187.40625 35.261719 C 187.535156 32.609375 189.054688 30.714844 190.953125 29.109375 C 192.945312 27.425781 195.058594 25.878906 197.085938 24.234375 C 197.679688 23.757812 198.644531 23.441406 198.296875 22.246094 C 196.847656 21.710938 196.140625 22.996094 195.1875 23.566406 C 194.292969 24.101562 193.496094 24.792969 192.664062 25.425781 C 191.753906 26.121094 190.855469 26.824219 189.09375 28.1875 C 191.183594 23.074219 193.363281 19.109375 193.964844 14.808594 Z M 177.371094 10.84375 C 181.277344 9.28125 185.183594 9.226562 188.988281 11.25 C 190.71875 12.167969 191.503906 13.542969 191.367188 15.511719 C 191.164062 18.171875 190.394531 20.652344 189.054688 22.953125 C 187.265625 26.160156 185.742188 29.488281 184.488281 32.9375 C 183.011719 36.902344 182.53125 41.082031 181.855469 45.195312 C 180.558594 53.058594 177.957031 60.324219 173.667969 67.070312 C 170.503906 72.050781 166.140625 74.738281 160.414062 75.160156 C 156.230469 75.46875 152.074219 74.78125 147.96875 73.96875 C 147.332031 73.84375 146.777344 73.3125 145.5625 72.609375 C 151.210938 72.699219 156.414062 73.820312 160.574219 69.679688 C 158.082031 70.140625 155.609375 70.78125 153.097656 71.003906 C 150.503906 71.242188 147.867188 71.058594 145.011719 71.058594 C 146.070312 69.601562 147.40625 69.34375 148.816406 69.191406 C 157.292969 68.296875 163.382812 63.949219 167.234375 56.367188 C 167.867188 55.128906 168.601562 53.929688 169.175781 52.664062 C 169.441406 52.070312 169.71875 51.34375 169.105469 50.730469 C 168.527344 50.414062 168.15625 50.714844 167.886719 51.167969 C 167.644531 51.632812 167.429688 52.109375 167.242188 52.597656 C 163.867188 60.75 158.050781 65.964844 149.167969 67.707031 C 148.285156 66.210938 150.917969 65.652344 150.066406 64.175781 C 147.617188 64.316406 147.617188 67.1875 145.9375 68.117188 C 144.800781 67.402344 145.265625 66.5625 145.625 65.832031 C 147.703125 61.59375 150.246094 57.628906 152.878906 53.71875 C 153.355469 53.003906 153.964844 52.339844 154.382812 51.574219 C 154.601562 51.171875 154.542969 50.621094 154.621094 50.085938 C 153.378906 49.582031 153.046875 50.59375 152.621094 51.171875 C 149.726562 55.117188 147.289062 59.351562 144.898438 63.617188 C 144.425781 64.453125 144.242188 65.566406 143.171875 65.972656 C 142.960938 66.925781 142.824219 67.925781 142.484375 68.832031 C 142.066406 69.957031 141.699219 69.976562 139.519531 69.34375 C 139.378906 69.042969 139.082031 68.722656 139.113281 68.4375 C 139.539062 64.277344 139.867188 60.097656 140.507812 55.972656 C 141.070312 52.355469 142.042969 48.820312 144.175781 45.722656 C 145.082031 44.425781 145.652344 42.996094 145.882812 41.433594 C 141.601562 44.257812 138.363281 51.339844 137.464844 63.835938 C 136.347656 63.050781 136.148438 61.800781 136.109375 60.675781 C 135.921875 55.445312 135.566406 50.1875 136.648438 45.007812 C 137.328125 41.753906 138.488281 38.773438 140.675781 36.0625 C 145.636719 29.835938 151.621094 24.847656 158.632812 21.089844 C 159.847656 20.417969 161.019531 19.675781 162.152344 18.867188 C 166.898438 15.566406 172.011719 12.960938 177.371094 10.84375 Z M 135.242188 39.988281 C 134.84375 40.253906 134.4375 39.957031 134.003906 39.691406 C 133.644531 39.511719 133.269531 39.351562 132.886719 39.214844 C 132.703125 43.359375 135.027344 47.375 133.238281 51.421875 C 130.929688 48.898438 130.929688 48.898438 128.898438 40.140625 C 128 39.9375 127.617188 40.441406 127.644531 41.222656 C 127.722656 43.679688 128.171875 46.070312 128.996094 48.386719 C 129.816406 50.707031 130.96875 52.847656 132.457031 54.804688 C 133.851562 56.664062 134.144531 58.402344 133.285156 60.804688 C 127.691406 56.492188 124.65625 51.03125 123.515625 44.46875 C 123.375 43.421875 123.441406 42.386719 123.722656 41.367188 C 124.476562 38.316406 125.253906 35.269531 126.207031 32.289062 C 127.964844 26.820312 129.867188 21.410156 130.9375 15.730469 C 131.546875 12.441406 132.644531 9.324219 134.230469 6.382812 C 134.960938 5.039062 135.980469 4.21875 137.558594 4.324219 C 139.460938 4.453125 141.363281 4.5625 143.265625 4.800781 C 146.578125 5.1875 149.847656 5.40625 153.050781 4.109375 C 154.164062 3.660156 155.324219 3.289062 156.605469 3.394531 C 159.417969 3.652344 161.53125 4.871094 162.941406 7.390625 C 164.085938 9.429688 164.636719 11.566406 164.609375 14.238281 C 161.8125 16.445312 158.792969 18.28125 155.550781 19.746094 C 153.074219 16.6875 154.363281 12.671875 152.257812 9.707031 C 151.046875 10.199219 151.398438 11.136719 151.542969 11.800781 C 152.097656 14.535156 152.789062 17.242188 153.347656 19.972656 C 153.550781 20.957031 152.972656 21.527344 152.109375 21.738281 C 150.558594 20.660156 151.082031 18.691406 149.78125 17.347656 C 148.589844 19.296875 149.890625 21.019531 149.953125 22.746094 C 149.953125 23.007812 149.875 23.246094 149.722656 23.457031 C 149.566406 23.667969 149.363281 23.8125 149.113281 23.890625 C 148.863281 23.96875 148.617188 23.964844 148.367188 23.875 C 148.121094 23.789062 147.925781 23.636719 147.777344 23.421875 C 147.585938 23.136719 147.503906 22.777344 147.316406 22.492188 C 147.003906 22.101562 146.671875 21.730469 146.316406 21.378906 C 146.175781 24.339844 147.25 27.578125 143.410156 28.589844 C 142.398438 28.5 142.195312 27.617188 141.867188 26.808594 C 141.496094 25.894531 141.390625 24.789062 140.363281 24.222656 C 138.8125 26.5625 141.664062 28.566406 140.648438 30.929688 C 138.816406 29.378906 138.550781 27.277344 138.191406 25.265625 C 137.914062 23.726562 137.855469 22.144531 137.691406 20.578125 C 137.566406 19.367188 137.453125 18.148438 136.394531 17.304688 C 135.421875 20.902344 136.183594 25.46875 139.089844 33.214844 Z M 59.523438 59.699219 C 59.652344 57.441406 59.984375 55.195312 60.277344 52.953125 C 60.585938 50.613281 61.71875 49.554688 64.082031 49.515625 C 65.097656 49.496094 66.210938 49.601562 67.128906 49.992188 C 72.25 52.191406 77.074219 54.914062 81.351562 58.546875 C 83.339844 60.238281 85.296875 61.996094 87.425781 63.496094 C 90.082031 65.359375 92.109375 67.695312 93.324219 70.65625 C 94.3125 73.0625 95.839844 75.183594 96.5 77.789062 C 97.117188 80.230469 97.175781 82.554688 97.039062 86 C 94.988281 83.519531 93.707031 81.890625 92.339844 80.332031 C 91.058594 78.863281 89.960938 77.363281 89.773438 75.3125 C 89.621094 73.871094 89.058594 72.617188 88.078125 71.550781 C 87.941406 71.398438 87.449219 71.476562 87.160156 71.566406 C 86.800781 71.675781 86.808594 71.996094 86.976562 72.414062 C 87.136719 72.902344 87.269531 73.394531 87.367188 73.898438 C 84.429688 72.773438 83.34375 71.90625 82.136719 69.597656 C 81 67.433594 79.929688 65.238281 78.804688 63.066406 C 77.570312 60.699219 75.859375 58.753906 73.671875 57.230469 C 73.261719 56.9375 72.816406 56.605469 72.039062 57.304688 C 72 58.535156 73.449219 58.84375 74.101562 59.6875 C 74.753906 60.53125 75.503906 61.246094 76.128906 62.070312 C 76.84375 63.023438 77.75 63.878906 77.742188 65.457031 C 74.289062 64.542969 72.605469 61.664062 70.351562 59.046875 C 69.105469 61.980469 66.585938 60.074219 65.046875 60.824219 C 62.53125 62.234375 62.933594 65.378906 60.839844 66.902344 C 59.550781 64.574219 59.378906 62.136719 59.523438 59.699219 Z M 49.425781 97.523438 C 49.359375 97.640625 49.09375 97.886719 49.128906 98.074219 C 49.511719 100.128906 49.933594 102.175781 50.363281 104.21875 C 50.648438 105.59375 50.882812 106.957031 50.476562 108.390625 C 47.820312 106.117188 47.523438 104.726562 47.4375 94.21875 C 46.25 93.980469 46 94.867188 45.933594 95.648438 C 45.730469 98.085938 45.652344 100.53125 46.269531 102.941406 C 46.5625 104.085938 46.832031 105.25 46.394531 106.660156 C 43.007812 102.585938 42.058594 98.039062 43.15625 93.261719 C 44.472656 87.5625 44.695312 81.875 44.132812 76.117188 C 43.855469 73.292969 44.191406 70.582031 44.804688 67.824219 C 45.824219 63.261719 48.5 60 52.316406 57.574219 C 53.90625 56.570312 55.457031 55.371094 58.050781 55.253906 C 56.574219 60.542969 57.601562 65.101562 59.527344 69.480469 C 60.277344 71.195312 60.605469 72.761719 59.933594 74.503906 C 59.0625 76.769531 59.425781 79.398438 57.90625 81.480469 C 56.734375 81.15625 57.273438 79.460938 56.03125 79.1875 C 55.359375 79.234375 55.28125 79.78125 55.40625 80.234375 C 55.8125 81.746094 56.355469 83.21875 56.742188 84.734375 C 56.917969 85.449219 56.542969 86.082031 55.886719 86.484375 C 53.511719 83.460938 53.246094 83.207031 53.035156 80.285156 C 52.785156 76.949219 51.71875 73.800781 51.078125 70.554688 C 51.023438 70.300781 50.621094 70.117188 50.378906 69.898438 C 49.773438 70.648438 49.753906 71.546875 49.960938 72.390625 C 51.25 77.617188 51.316406 83.140625 53.707031 88.105469 C 54.363281 89.46875 54.242188 90.789062 53.449219 92.097656 C 52.355469 93.898438 51.800781 95.910156 51.363281 98.363281 Z M 88.527344 98.667969 C 88.027344 96.523438 87.699219 94.304688 86.132812 92.253906 C 84.921875 94.113281 85.695312 95.550781 86.132812 96.96875 C 87.796875 102.355469 88.457031 107.871094 88.496094 113.5 C 88.515625 115.8125 87.9375 118 87.457031 120.203125 C 87.253906 121.15625 86.554688 121.976562 85.75 123.476562 C 84.859375 117.726562 86.242188 112.574219 84.484375 107.710938 C 84.414062 107.519531 83.917969 107.484375 83.402344 107.296875 C 82.816406 112.542969 84.246094 117.785156 83.277344 122.914062 C 82.058594 123.257812 81.652344 122.484375 81.175781 121.765625 C 79.621094 119.382812 78.9375 116.667969 78.101562 114.003906 C 77.507812 112.097656 77.207031 110.035156 75.148438 108.15625 C 75.5 112.542969 77.378906 115.976562 78.167969 119.835938 C 75.480469 118.75 75.15625 118.367188 73.804688 115.976562 C 72.964844 114.5 72.925781 112.546875 70.984375 111.371094 C 70.9375 114.683594 72.117188 117.28125 74.160156 119.523438 C 75.097656 120.550781 76.207031 121.429688 77.226562 122.382812 C 77.96875 123.078125 78.941406 123.605469 79.0625 125.09375 C 74.035156 125.398438 71.722656 121.363281 68.527344 118.144531 C 69.003906 121.570312 69.410156 122.117188 75 126.882812 C 74.964844 126.921875 74.933594 126.960938 74.898438 127.007812 L 75.160156 127.007812 L 75.019531 126.84375 C 76.179688 126.871094 77.429688 126.570312 78.300781 127.703125 C 78.101562 128.015625 77.96875 128.480469 77.730469 128.539062 C 76.726562 128.796875 75.632812 128.777344 74.683594 129.136719 C 70.1875 130.851562 66.269531 129.058594 62.972656 126.515625 C 56.910156 121.871094 53.460938 115.554688 52.953125 107.753906 C 52.570312 101.675781 53.441406 95.980469 56.703125 90.660156 C 59.84375 85.542969 61.105469 79.699219 62.410156 73.898438 C 62.871094 71.863281 63.125 69.785156 63.554688 67.742188 C 63.953125 65.835938 64.703125 64.09375 66.367188 62.761719 C 69.265625 62.761719 71.878906 63.902344 73.976562 65.699219 C 80.308594 71.136719 86.625 76.5625 91.898438 83.089844 C 93.449219 85.011719 94.816406 86.9375 95.453125 89.402344 C 96.019531 91.589844 97.039062 93.648438 97.71875 95.8125 C 99.976562 103.003906 98.980469 108.886719 94.308594 115.777344 C 93.519531 114.210938 94.121094 112.71875 94.058594 111.304688 C 93.988281 109.734375 94.136719 108.152344 94.058594 106.585938 C 93.976562 105.203125 93.882812 103.761719 93.445312 102.46875 C 92.972656 101.039062 93.445312 99.300781 92.214844 98.125 C 91.476562 98.171875 91.335938 98.5625 91.421875 99.144531 C 91.699219 101.050781 91.839844 102.984375 92.269531 104.847656 C 93.246094 109.085938 92.109375 113.191406 91.589844 117.3125 C 91.488281 118.113281 90.875 118.84375 90.242188 120.097656 C 89.472656 118.582031 89.695312 117.453125 89.765625 116.386719 C 90.167969 110.421875 89.878906 104.503906 88.527344 98.667969 Z M 7.984375 167.253906 C 9.410156 166.277344 10.820312 167.097656 12.136719 166.816406 C 12.464844 167.128906 12.789062 167.53125 13.125 167.546875 C 15.535156 167.625 16.277344 169.152344 16.769531 171.1875 C 17.363281 173.640625 18.195312 176.039062 19.035156 178.847656 L 6.90625 174.542969 C 6.835938 171.980469 6.441406 169.433594 7.984375 167.253906 Z M 3.617188 210.152344 C 3.59375 208.074219 3.144531 206.003906 3.085938 203.925781 C 2.992188 200.730469 3.753906 199.875 6.824219 199.425781 C 9.9375 198.953125 13.054688 198.925781 16.175781 199.347656 C 20.839844 199.988281 25.355469 201.179688 29.730469 202.921875 C 30.390625 203.1875 30.976562 203.636719 30.921875 204.441406 C 30.824219 205.605469 29.761719 205.339844 29.058594 205.609375 C 29.1875 205.902344 29.277344 206.324219 29.480469 206.394531 C 33.03125 207.585938 35.054688 210.304688 36.824219 213.386719 C 38.433594 216.195312 40.617188 218.675781 42.070312 222.136719 C 39.535156 222.082031 37.648438 221.144531 35.667969 220.726562 C 33.613281 220.261719 31.539062 220.15625 29.449219 220.414062 C 30.019531 221.589844 30.9375 221.445312 31.710938 221.527344 C 34.835938 221.859375 37.8125 222.789062 40.8125 223.65625 C 43.277344 224.371094 45.121094 225.753906 46.144531 228.234375 L 43.75 228.710938 C 43.492188 227.828125 42.671875 227.59375 41.921875 227.347656 C 37.300781 225.820312 32.648438 224.488281 27.699219 224.570312 C 23.011719 224.636719 18.324219 224.609375 13.640625 224.609375 C 11.921875 224.609375 10.214844 224.6875 8.394531 225.308594 C 5.433594 220.664062 3.679688 215.703125 3.617188 210.148438 Z M 29.574219 253.933594 C 28.476562 253.046875 27.855469 252.472656 28.058594 251.46875 C 30.746094 250.488281 30.746094 250.5 34.714844 251.152344 C 33.003906 252.414062 30.933594 252.425781 29.574219 253.933594 Z M 64.886719 267.144531 C 64.585938 267.292969 64.253906 267.605469 63.992188 267.558594 C 57.667969 266.320312 51.710938 263.867188 45.578125 261.988281 C 44.246094 261.578125 42.960938 260.890625 41.59375 260.765625 C 37.34375 260.375 34.28125 257.90625 31.265625 255.320312 C 31.527344 254.46875 32.140625 254.175781 32.84375 254.054688 C 42.117188 252.4375 51.207031 253.027344 60.023438 256.535156 C 61.316406 257.046875 61.316406 257.058594 62.210938 259.292969 C 59.972656 259.878906 58.265625 258.1875 56.265625 258.023438 C 54.023438 257.839844 51.800781 257.386719 49.578125 257.03125 C 47.433594 256.660156 45.371094 256.914062 43.378906 257.789062 C 46.640625 258.179688 49.898438 258.671875 53.175781 258.933594 C 56.542969 259.203125 59.570312 260.476562 62.613281 261.757812 C 62.109375 262.835938 60.53125 261.890625 60.097656 263.140625 C 61.035156 264.828125 63.136719 263.578125 64.296875 264.835938 C 64.679688 265.507812 65.113281 266.238281 64.886719 267.140625 Z M 66.507812 261.410156 C 66.917969 260.144531 67.460938 258.855469 67.730469 257.515625 C 68.003906 256.175781 68.960938 254.988281 68.542969 253.464844 C 66.1875 254.109375 67.136719 256.902344 65.171875 257.96875 C 64.289062 256.953125 64.285156 255.859375 64.882812 254.765625 C 65.511719 253.617188 65.832031 252.605469 64.941406 251.394531 C 64.121094 250.289062 64.703125 249.0625 64.984375 247.871094 C 66.0625 243.445312 67.683594 239.210938 69.417969 235.015625 C 69.742188 234.230469 70.203125 233.460938 69.863281 232.570312 C 69.261719 232.09375 68.957031 232.488281 68.734375 232.957031 C 66.636719 237.375 64.582031 241.8125 63.457031 246.609375 C 63.175781 247.789062 62.695312 248.917969 62.320312 250.023438 C 60.910156 249.992188 61.042969 248.398438 59.628906 248.136719 C 58.855469 248.191406 58.792969 250.015625 57.199219 249.703125 C 56.101562 249.488281 55.007812 248.375 53.761719 249.289062 C 53.914062 250.0625 54.472656 250.402344 55.136719 250.601562 C 56.132812 250.898438 57.171875 251.097656 58.125 251.5 C 59.3125 252 59.820312 253.003906 59.949219 254.183594 C 58.398438 254.984375 57.375 253.960938 56.238281 253.730469 C 54.539062 253.390625 52.871094 252.863281 51.207031 252.367188 C 47.363281 251.222656 43.28125 252.214844 39.394531 250.699219 C 35.636719 249.234375 31.496094 249.472656 27.484375 249.519531 C 25.484375 249.542969 24.175781 248.804688 23.554688 246.871094 C 26.5625 245.765625 26.574219 245.707031 28.90625 246.089844 C 30.625 246.371094 32.3125 246.667969 34.480469 246.300781 C 29.867188 244.234375 25.382812 244.648438 20.707031 244.632812 C 16.664062 239.089844 11.488281 234.289062 9.082031 227.160156 C 12.683594 226.105469 16.132812 225.917969 19.515625 225.910156 C 26.488281 225.886719 33.46875 226.066406 40.179688 228.433594 C 41.25 228.8125 42.472656 228.773438 43.632812 228.910156 C 44.105469 230.179688 45.460938 230.289062 46.457031 230.730469 C 48.507812 231.628906 49.8125 233.113281 50.792969 235.050781 C 52.515625 238.480469 54.375 241.84375 56.113281 245.265625 C 56.484375 245.980469 56.953125 246.296875 57.851562 246.289062 C 58.78125 244.085938 57.589844 242.269531 56.625 240.472656 C 55.96875 239.25 55.039062 238.175781 54.289062 236.996094 C 53.554688 235.886719 53.078125 234.675781 52.851562 233.363281 C 52.625 232.050781 52.671875 230.75 52.988281 229.457031 C 54.078125 224.691406 55.367188 219.976562 57.269531 215.449219 C 58.007812 213.695312 58.550781 211.855469 59.160156 210.042969 C 59.195312 209.933594 59.015625 209.746094 58.789062 209.3125 C 54.617188 215.320312 53.03125 222.203125 51.085938 228.886719 C 50.488281 228.742188 50.046875 228.765625 49.925781 228.582031 C 47.457031 224.769531 45.027344 220.9375 42.582031 217.117188 C 41.660156 215.6875 41.820312 214.179688 42.039062 212.574219 C 43.25 203.859375 45.542969 195.488281 49.46875 187.589844 C 49.839844 186.839844 50.3125 186.035156 49.707031 185.121094 C 48.515625 184.769531 48.277344 185.800781 47.960938 186.460938 C 44.742188 192.910156 42.5625 199.695312 41.421875 206.816406 C 41.128906 208.699219 40.882812 210.59375 39.996094 212.34375 C 37.285156 210.511719 38.371094 207.675781 38.144531 205.085938 L 35.929688 206.441406 C 32.6875 201.96875 30.253906 197.042969 27.964844 192.246094 L 29.539062 184.15625 C 27.363281 185.085938 28.230469 187.617188 26.496094 188.488281 C 24.527344 188.21875 25.042969 185.421875 23.136719 185.042969 C 22.136719 185.617188 22.351562 186.535156 22.660156 187.289062 C 23.195312 188.570312 23.941406 189.761719 24.539062 191.023438 C 25.359375 192.746094 26.117188 194.5 26.902344 196.242188 C 27.777344 197.265625 28.371094 198.429688 28.683594 199.742188 C 28.101562 200.863281 27.207031 200.367188 26.441406 200.179688 C 23.402344 199.445312 20.390625 198.589844 17.34375 197.917969 C 13.570312 197.082031 9.769531 196.9375 5.96875 197.867188 C 5.492188 197.984375 4.96875 197.882812 4.601562 197.882812 C 3.507812 196.929688 3.796875 195.882812 3.910156 194.878906 C 4.65625 193.785156 5.757812 194.128906 6.761719 194.128906 C 7.621094 194.128906 8.503906 194.296875 9.417969 193.628906 C 7.792969 192.574219 5.484375 193.421875 4.007812 191.246094 C 4.910156 186.71875 4.480469 181.632812 6.597656 176.738281 C 12.191406 177.140625 17.296875 178.6875 21.203125 183.132812 C 22.730469 181.839844 21.714844 180.128906 22.082031 178.699219 C 22.511719 177.011719 23.109375 175.363281 23.636719 173.710938 C 24.113281 172.21875 24.675781 170.75 25.03125 169.230469 C 25.363281 167.800781 27.066406 166.816406 26.519531 164.773438 C 24.429688 165.820312 23.820312 167.632812 23.082031 169.324219 C 22.324219 171.039062 22.367188 173.082031 20.941406 174.730469 C 19.554688 172.585938 18.921875 170.296875 18.34375 167.914062 C 17.785156 165.589844 19.609375 163.609375 19.117188 161.199219 L 16.652344 162.25 C 15.605469 160.710938 15.703125 158.890625 15.246094 157.226562 C 15.054688 156.558594 14.765625 155.941406 14.371094 155.375 C 14.226562 155.144531 14.023438 154.996094 13.761719 154.925781 C 13.5 154.859375 13.246094 154.886719 13.007812 155.011719 C 12.734375 155.160156 12.386719 155.503906 12.386719 155.757812 C 12.359375 156.621094 12.445312 157.472656 12.644531 158.3125 C 13.394531 160.972656 14.238281 163.601562 15.023438 166.164062 C 14.070312 167.207031 13.019531 166.578125 12.074219 166.660156 C 11.261719 165.230469 9.457031 165.402344 8.042969 164.277344 C 8.386719 159.8125 9.6875 155.34375 10.515625 150.996094 C 11.941406 150.121094 12.878906 150.941406 13.589844 151.511719 C 19.152344 155.984375 24.78125 160.398438 29.484375 165.8125 C 33.867188 170.84375 38.898438 175.101562 44.582031 178.589844 C 48.597656 181.078125 52.144531 184.171875 55.917969 186.964844 C 57.0625 187.777344 58.039062 188.761719 58.851562 189.910156 C 61.863281 194.40625 64.425781 199.144531 66.546875 204.121094 C 66.738281 204.574219 66.652344 205.140625 66.691406 205.65625 C 67.941406 206.664062 68.378906 208.109375 68.867188 209.578125 C 70.175781 213.574219 71.042969 217.667969 71.46875 221.855469 C 71.929688 226.203125 72.914062 230.445312 73.546875 234.75 C 74.804688 243.332031 74.542969 251.835938 71.65625 260.113281 C 71.03125 261.894531 70.136719 263.582031 69.367188 265.328125 C 67.300781 264.601562 67.296875 262.804688 66.515625 261.402344 Z M 177.140625 340.027344 C 177.671875 340.957031 177.050781 341.738281 176.621094 342.394531 C 174.164062 346.183594 171.5 349.804688 167.824219 352.539062 C 167.148438 353.039062 166.632812 353.746094 166.035156 354.355469 C 165.082031 355.339844 165.082031 355.34375 162.324219 355.042969 C 162.25 354.238281 162.800781 353.800781 163.328125 353.355469 C 167.609375 349.75 171.3125 345.679688 173.734375 340.535156 C 174.382812 339.140625 174.871094 339.148438 177.140625 340.023438 Z M 151.15625 332.160156 C 153.980469 332.992188 156.863281 333.5625 159.5625 334.917969 C 161.226562 335.761719 163.210938 336.03125 165.066406 336.476562 C 167.421875 337.039062 169.738281 337.667969 171.984375 339.097656 C 170.382812 344.238281 166.949219 347.839844 163.199219 351.203125 C 162.421875 351.898438 161.453125 352.394531 160.75 353.152344 C 160.042969 353.90625 159.601562 354.820312 158.9375 355.824219 C 158.101562 355.824219 157.234375 355.867188 156.378906 355.804688 C 155.902344 355.773438 155.453125 355.566406 154.769531 355.367188 C 156.855469 352.269531 160.664062 350.800781 161.902344 347.117188 C 160.714844 346.332031 160.199219 347.355469 159.792969 347.875 C 157.855469 350.347656 155.59375 352.46875 153.003906 354.242188 L 152.722656 356.496094 L 133.265625 358.507812 C 133.246094 356.734375 134.511719 355.902344 135.167969 354.835938 C 135.878906 353.644531 136.855469 352.621094 137.699219 351.5 C 138.4375 350.527344 139.183594 349.558594 139.871094 348.546875 C 140.644531 347.410156 141.535156 346.320312 141.722656 344.886719 C 141.082031 344.027344 140.535156 344.46875 140.105469 345.042969 C 138.054688 347.859375 136.136719 350.78125 133.980469 353.511719 C 132.480469 355.421875 130.707031 357.121094 128.96875 358.824219 C 128.40625 359.371094 127.609375 359.855469 126.570312 359.503906 C 133.320312 351.246094 139.035156 342.613281 142.859375 332.222656 C 145.679688 331.488281 148.417969 331.355469 151.15625 332.160156 Z M 84.625 378.839844 C 84.859375 377.996094 85.199219 377.195312 85.644531 376.441406 C 88.261719 372.136719 90.496094 367.625 92.898438 363.207031 C 94.507812 360.304688 96.414062 357.613281 98.617188 355.136719 C 102.492188 350.726562 106.277344 346.132812 112.414062 343.238281 C 111.769531 351.15625 108.253906 357.15625 104.773438 363.140625 C 102.820312 366.503906 100.96875 370.003906 96.984375 372.753906 C 98.058594 368.507812 100.976562 365.582031 100.867188 361.191406 C 100.097656 361.90625 99.546875 362.175781 99.414062 362.582031 C 98.519531 365.242188 96.964844 367.585938 95.878906 370.125 C 93.929688 374.679688 90.699219 377.800781 86.398438 380 C 85.648438 380.382812 84.972656 380.882812 84.222656 381.34375 C 83.542969 380.28125 84.402344 379.609375 84.625 378.839844 Z M 84.339844 384.320312 C 85.191406 383.867188 86.003906 384.203125 86.839844 384.476562 C 88.265625 384.9375 89.363281 386.441406 91.191406 385.945312 C 90.65625 384.277344 88.445312 384.433594 88.007812 382.707031 C 89.285156 381.890625 90.203125 383.050781 91.214844 383.386719 C 92.800781 383.910156 94.027344 385.449219 95.933594 385.101562 C 95.8125 384.148438 95.015625 383.75 94.34375 383.261719 C 93.238281 382.457031 91.753906 382.210938 90.957031 380.953125 C 93.359375 378.203125 94.210938 377.644531 99.867188 375.144531 C 101.574219 375.3125 103.152344 375.953125 104.722656 376.761719 C 111.902344 380.457031 118.101562 385.484375 123.949219 390.960938 C 127.753906 394.535156 131.335938 398.347656 135.046875 402.046875 C 135.609375 402.601562 136.199219 403.476562 137.210938 402.652344 C 131.46875 394.203125 118.105469 382.761719 103.859375 374.097656 C 104.125 372.445312 105.265625 372.261719 106.527344 372.699219 C 108.972656 373.554688 110.972656 375.464844 113.644531 375.824219 C 114.601562 377.011719 115.707031 378.035156 116.96875 378.890625 C 118.230469 379.746094 119.589844 380.398438 121.042969 380.847656 C 121.019531 380.554688 121.042969 380.203125 120.878906 380.066406 C 118.757812 378.25 116.742188 376.253906 113.917969 375.539062 C 112.835938 373.59375 110.386719 373.394531 109.082031 371.726562 C 111.28125 369.230469 111.28125 369.230469 116.003906 370.996094 C 116.265625 370.019531 114.984375 369.75 115.042969 368.785156 L 116.480469 366.847656 C 116.261719 366.570312 116.085938 366.132812 115.894531 366.132812 C 112.464844 366.019531 109.566406 367.835938 106.433594 368.820312 C 105.308594 369.171875 104.441406 370.21875 102.808594 370.03125 C 105.390625 365.46875 107.949219 361.050781 110.417969 356.574219 C 112.96875 351.929688 113.929688 346.75 114.90625 341.878906 C 117.101562 340.019531 119.535156 339.515625 121.773438 338.597656 C 125.960938 336.882812 130.15625 335.167969 134.375 333.539062 C 136.9375 332.550781 136.964844 332.625 139.882812 333.359375 C 139.867188 336.085938 138.65625 338.453125 137.292969 340.652344 C 134.539062 345.105469 131.585938 349.433594 128.691406 353.800781 C 126.734375 356.765625 124.109375 359.046875 121.128906 360.902344 C 119.082031 362.183594 119.0625 362.15625 118.015625 364.988281 C 122.058594 365.652344 125.445312 363.660156 129.265625 362.554688 C 132.546875 363.269531 135.683594 365.121094 139.304688 365.652344 L 134.234375 362.675781 C 134.441406 361.507812 135.167969 361.3125 135.847656 361.441406 C 138.417969 361.96875 140.902344 362.765625 143.296875 363.839844 C 152.394531 367.738281 160.214844 373.539062 167.496094 380.128906 C 169.433594 381.882812 171.203125 383.820312 173.070312 385.652344 C 173.648438 386.222656 174.070312 387.082031 175.128906 386.863281 C 174.683594 384.621094 174.269531 383.917969 171.367188 381.226562 C 169.582031 379.558594 167.703125 377.992188 165.832031 376.429688 C 163.957031 374.863281 162.070312 373.300781 160.121094 371.828125 C 158.316406 370.460938 156.464844 369.136719 154.546875 367.9375 C 152.476562 366.644531 150.308594 365.511719 148.171875 364.328125 C 146.105469 363.183594 143.734375 362.558594 141.398438 360.515625 C 146.777344 359.5625 151.566406 358.886719 156.339844 358.628906 C 160.179688 358.425781 163.949219 357.777344 167.777344 357.554688 C 170.558594 357.390625 173.351562 357.222656 176.113281 356.867188 C 178.152344 356.605469 179.890625 357.179688 181.582031 358.160156 C 183.871094 359.476562 185.828125 361.207031 187.714844 363.03125 C 189.832031 365.078125 191.972656 367.101562 194.023438 369.058594 C 195.367188 368.398438 194.71875 367.773438 194.308594 367.390625 C 190.78125 364.035156 187.210938 360.71875 183.390625 357.144531 C 187.144531 355.539062 190.421875 355.378906 193.671875 357.941406 C 195.546875 359.417969 197.367188 360.945312 199.070312 362.910156 C 199.257812 362.195312 199.507812 361.71875 199.394531 361.59375 C 197.644531 359.710938 195.847656 357.871094 193.808594 355.75 C 197.929688 353.578125 202.90625 354.4375 207.046875 351.300781 C 203.984375 349.894531 201.492188 352.253906 199.089844 351.085938 C 199.351562 349.199219 201.34375 348.003906 201.191406 345.976562 C 200.648438 345.4375 200.242188 345.664062 199.917969 346.136719 C 199.320312 346.996094 198.796875 347.90625 198.164062 348.742188 C 196.296875 351.222656 194.070312 352.730469 190.699219 352.792969 C 186.179688 352.894531 181.683594 353.613281 177.175781 354.042969 C 176.503906 354.105469 175.777344 354.253906 175.179688 353.613281 C 175.398438 351.707031 178.195312 351.257812 177.859375 348.609375 C 174.585938 350.167969 173.21875 354.492188 168.585938 354.507812 C 172.789062 349.902344 176.910156 345.90625 179.34375 340.59375 C 187.550781 341.09375 195.539062 342.65625 203.46875 344.539062 C 208.007812 345.617188 210.855469 347.402344 213.820312 350.699219 C 212.953125 353.695312 210.753906 355.824219 208.511719 358.011719 C 207.371094 359.128906 206.132812 357.144531 205.265625 358.414062 L 205.953125 359.710938 C 205.546875 361.417969 186.253906 380.445312 181.46875 383.90625 C 169.769531 371.410156 169.769531 371.410156 163.820312 367.71875 C 162.984375 368.160156 163.035156 368.796875 163.6875 369.253906 C 166.828125 371.445312 170.085938 373.46875 172.585938 376.472656 C 175.03125 379.414062 177.554688 382.292969 180.195312 385.375 C 178.414062 388.328125 175.832031 389.925781 173.257812 391.539062 C 170.488281 390.007812 168.855469 387.699219 166.972656 385.664062 C 160.996094 379.207031 154.132812 373.898438 146.523438 369.515625 C 145.917969 369.167969 145.207031 369.039062 144.46875 369.832031 C 147.417969 372.53125 151.304688 373.839844 154.25 376.546875 C 157.070312 379.136719 160.347656 381.242188 163.105469 383.886719 C 165.984375 386.644531 168.175781 390.085938 171.128906 392.640625 C 171.101562 393.851562 170.292969 394.257812 169.550781 394.628906 C 167.378906 395.71875 165.179688 396.75 163.332031 397.640625 C 161.191406 397.460938 161.234375 394.996094 159.125 394.882812 L 160.496094 398.066406 C 160.121094 398.832031 159.464844 399.039062 158.757812 399.1875 C 158.457031 399.089844 158.027344 399.09375 157.84375 398.878906 C 153.347656 393.746094 148.597656 388.894531 143.222656 384.65625 C 140.609375 382.613281 137.867188 380.757812 134.996094 379.09375 C 134.460938 378.78125 133.839844 378.167969 132.960938 379.070312 C 136.882812 382.480469 141.628906 384.734375 145.414062 388.300781 C 149.101562 391.773438 152.710938 395.28125 155.640625 399.316406 C 155.367188 400.480469 154.507812 400.722656 153.679688 400.984375 C 150.351562 402.023438 147.039062 403.039062 143.566406 403.558594 C 139.089844 404.230469 134.671875 405.332031 130.1875 405.921875 C 124.121094 406.71875 118 406.242188 111.90625 406.1875 C 110.550781 406.171875 109.140625 405.746094 107.863281 405.234375 C 100.136719 402.171875 93.292969 397.867188 88.066406 391.21875 C 86.5625 389.3125 84.734375 387.664062 83.136719 385.976562 C 83.175781 385.042969 83.742188 384.652344 84.351562 384.332031 Z M 223.320312 182.046875 C 224.988281 185.125 226.25 188.363281 226.792969 191.871094 C 227.382812 195.683594 228.550781 199.382812 230.476562 202.722656 C 234.28125 209.328125 233.511719 215.355469 228.753906 221.023438 C 223.789062 221.476562 222.96875 221.371094 220.792969 219.960938 C 222.570312 218.050781 224.761719 216.46875 225.707031 213.921875 C 225.890625 213.421875 226.003906 212.921875 225.601562 212.433594 C 224.703125 212.078125 224.445312 212.863281 224.171875 213.386719 C 223.046875 215.632812 221.394531 217.417969 219.417969 218.882812 C 217.4375 220.351562 215.210938 221.125 212.632812 220.3125 C 213.75 218.527344 213.78125 218.445312 213.921875 216.5625 C 212.398438 217.222656 211.425781 218.46875 210.550781 219.660156 C 209.359375 221.265625 208.050781 221.253906 206.230469 220.542969 C 206.523438 218.597656 208.414062 217.972656 209.398438 216.664062 C 210.550781 215.128906 211.730469 213.613281 212.820312 212.039062 C 213.8125 210.605469 214.761719 209.132812 215.617188 207.617188 C 216.4375 206.15625 217.503906 204.738281 217.449219 202.910156 C 216.007812 202.628906 215.765625 203.625 215.480469 204.300781 C 214.25 207.222656 212.5 209.8125 210.691406 212.402344 C 209.382812 214.277344 208.074219 216.125 206.207031 217.460938 C 205.203125 218.183594 204.40625 219.089844 203.8125 220.179688 C 203.101562 221.421875 202.089844 220.894531 201.253906 220.722656 C 200.734375 219.726562 201.113281 219.109375 201.644531 218.667969 C 203.257812 217.308594 204.605469 215.722656 205.6875 213.902344 C 205.957031 213.457031 206.0625 212.921875 205.34375 212.277344 C 203.023438 215.285156 200.382812 217.976562 197.425781 220.355469 C 195.882812 220.675781 194.398438 220.507812 192.96875 219.851562 C 192.675781 217.871094 195.054688 217.214844 195.160156 215.53125 C 194.601562 214.855469 194.109375 215.136719 193.734375 215.484375 C 192.46875 216.675781 191.460938 218.144531 189.769531 218.820312 C 188.640625 219.277344 187.753906 219.164062 187.128906 217.710938 C 191.316406 213.824219 195.113281 209.585938 198.519531 204.996094 C 201.328125 201.230469 204.207031 197.460938 205.160156 192.683594 C 205.242188 192.179688 205.261719 191.675781 205.226562 191.167969 C 205.226562 191.046875 204.988281 190.929688 204.773438 190.734375 C 204.707031 190.695312 204.632812 190.671875 204.554688 190.667969 C 204.476562 190.667969 204.402344 190.683594 204.332031 190.71875 C 204.261719 190.753906 204.203125 190.804688 204.15625 190.867188 C 204.113281 190.933594 204.085938 191.003906 204.082031 191.082031 C 202.953125 195.375 200.75 199.132812 198.230469 202.714844 C 195.136719 207.179688 191.582031 211.238281 187.5625 214.886719 C 184.757812 217.402344 181.601562 219.003906 177.683594 219.039062 C 173.269531 219.082031 169.113281 220.417969 165.070312 222.117188 C 164.378906 222.40625 163.777344 222.476562 163.339844 221.605469 C 164.128906 220.21875 165.886719 220.832031 166.957031 219.933594 C 168.027344 219.039062 169.289062 218.40625 170.375 217.539062 C 171.460938 216.667969 172.695312 215.960938 173.324219 214.644531 C 172.675781 213.886719 172.121094 214.347656 171.59375 214.769531 C 170.105469 215.960938 168.671875 217.25 166.964844 217.9375 C 166.011719 217.820312 166.167969 216.855469 165.617188 216.507812 C 165.191406 216.238281 164.730469 216.03125 164.078125 215.675781 C 163.984375 213.320312 163.878906 210.894531 163.796875 208.472656 C 163.796875 208.128906 163.75 207.714844 163.914062 207.449219 C 165.683594 204.484375 166.851562 201.179688 169.726562 198.878906 C 175.226562 194.492188 181.3125 191.21875 187.746094 188.480469 C 190.3125 187.386719 193.046875 186.75 195.683594 186.003906 C 200.128906 184.746094 204.027344 182.570312 207.976562 180.363281 C 209.492188 179.515625 211 178.589844 212.621094 178 C 216.976562 176.417969 221.117188 177.996094 223.320312 182.054688 Z M 161.964844 197.484375 C 161.792969 195.339844 162.550781 193.347656 163.09375 191.332031 C 163.636719 189.316406 164.304688 187.320312 164.949219 185.328125 C 165.566406 183.4375 167.042969 181.828125 167.269531 178.71875 C 162.5 184.199219 162.066406 190.507812 159.636719 196.394531 C 157.476562 194.289062 156.632812 191.773438 155.316406 190.308594 C 154.445312 188.535156 155.871094 187.527344 155.480469 186.15625 L 154.148438 185.753906 C 154.066406 185.503906 153.863281 185.175781 153.875 184.859375 C 153.945312 182.808594 155.730469 181.160156 155.410156 178.507812 C 152.8125 180.320312 153.386719 183.421875 151.507812 185.339844 C 149.269531 183.371094 147.332031 181.265625 147.046875 177.699219 C 149.554688 174.539062 152.917969 172.21875 156.914062 170.789062 C 158.253906 170.3125 159.621094 170.332031 161.039062 170.550781 C 165.707031 171.285156 170.429688 171.050781 175.132812 171.164062 C 176.164062 171.1875 177.292969 171.164062 178.222656 170.804688 C 181.765625 169.414062 185.101562 170.679688 188.449219 171.519531 C 190.902344 172.128906 192.765625 173.753906 194.125 175.894531 C 195.558594 178.074219 196.292969 180.472656 196.328125 183.082031 C 191.640625 185.269531 186.75 186.921875 181.984375 188.566406 C 181.773438 188.460938 181.578125 188.335938 181.390625 188.191406 C 181.738281 187.21875 182.105469 186.257812 182.488281 185.292969 C 181.894531 184.675781 181.316406 184.625 180.949219 185.46875 C 180.394531 186.746094 179.910156 188.054688 179.421875 189.363281 C 178.914062 190.726562 177.84375 191.113281 176.527344 191.113281 L 176.671875 190.980469 L 176.480469 190.804688 C 176.492188 190.898438 176.503906 190.996094 176.523438 191.09375 C 173.84375 193.167969 171.167969 195.257812 168.46875 197.304688 C 168.109375 197.582031 167.601562 197.660156 167.15625 197.832031 C 166.511719 195.890625 168.488281 194.59375 168.070312 192.828125 C 166.449219 193.046875 166.449219 194.59375 165.929688 195.617188 C 165.300781 196.84375 165.066406 198.265625 164.523438 199.546875 C 164.011719 200.753906 164.695312 202.371094 163 203.429688 C 161.496094 201.613281 162.132812 199.457031 161.976562 197.496094 Z M 164.882812 157.9375 C 168.925781 156.351562 172.871094 155.058594 177.488281 155.871094 C 182.765625 156.800781 188.089844 157.816406 193.558594 157.640625 C 196.871094 157.535156 199.964844 159.144531 203.144531 160.027344 C 203.992188 160.304688 204.703125 160.78125 205.285156 161.457031 C 208.785156 165.316406 212.523438 168.996094 214.933594 173.917969 C 213.980469 175.585938 211.988281 175.496094 210.542969 176.300781 C 208.878906 177.234375 207.09375 177.917969 205.535156 179.085938 C 203.488281 180.617188 203.433594 180.542969 200.523438 181.035156 C 203.492188 178.117188 204.644531 174.746094 205.097656 171.09375 C 205.15625 170.617188 204.949219 170.117188 204.207031 169.867188 C 203.039062 172.527344 202.84375 175.589844 201.105469 178.039062 C 200.609375 178.734375 200.019531 179.367188 199.332031 180.195312 C 197.355469 179.257812 197.695312 177.179688 196.847656 175.832031 C 195.960938 174.429688 197.070312 172.820312 196.695312 171.292969 C 196.171875 171.464844 195.808594 171.488281 195.589844 171.679688 C 195.207031 172.011719 194.902344 172.632812 194.347656 172.105469 C 194.023438 171.789062 193.691406 171.164062 193.785156 170.785156 C 194.113281 169.4375 194.6875 168.148438 195.046875 166.808594 C 195.355469 165.667969 195.917969 164.488281 195.015625 163.167969 C 193.074219 165.011719 194.085938 168.355469 191.316406 169.957031 C 189.023438 169.367188 186.515625 168.699219 184 168.0625 C 181.363281 167.398438 178.894531 169.074219 176.296875 168.667969 C 175.191406 167.8125 175.238281 166.285156 173.984375 165.410156 C 172.820312 164.605469 174.96875 162.867188 173.363281 161.449219 C 171.484375 163.492188 171.519531 166.785156 168.621094 168.496094 C 168.183594 164.519531 165.503906 162.253906 163.191406 160.050781 C 163.265625 158.648438 164.125 158.246094 164.894531 157.945312 Z M 149.988281 156.570312 C 150.636719 156.269531 151.324219 156.128906 152.042969 156.148438 C 152.757812 156.164062 153.4375 156.34375 154.070312 156.683594 C 158.324219 159.101562 162.300781 161.925781 165.503906 165.6875 C 166.078125 166.359375 166.183594 167.269531 165.582031 168.230469 C 162.921875 168.230469 160.171875 168.074219 157.445312 168.269531 C 154.757812 168.464844 152.8125 170.527344 150.007812 171.96875 C 150.007812 170.960938 150.054688 170.605469 149.992188 170.269531 C 149.925781 169.9375 149.824219 169.554688 149.601562 169.4375 C 149.289062 169.332031 149 169.386719 148.742188 169.59375 C 147.660156 170.785156 147.953125 172.515625 147.234375 174.066406 C 145.183594 173.535156 146.839844 171.554688 145.746094 170.671875 C 144.585938 169.738281 145.222656 168.394531 145.609375 167.261719 C 146.050781 165.984375 146.65625 164.757812 147.160156 163.570312 C 146.242188 162.554688 145.71875 163.40625 145.441406 163.839844 C 144.628906 165.109375 143.980469 166.484375 143.136719 168.058594 C 141.496094 166.921875 141.0625 165.175781 139.945312 163.820312 C 142.335938 159.898438 146.214844 158.277344 149.988281 156.570312 Z M 147.742188 236.664062 C 147.296875 234.175781 147.761719 231.898438 147.183594 229.054688 C 145.074219 231.75 146.746094 234.570312 145.457031 236.921875 C 144.503906 235.890625 145.457031 234.710938 144.773438 233.703125 C 144.089844 232.699219 143.839844 231.441406 143.597656 230.253906 C 142.539062 225.027344 142.679688 219.835938 144.019531 214.679688 C 144.535156 212.648438 145.277344 210.679688 145.882812 208.671875 C 146.140625 207.832031 146.265625 206.964844 145.777344 206.144531 C 144.945312 206.101562 144.617188 206.644531 144.402344 207.316406 C 143.660156 209.644531 142.953125 211.984375 142.171875 214.300781 C 141.5625 216.132812 141.222656 218.011719 141.148438 219.941406 C 140.910156 225.023438 140.675781 230.078125 143.457031 235.070312 C 139.84375 233.597656 138.753906 232.632812 136.851562 230.046875 C 135.519531 228.234375 135.222656 226.15625 135.289062 224.089844 C 135.355469 222.023438 135.371094 219.964844 134.441406 217.722656 C 132.746094 219.300781 134.117188 221.40625 133.167969 222.882812 C 132.140625 222.800781 131.695312 222.074219 131.335938 221.25 C 130.320312 218.949219 130.207031 216.503906 130.222656 214.054688 C 130.25 210.375 130.550781 206.730469 131.460938 203.136719 C 131.738281 202.046875 132.511719 200.898438 131.699219 199.679688 C 129.214844 202.007812 128.148438 207.714844 128.175781 218.449219 C 126.988281 218.6875 126.5625 217.972656 126.988281 217.105469 C 127.675781 215.699219 127.488281 214.386719 127.074219 213.039062 C 125.207031 206.898438 125.992188 200.90625 128.316406 195.09375 C 129.535156 192.011719 130.484375 188.800781 132.386719 186.011719 C 132.777344 185.433594 132.824219 184.691406 132.109375 183.984375 C 130.261719 185.132812 129.445312 187.101562 128.621094 188.949219 C 127.492188 191.507812 126.515625 194.121094 125.6875 196.789062 C 123.929688 202.375 123.34375 208.035156 124.972656 213.835938 C 121.644531 209.84375 119.890625 205.195312 119.167969 200.136719 C 119.019531 199.125 119.167969 198.035156 119.363281 197.015625 C 120.300781 192.210938 121.585938 187.519531 123.667969 183.050781 C 125.507812 179.097656 127.269531 175.105469 128.277344 170.816406 C 128.675781 169.148438 129.554688 167.574219 130.132812 165.929688 C 131.140625 163.054688 134.339844 162.859375 136.167969 164.191406 C 137.996094 165.523438 139.734375 166.964844 140.636719 169.195312 C 141.691406 171.78125 143.082031 174.238281 143.988281 176.867188 C 145.671875 181.761719 148.46875 185.90625 151.835938 189.757812 C 155.539062 194 158.457031 198.671875 160.320312 204.054688 C 161.210938 206.636719 161.148438 209.1875 161.347656 211.78125 C 161.628906 215.480469 160.992188 219.097656 160.394531 222.714844 C 160.132812 224.292969 159.574219 225.753906 158.226562 226.769531 C 154.722656 229.410156 151.859375 232.671875 149.089844 236.035156 C 148.882812 236.273438 148.476562 236.332031 147.746094 236.664062 Z M 221.015625 254.972656 C 222.488281 255.902344 223.890625 256.945312 225.296875 257.96875 C 230.875 262.019531 230.722656 266.429688 229.8125 271.917969 C 229.449219 274.105469 227.929688 275.617188 225.660156 276.175781 C 222.453125 276.960938 219.292969 277.734375 215.894531 277.394531 C 209.832031 276.777344 203.738281 276.488281 197.667969 275.933594 C 195.027344 275.695312 192.4375 275.933594 189.859375 276.308594 C 188.480469 276.511719 187.109375 276.765625 185.726562 276.953125 C 180.679688 277.636719 176.96875 275.351562 174.050781 271.503906 C 172.996094 270.105469 172.074219 268.628906 171.277344 267.070312 C 169.308594 263.246094 167.449219 259.363281 165.453125 255.320312 C 167.855469 254.761719 168.453125 256.972656 169.804688 257.777344 C 171.285156 258.652344 172.519531 259.941406 173.886719 261.074219 C 175.160156 259.402344 172.433594 258.988281 172.839844 257.617188 C 177.484375 259.25 179.933594 261.730469 185.726562 270.816406 C 186.226562 267.773438 184.492188 265.976562 183.183594 264.117188 C 181.804688 262.164062 180.171875 260.394531 178.308594 258.128906 C 183.398438 257.621094 187.710938 257.722656 190.851562 261.824219 C 192.390625 263.835938 194.140625 265.625 196.085938 267.640625 C 196.621094 265.734375 195.371094 265.070312 194.703125 264.164062 C 194.082031 263.324219 193.351562 262.566406 192.683594 261.757812 C 191.902344 260.820312 191.144531 259.867188 190.332031 258.867188 C 191.605469 257.480469 192.554688 259.128906 193.605469 259.023438 C 194.558594 258.824219 194.007812 257.832031 194.535156 257.335938 C 195.59375 256.820312 196.863281 256.542969 198.015625 256.832031 C 199.585938 257.226562 200.585938 257.011719 201.429688 255.523438 C 201.90625 254.679688 203.003906 254.875 203.808594 255.167969 C 206.109375 255.992188 208.34375 256.933594 210.230469 258.597656 C 211.636719 259.84375 213.175781 260.9375 214.65625 262.101562 C 212.941406 258.128906 209.25 256.355469 206.234375 253.699219 C 208.261719 251.609375 210.964844 251.316406 212.835938 249.902344 C 214.816406 250.339844 215.523438 251.988281 216.894531 252.703125 C 218.265625 253.417969 219.691406 254.140625 221.019531 254.972656 Z M 236.898438 235.351562 C 235.519531 237.410156 233.824219 239.105469 231.609375 240.308594 C 229.167969 241.679688 226.613281 242.78125 223.941406 243.621094 C 219.085938 245.0625 214.429688 247 209.753906 248.9375 C 208.992188 249.253906 208.269531 249.941406 207.375 249.246094 C 218.390625 238.28125 218.574219 238.066406 219.226562 235.074219 C 217.40625 236.210938 216.308594 237.734375 215.136719 239.160156 C 210.40625 244.902344 204.6875 249.386719 198.105469 252.820312 C 194.179688 254.867188 190.175781 255.769531 184.378906 255.589844 C 190.683594 253.152344 196.6875 251.332031 200.707031 246.171875 C 199.800781 245.316406 199.210938 245.933594 198.75 246.328125 C 193.410156 250.898438 187.144531 253.015625 180.296875 254.300781 C 176.105469 255.085938 172.394531 254.507812 168.574219 253.25 C 168.300781 253.160156 168.128906 252.761719 167.738281 252.296875 C 171.941406 250.867188 176.640625 251.175781 180.324219 248.484375 C 179.914062 247.371094 179.246094 247.609375 178.660156 247.894531 C 175.316406 249.53125 171.683594 250.0625 168.074219 250.582031 C 166.195312 250.851562 164.269531 250.789062 162.347656 250.734375 C 161.460938 250.710938 160.730469 250.1875 160.566406 248.894531 C 168.925781 249.542969 176.300781 247.046875 182.816406 242 C 182.511719 240.695312 181.78125 241.046875 181.203125 241.363281 C 180.128906 241.9375 179.125 242.640625 178.0625 243.242188 C 173.429688 245.851562 168.503906 247.355469 162.175781 247.335938 C 171.027344 243.761719 179.273438 240.925781 184.828125 233.679688 C 183.660156 232.632812 183.09375 233.539062 182.539062 234.089844 C 178.417969 238.25 173.605469 241.308594 168.097656 243.273438 C 163.277344 244.992188 158.410156 246.070312 152.0625 245.339844 C 156.296875 242.339844 160.621094 241.140625 163.769531 237.476562 C 160.730469 236.871094 159.761719 240.097656 157.308594 239.878906 C 157.269531 238.6875 158.335938 238.328125 158.941406 237.667969 C 159.769531 236.769531 160.695312 235.949219 161.449219 234.996094 C 162.03125 234.25 163.167969 233.652344 162.398438 232.039062 C 158.292969 235.523438 155.363281 240.71875 149.484375 241.265625 C 148.566406 240.296875 149.199219 239.691406 149.507812 239.195312 C 154.183594 231.769531 160.308594 225.992188 168.589844 222.800781 C 173.882812 220.765625 179.460938 220.453125 185.054688 220.4375 C 185.902344 220.4375 186.765625 220.726562 187.601562 220.953125 C 194.75 222.886719 202.054688 223.082031 209.382812 222.789062 C 214.792969 222.570312 220.1875 222.550781 225.554688 223.402344 C 228.644531 223.894531 231.710938 224.578125 234.539062 226.074219 C 238.136719 227.992188 239.1875 231.941406 236.902344 235.34375 Z M 236.898438 235.351562 " fill-opacity="1" fill-rule="nonzero"/></g><path fill="#000000" d="M 26.914062 196.226562 L 26.914062 196.210938 L 26.800781 196.082031 Z M 26.914062 196.226562 " fill-opacity="1" fill-rule="nonzero"/><path fill="#000000" d="M 126.207031 400.71875 C 126.761719 401.363281 127.378906 402.023438 128.347656 402.046875 C 128.496094 402.71875 128.804688 403.308594 129.273438 403.816406 C 129.742188 404.324219 130.304688 404.679688 130.960938 404.882812 C 130.90625 403 130.910156 402.996094 128.554688 401.820312 C 128.25 400.375 127.1875 399.40625 126.261719 398.410156 C 120.40625 392.132812 113.695312 386.90625 106.429688 382.375 C 105.867188 382.023438 105.226562 381.832031 104.667969 382.6875 C 106.207031 383.820312 107.714844 384.992188 109.28125 386.078125 C 115.453125 390.339844 121.257812 395.019531 126.207031 400.71875 Z M 126.207031 400.71875 " fill-opacity="1" fill-rule="nonzero"/><path fill="#000000" d="M 122.765625 356.796875 C 124.609375 354.277344 126.644531 351.855469 128.167969 349.148438 C 129.773438 346.289062 130.90625 343.160156 132.1875 340.121094 C 132.488281 339.40625 132.1875 338.78125 130.933594 338.339844 C 130.457031 339.632812 130.035156 340.769531 129.597656 341.898438 C 129.160156 343.023438 128.71875 344.164062 128.226562 345.273438 C 127.734375 346.386719 127.21875 347.492188 126.644531 348.5625 C 125.988281 349.785156 125.300781 350.996094 124.542969 352.160156 C 123.878906 353.175781 123.152344 354.148438 122.371094 355.074219 C 121.34375 356.289062 121.324219 356.265625 121.074219 357.804688 C 121.890625 357.898438 122.367188 357.335938 122.765625 356.796875 Z M 122.765625 356.796875 " fill-opacity="1" fill-rule="nonzero"/><path fill="#000000" d="M 127.324219 379.050781 C 125.660156 377.003906 124.339844 376.359375 121.449219 375.421875 C 121.90625 376.960938 123.445312 377.261719 124.304688 378.238281 C 125.222656 379.277344 126.1875 380.273438 127.140625 381.28125 C 128.210938 382.414062 129.222656 383.617188 130.394531 384.636719 C 131.421875 385.53125 132.632812 386.214844 133.726562 386.96875 C 133.964844 386.816406 134.144531 386.746094 134.230469 386.613281 C 134.273438 386.539062 134.171875 386.320312 134.078125 386.226562 C 131.746094 383.929688 129.414062 381.621094 127.324219 379.050781 Z M 127.324219 379.050781 " fill-opacity="1" fill-rule="nonzero"/><path fill="#000000" d="M 187.058594 376.046875 C 185.167969 373.195312 182.855469 370.746094 180.117188 368.695312 C 181.546875 372.171875 184.414062 374.328125 186.640625 377.320312 C 186.875 376.632812 187.167969 376.210938 187.058594 376.046875 Z M 187.058594 376.046875 " fill-opacity="1" fill-rule="nonzero"/><path fill="#000000" d="M 189.910156 371.527344 C 188.738281 369.363281 186.972656 367.699219 185.195312 366.046875 C 184.691406 365.570312 184.164062 365.140625 183.417969 366.242188 C 185.375 368.515625 187.855469 370.453125 189.539062 373.449219 C 190.304688 372.472656 190.160156 371.992188 189.910156 371.527344 Z M 189.910156 371.527344 " fill-opacity="1" fill-rule="nonzero"/><path fill="#000000" d="M 140.925781 398.953125 C 139.703125 397.347656 138.421875 395.671875 136.140625 395.25 C 137.441406 396.636719 138.742188 398.03125 140.050781 399.414062 C 140.359375 399.738281 140.632812 399.652344 140.925781 398.953125 Z M 140.925781 398.953125 " fill-opacity="1" fill-rule="nonzero"/><path fill="#000000" d="M 175.332031 363.261719 C 174.324219 362.308594 173.335938 361.355469 172.285156 360.445312 C 171.75 359.988281 171.109375 359.804688 170.523438 360.683594 C 171.796875 361.992188 173.027344 363.378906 175.332031 363.261719 Z M 175.332031 363.261719 " fill-opacity="1" fill-rule="nonzero"/><path fill="#000000" d="M 149.730469 386.867188 L 153.132812 390.21875 C 152.757812 388.3125 151.585938 387.210938 149.730469 386.867188 Z M 149.730469 386.867188 " fill-opacity="1" fill-rule="nonzero"/><path fill="#000000" d="M 126.9375 384.742188 C 124.300781 383.203125 123.519531 381.023438 121.230469 380.992188 C 123.160156 383.539062 123.210938 383.554688 126.9375 384.742188 Z M 126.9375 384.742188 " fill-opacity="1" fill-rule="nonzero"/><path fill="#000000" d="M 121.226562 380.992188 L 121.152344 380.894531 L 121.042969 380.859375 C 121.042969 380.90625 121.042969 380.953125 121.0625 380.992188 Z M 121.226562 380.992188 " fill-opacity="1" fill-rule="nonzero"/><path fill="#000000" d="M 148.476562 395.371094 C 148.113281 395.109375 147.886719 395.148438 147.625 395.847656 L 150.257812 398.753906 C 150.636719 396.925781 149.558594 396.15625 148.476562 395.371094 Z M 148.476562 395.371094 " fill-opacity="1" fill-rule="nonzero"/><path fill="#000000" d="M 153.84375 361.441406 C 153.648438 361.332031 153.257812 361.558594 152.957031 361.628906 C 153.871094 363.035156 155.460938 363.191406 157.660156 364.152344 C 156.460938 362.28125 154.992188 362.132812 153.84375 361.441406 Z M 153.84375 361.441406 " fill-opacity="1" fill-rule="nonzero"/><path fill="#000000" d="M 100.046875 387.765625 C 98.203125 385.84375 98.144531 385.824219 96.097656 385.21875 C 97.667969 387.605469 97.6875 387.632812 100.046875 387.765625 Z M 100.046875 387.765625 " fill-opacity="1" fill-rule="nonzero"/><path fill="#000000" d="M 96.089844 385.21875 L 96.011719 385.101562 C 95.984375 385.101562 95.960938 385.101562 95.933594 385.101562 L 95.933594 385.164062 Z M 96.089844 385.21875 " fill-opacity="1" fill-rule="nonzero"/><path fill="#000000" d="M 66.605469 205.675781 L 66.691406 205.675781 C 66.660156 205.644531 66.625 205.617188 66.589844 205.589844 C 66.597656 205.613281 66.597656 205.644531 66.605469 205.675781 Z M 66.605469 205.675781 " fill-opacity="1" fill-rule="nonzero"/><path fill="#000000" d="M 65.46875 206.425781 C 63.96875 208.960938 62.269531 211.410156 61.03125 214.074219 C 59.28125 217.84375 57.804688 221.746094 56.355469 225.644531 C 55.925781 226.804688 55.605469 228.175781 56.679688 229.636719 C 56.976562 228.921875 57.195312 228.46875 57.339844 228.003906 C 59.542969 221.039062 62.070312 214.21875 66.054688 208.042969 C 66.53125 207.316406 66.789062 206.542969 66.605469 205.675781 C 66.070312 205.667969 65.726562 205.992188 65.46875 206.425781 Z M 65.46875 206.425781 " fill-opacity="1" fill-rule="nonzero"/><path fill="#000000" d="M 27.921875 241.980469 C 31.347656 242.472656 34.285156 242.351562 37.164062 242.695312 C 40.257812 243.0625 43.253906 243.992188 46.332031 244.421875 C 49.175781 244.816406 51.789062 246.28125 55.339844 246.464844 C 47.054688 241.902344 34.410156 239.8125 27.921875 241.980469 Z M 27.921875 241.980469 " fill-opacity="1" fill-rule="nonzero"/><path fill="#000000" d="M 53.390625 188.175781 C 50.65625 192.507812 48.5 197.21875 46.75 202.109375 C 46.125 203.855469 45.246094 205.65625 46.011719 207.972656 C 46.992188 207.484375 47.066406 206.722656 47.238281 206.082031 C 48.828125 200.179688 50.835938 194.460938 54.136719 189.261719 C 54.429688 188.800781 54.308594 188.304688 53.390625 188.175781 Z M 53.390625 188.175781 " fill-opacity="1" fill-rule="nonzero"/><path fill="#000000" d="M 38.453125 231.8125 C 39.351562 232.089844 40.402344 231.871094 41.390625 231.851562 C 41.34375 231.703125 41.304688 231.53125 41.210938 231.496094 C 36.21875 229.546875 31.074219 228.554688 25.703125 229.507812 C 25.285156 229.582031 25.183594 229.953125 25.347656 230.324219 C 25.820312 230.960938 26.554688 230.742188 27.183594 230.734375 C 30.976562 230.6875 34.753906 230.675781 38.453125 231.8125 Z M 38.453125 231.8125 " fill-opacity="1" fill-rule="nonzero"/><path fill="#000000" d="M 30.320312 194.964844 C 31.035156 194.15625 31.578125 193.816406 31.640625 193.40625 C 32.183594 189.710938 33.78125 186.4375 35.480469 183.179688 C 35.855469 182.464844 36.457031 181.707031 35.453125 180.542969 C 33.183594 185.074219 30.148438 189.109375 30.320312 194.964844 Z M 30.320312 194.964844 " fill-opacity="1" fill-rule="nonzero"/><path fill="#000000" d="M 43.582031 188.964844 L 43.652344 188.894531 C 43.652344 188.832031 43.652344 188.773438 43.652344 188.710938 L 43.542969 188.804688 C 43.566406 188.871094 43.574219 188.910156 43.582031 188.964844 Z M 43.582031 188.964844 " fill-opacity="1" fill-rule="nonzero"/><path fill="#000000" d="M 39.765625 199.988281 C 40.675781 197.757812 41.695312 195.558594 42.464844 193.273438 C 42.9375 191.878906 43.890625 190.5625 43.582031 188.964844 C 40.660156 191.824219 39.675781 195.621094 38.675781 199.394531 C 38.574219 199.789062 39.140625 200.25 39.765625 199.988281 Z M 39.765625 199.988281 " fill-opacity="1" fill-rule="nonzero"/><path fill="#000000" d="M 23.945312 195.542969 C 21.527344 194.652344 19.0625 193.890625 16.476562 193.6875 C 15.8125 193.636719 15.085938 193.742188 15.339844 194.867188 C 18.402344 195.242188 21.386719 195.941406 24.292969 196.972656 C 25.203125 197.300781 26.269531 197.464844 26.738281 196.230469 C 25.742188 196.296875 24.871094 195.886719 23.945312 195.542969 Z M 23.945312 195.542969 " fill-opacity="1" fill-rule="nonzero"/><path fill="#000000" d="M 26.914062 196.226562 L 26.792969 196.082031 C 26.777344 196.136719 26.757812 196.1875 26.738281 196.238281 C 26.796875 196.230469 26.851562 196.234375 26.914062 196.226562 Z M 26.914062 196.226562 " fill-opacity="1" fill-rule="nonzero"/><path fill="#000000" d="M 63.261719 200.308594 C 61.34375 201.699219 60.597656 203.058594 60.898438 205.027344 C 62.234375 203.960938 63.242188 202.671875 63.261719 200.308594 Z M 63.261719 200.308594 " fill-opacity="1" fill-rule="nonzero"/><path fill="#000000" d="M 43.882812 248.382812 C 45.625 248.976562 47.429688 248.824219 49.320312 247.875 L 44.3125 247.203125 Z M 43.882812 248.382812 " fill-opacity="1" fill-rule="nonzero"/><path fill="#000000" d="M 41.664062 231.925781 L 41.511719 231.847656 L 41.390625 231.847656 C 41.402344 231.886719 41.414062 231.917969 41.429688 231.953125 Z M 41.664062 231.925781 " fill-opacity="1" fill-rule="nonzero"/><path fill="#000000" d="M 47.375 233.199219 C 45.664062 231.632812 43.6875 231.667969 41.667969 231.917969 C 44.417969 233.332031 45.0625 233.472656 47.375 233.199219 Z M 47.375 233.199219 " fill-opacity="1" fill-rule="nonzero"/><path fill="#000000" d="M 43.664062 188.710938 C 45.566406 187.121094 45.566406 187.078125 46.039062 185.101562 C 44.894531 186.089844 43.765625 187.078125 43.664062 188.710938 Z M 43.664062 188.710938 " fill-opacity="1" fill-rule="nonzero"/><path fill="#000000" d="M 33.695312 175.375 C 32.296875 177.175781 32.296875 177.175781 32.21875 179.152344 C 33.152344 178.035156 33.902344 177.066406 33.695312 175.375 Z M 33.695312 175.375 " fill-opacity="1" fill-rule="nonzero"/><path fill="#000000" d="M 150.871094 43.910156 C 147.503906 48.25 145.253906 53.136719 143.300781 58.207031 C 143.175781 58.542969 143.15625 58.882812 143.242188 59.230469 C 143.320312 59.511719 143.59375 59.90625 143.816406 59.929688 C 144.097656 59.960938 144.617188 59.730469 144.683594 59.507812 C 145.492188 56.644531 146.664062 53.933594 148.1875 51.378906 C 151.386719 46.136719 154.941406 41.195312 159.367188 36.898438 C 161.996094 34.347656 164.515625 31.691406 167.339844 28.824219 C 166.589844 28.53125 166.390625 28.382812 166.296875 28.425781 C 165.816406 28.621094 165.371094 28.875 164.953125 29.179688 C 159.683594 33.53125 155.066406 38.503906 150.871094 43.910156 Z M 150.871094 43.910156 " fill-opacity="1" fill-rule="nonzero"/><path fill="#000000" d="M 174.175781 54.667969 C 175.5625 50.855469 177.441406 46.832031 175.976562 42.429688 C 174.566406 45.050781 174.292969 47.980469 173.574219 50.769531 C 172.757812 53.816406 171.496094 56.664062 169.792969 59.316406 C 168.25 61.785156 166.519531 64.140625 164.871094 66.542969 C 170.023438 64.148438 172.433594 59.460938 174.175781 54.667969 Z M 174.175781 54.667969 " fill-opacity="1" fill-rule="nonzero"/><path fill="#000000" d="M 156.644531 28.738281 C 154.359375 31.183594 152.535156 32.644531 151.03125 36.042969 C 154.269531 33.765625 155.175781 32.578125 156.644531 28.738281 Z M 156.644531 28.738281 " fill-opacity="1" fill-rule="nonzero"/><path fill="#000000" d="M 141.628906 65.039062 C 140.917969 66.15625 140.246094 67.304688 140.546875 68.726562 C 142.339844 68.574219 142.0625 66.691406 143.054688 65.933594 C 142.894531 65.511719 142.695312 65.101562 142.457031 64.714844 C 142.414062 64.652344 141.761719 64.824219 141.628906 65.039062 Z M 141.628906 65.039062 " fill-opacity="1" fill-rule="nonzero"/><path fill="#000000" d="M 143.054688 65.933594 L 143.089844 66.015625 L 143.191406 65.976562 C 143.203125 65.921875 143.210938 65.871094 143.222656 65.820312 C 143.164062 65.855469 143.109375 65.894531 143.054688 65.933594 Z M 143.054688 65.933594 " fill-opacity="1" fill-rule="nonzero"/><path fill="#000000" d="M 214.335938 230.378906 C 211.546875 233.953125 208.554688 237.558594 204.332031 241.285156 C 205.851562 241.027344 206.234375 241.066406 206.46875 240.90625 C 210.183594 238.472656 212.980469 235.164062 215.292969 231.425781 C 215.507812 231.09375 215.269531 230.453125 214.335938 230.378906 Z M 214.335938 230.378906 " fill-opacity="1" fill-rule="nonzero"/><path fill="#000000" d="M 197.277344 233.773438 C 197.113281 233.921875 197.152344 234.304688 197.089844 234.605469 C 199.824219 233.390625 201.539062 232.082031 203.273438 229.683594 C 203.824219 228.925781 204.699219 228.132812 203.535156 226.367188 C 201.769531 229.109375 199.683594 231.574219 197.277344 233.773438 Z M 197.277344 233.773438 " fill-opacity="1" fill-rule="nonzero"/><path fill="#000000" d="M 195.007812 229.054688 L 188.433594 236.398438 C 194.359375 232.605469 194.898438 231.941406 195.007812 229.054688 Z M 195.007812 229.054688 " fill-opacity="1" fill-rule="nonzero"/><path fill="#000000" d="M 167.984375 233.9375 C 170.027344 232.429688 171.605469 230.527344 172.710938 228.234375 C 169.421875 230.054688 168.269531 231.53125 167.984375 233.9375 Z M 167.984375 233.9375 " fill-opacity="1" fill-rule="nonzero"/><path fill="#000000" d="M 210.535156 184.4375 C 209.070312 187.351562 209.449219 190.296875 208.195312 192.726562 C 207.003906 195.03125 206.082031 197.492188 204.863281 199.773438 C 203.578125 202.183594 202.078125 204.476562 200.671875 206.816406 C 206.242188 201.835938 209.59375 195.894531 210.941406 189.859375 C 211.289062 188.285156 211.910156 186.605469 210.535156 184.4375 Z M 210.535156 184.4375 " fill-opacity="1" fill-rule="nonzero"/><path fill="#000000" d="M 177.648438 199.300781 C 175.929688 200.652344 175.507812 202.617188 174.367188 204.066406 C 173.300781 205.421875 172.238281 206.785156 171.15625 208.121094 C 169.96875 209.585938 168.265625 210.601562 167.722656 212.664062 C 171.464844 210.964844 173.652344 207.699219 175.953125 204.574219 C 177.425781 202.570312 177.484375 202.117188 177.648438 199.300781 Z M 177.648438 199.300781 " fill-opacity="1" fill-rule="nonzero"/><path fill="#000000" d="M 183.867188 200.585938 C 180.164062 204.984375 177.683594 208.945312 174.859375 212.625 C 179.402344 209.332031 182.683594 204.976562 183.867188 200.585938 Z M 183.867188 200.585938 " fill-opacity="1" fill-rule="nonzero"/><path fill="#000000" d="M 209.613281 208.613281 C 212.089844 205.78125 214.097656 202.894531 215.414062 199.554688 C 215.789062 198.601562 215.886719 197.535156 214.578125 196.070312 C 213.808594 200.570312 211.125 203.742188 209.34375 207.394531 C 209.230469 207.605469 209.460938 207.992188 209.613281 208.613281 Z M 209.613281 208.613281 " fill-opacity="1" fill-rule="nonzero"/><path fill="#000000" d="M 65.726562 121.382812 C 64.675781 119.78125 63.785156 118.089844 63.0625 116.3125 C 61.679688 113.101562 60.730469 109.765625 60.207031 106.304688 C 60.089844 105.445312 59.96875 104.566406 58.816406 104.175781 C 58.675781 104.609375 58.378906 105.050781 58.421875 105.457031 C 58.988281 110.878906 60.648438 115.984375 63.050781 120.855469 C 64.238281 123.257812 66.203125 125.003906 68.15625 126.734375 C 69.84375 128.230469 71.886719 128.535156 74.023438 127.941406 C 74.371094 127.847656 74.617188 127.371094 74.890625 127.003906 C 70.816406 126.851562 67.914062 124.644531 65.726562 121.382812 Z M 65.726562 121.382812 " fill-opacity="1" fill-rule="nonzero"/><path fill="#000000" d="M 90.53125 92.136719 C 89.707031 87.382812 84.363281 79.296875 80.417969 76.773438 C 79.769531 76.359375 79.117188 76.410156 78.21875 77.222656 C 83.957031 81.449219 87.066406 87.59375 90.308594 94.242188 C 90.441406 93.152344 90.625 92.621094 90.53125 92.136719 Z M 90.53125 92.136719 " fill-opacity="1" fill-rule="nonzero"/><path fill="#000000" d="M 78.148438 86.003906 C 77.703125 85.3125 77.066406 85.289062 76.355469 86.332031 C 79.328125 91.046875 81.492188 96.265625 82.414062 101.953125 C 82.507812 102.523438 83.035156 102.652344 83.804688 102.191406 C 83.667969 101.148438 83.46875 100 83.378906 98.84375 C 83 94.015625 80.695312 89.949219 78.148438 86.003906 Z M 78.148438 86.003906 " fill-opacity="1" fill-rule="nonzero"/><path fill="#000000" d="M 65.496094 88.273438 C 65.195312 94.601562 66.039062 100.226562 69.703125 106.253906 C 68.636719 100.355469 67.75 95.429688 66.847656 90.507812 C 66.726562 89.855469 66.863281 89.082031 65.496094 88.273438 Z M 65.496094 88.273438 " fill-opacity="1" fill-rule="nonzero"/><path fill="#000000" d="M 95.71875 95.527344 C 95.589844 93.757812 95.050781 91.917969 92.863281 90.996094 C 95.003906 95.714844 95.269531 100.644531 95.335938 105.746094 C 96.242188 102.410156 95.96875 98.949219 95.71875 95.527344 Z M 95.71875 95.527344 " fill-opacity="1" fill-rule="nonzero"/><path fill="#000000" d="M 149.324219 210.128906 C 146.902344 212.644531 147.203125 215.429688 146.546875 217.816406 C 145.921875 220.085938 145.597656 222.53125 146.996094 224.824219 C 147.039062 219.96875 149.554688 215.589844 149.324219 210.128906 Z M 149.324219 210.128906 " fill-opacity="1" fill-rule="nonzero"/><path fill="#000000" d="M 139.171875 182.097656 C 135.71875 185.507812 134.527344 189.84375 134.238281 194.546875 C 136.378906 190.648438 137.632812 186.332031 140 182.800781 C 139.710938 182.0625 139.410156 181.867188 139.171875 182.097656 Z M 139.171875 182.097656 " fill-opacity="1" fill-rule="nonzero"/><path fill="#000000" d="M 151.175781 205.074219 C 152.890625 202.671875 152.890625 202.671875 151.515625 200.785156 C 151.78125 202.476562 150.496094 203.289062 151.175781 205.074219 Z M 151.175781 205.074219 " fill-opacity="1" fill-rule="nonzero"/><path fill="#000000" d="M 183.464844 79.394531 C 186 79.742188 187.257812 78.203125 188.625 77.035156 C 189.160156 76.574219 190.269531 76.167969 189.339844 74.890625 C 187.46875 76.324219 185.628906 77.734375 183.464844 79.394531 Z M 183.464844 79.394531 " fill-opacity="1" fill-rule="nonzero"/><path fill="#000000" d="M 170.675781 81.125 C 172.800781 82.792969 174.359375 82.871094 176.230469 81.089844 C 174.28125 80.953125 172.707031 80.476562 170.675781 81.125 Z M 170.675781 81.125 " fill-opacity="1" fill-rule="nonzero"/><path fill="#000000" d="M 207.46875 261.386719 C 206.632812 260.777344 205.75 260.246094 204.824219 259.792969 C 204.660156 259.710938 204.292969 260.03125 203.746094 260.296875 C 204.460938 262.007812 206.234375 262.535156 207.398438 263.667969 C 208.765625 264.992188 210.128906 266.320312 211.410156 267.71875 C 212.558594 268.980469 213.589844 270.339844 214.878906 271.917969 C 215.632812 270.089844 214.574219 269.464844 214.003906 268.695312 C 212.058594 266.070312 210.105469 263.40625 207.46875 261.386719 Z M 207.46875 261.386719 " fill-opacity="1" fill-rule="nonzero"/><path fill="#000000" d="M 138.253906 11.75 C 137.835938 15.632812 137.835938 15.632812 139.921875 18.160156 C 140.394531 15.730469 138.992188 13.875 138.253906 11.75 Z M 138.253906 11.75 " fill-opacity="1" fill-rule="nonzero"/><path fill="#000000" d="M 177.335938 187.148438 C 178.625 184.320312 180.113281 181.59375 181.792969 178.980469 C 182.195312 178.335938 182.929688 177.617188 182.339844 176.703125 C 182.15625 176.621094 181.925781 176.464844 181.890625 176.503906 C 179.734375 178.796875 176.488281 185.207031 175.230469 189.636719 C 175.640625 190.015625 176.070312 190.410156 176.5 190.8125 C 176.34375 189.507812 176.796875 188.339844 177.335938 187.148438 Z M 177.335938 187.148438 " fill-opacity="1" fill-rule="nonzero"/><path fill="#000000" d="M 24.988281 203.511719 C 21.75 202.691406 18.449219 202.476562 15.132812 202.378906 C 14.265625 202.355469 13.386719 202.292969 12.726562 203.027344 C 13.496094 203.996094 14.609375 203.742188 15.625 203.785156 C 19.460938 203.960938 23.261719 204.308594 26.953125 205.484375 C 27.535156 205.667969 28.210938 205.5625 28.855469 205.558594 C 27.933594 204.195312 26.460938 203.882812 24.988281 203.511719 Z M 24.988281 203.511719 " fill-opacity="1" fill-rule="nonzero"/><path fill="#000000" d="M 28.851562 205.550781 L 28.925781 205.660156 L 29.042969 205.609375 C 29.035156 205.589844 29.023438 205.570312 29.015625 205.550781 Z M 28.851562 205.550781 " fill-opacity="1" fill-rule="nonzero"/><path fill="#000000" d="M 21.484375 219.457031 C 20.003906 219.609375 18.421875 218.316406 16.453125 220.410156 C 18.617188 219.898438 20.117188 220.785156 21.484375 219.457031 Z M 21.484375 219.457031 " fill-opacity="1" fill-rule="nonzero"/><path fill="#000000" d="M 154.296875 341.207031 C 152.417969 342.828125 151.652344 344.972656 150.460938 346.789062 C 149.308594 348.558594 146.960938 349.523438 146.59375 352.289062 C 151.855469 348.148438 153.527344 345.738281 154.296875 341.207031 Z M 154.296875 341.207031 " fill-opacity="1" fill-rule="nonzero"/><path fill="#000000" d="M 166.777344 339.226562 L 163.96875 343.964844 C 167.265625 341.527344 167.265625 341.527344 166.777344 339.226562 Z M 166.777344 339.226562 " fill-opacity="1" fill-rule="nonzero"/><path fill="#000000" d="M 194.972656 35.042969 C 198.828125 33.398438 199.035156 33.214844 200.128906 30.714844 C 197.710938 31.554688 196.414062 33.40625 194.972656 35.042969 Z M 194.972656 35.042969 " fill-opacity="1" fill-rule="nonzero"/><path fill="#000000" d="M 186.824219 41.914062 C 186.292969 42.414062 186.097656 42.976562 186.9375 43.46875 C 188.125 42.546875 189.480469 41.8125 190.292969 40 C 188.324219 40.03125 187.667969 41.125 186.824219 41.914062 Z M 186.824219 41.914062 " fill-opacity="1" fill-rule="nonzero"/><path fill="#000000" d="M 105.113281 351.808594 C 103.398438 353.773438 103.34375 355.996094 103.015625 358.09375 C 104.382812 356.347656 106.003906 354.675781 105.113281 351.808594 Z M 105.113281 351.808594 " fill-opacity="1" fill-rule="nonzero"/><path fill="#000000" d="M 15.671875 174.867188 C 14.582031 173.46875 13.078125 173.03125 11.644531 172.542969 C 10.953125 172.304688 10.3125 172.59375 10.378906 173.777344 C 12.078125 174.066406 13.582031 175.464844 15.671875 174.867188 Z M 15.671875 174.867188 " fill-opacity="1" fill-rule="nonzero"/></g></g></g></svg>