<svg xmlns="http://www.w3.org/2000/svg" xmlns:xlink="http://www.w3.org/1999/xlink" xml:space="preserve" id="Layer_1" x="0" y="0" style="enable-background:new 0 0 480 672" version="1.1" viewBox="0 0 480 672"><style>.st3{clip-path:url(#SVGID_00000003819449950616472360000004367299942815461817_)}.st4{clip-path:url(#SVGID_00000150802900026128080100000016480825312304745653_)}</style><filter id="df21e305e7" width="100%" height="100%" x="0%" y="0%"><feColorMatrix color-interpolation-filters="sRGB" values="0 0 0 0 1 0 0 0 0 1 0 0 0 0 1 0 0 0 1 0"/></filter><defs><filter id="Adobe_OpacityMaskFilter" width="448" height="440" x="16" y="113.3" filterUnits="userSpaceOnUse"><feColorMatrix values="1 0 0 0 0 0 1 0 0 0 0 0 1 0 0 0 0 0 1 0"/></filter></defs><mask id="_x36_debf78b0e_00000178191184884404324480000008570515246682824124_" width="448" height="440" x="16" y="113.3" maskUnits="userSpaceOnUse"><g style="filter:url(#df21e305e7)"><g><path d="M-48-67.2h576v806.4H-48z" style="opacity:.52"/></g></g></mask><g style="mask:url(#_x36_debf78b0e_00000178191184884404324480000008570515246682824124_)"><g><g transform="translate(12 85)"><defs><path id="SVGID_1_" d="M4 28.3h448v440H4z"/></defs><clipPath id="SVGID_00000138543878883883561980000005688246254154209455_"><use xlink:href="#SVGID_1_" style="overflow:visible"/></clipPath><g style="clip-path:url(#SVGID_00000138543878883883561980000005688246254154209455_)"><path d="m151.2 136.9-.1-.1v.2c0 .1.1 0 .2 0 0 0-.1 0-.1-.1z"/><g><defs><path id="SVGID_00000150072629315734006400000016099407590161617572_" d="M5.3 29.7h445.3v438H5.3z"/></defs><clipPath id="SVGID_00000174580477531028830720000007443608604615916433_"><use xlink:href="#SVGID_00000150072629315734006400000016099407590161617572_" style="overflow:visible"/></clipPath><g style="clip-path:url(#SVGID_00000174580477531028830720000007443608604615916433_)"><path d="M449.8 273.3c-1.4-7.8-4.9-14.6-8.9-21.1-4.2-6.7-6.7-13.8-7.1-21.7-.1-1.5-.5-3-.5-4.4-.2-5-1.8-9.7-4-14.2-1.3-2.6-2.7-5.3-4.1-7.9-.6-1.1-1.2-2.2-.7-3.9 3.4-1.9 6.4-4.2 9.2-6.9 3.7-3.7 5.7-8.1 5.7-13.3 0-5-.5-9.9-2.5-14.6-2.3-5.2-4.6-10.5-6.9-15.6-2.4-5-3.4-10.4-2.9-15.9.3-3.2.2-6.4-.1-9.7-.5-4.9-.8-10.1-3.4-14.4-3.2-5.3-6.6-10.5-11.7-14.3-1.2-.9-2.2-2-3.2-3.1-4.4-5.4-8.7-10.8-13-16.2-3.1-4-6.9-7.1-11.6-9-1.4-.5-2.8-1.1-4.1-1.8-4.2-2.1-8.4-2.4-13-1.5-3.4.6-6.7 1.8-9.8 3.3-3.1 1.6-6 3.6-8.5 6-3.7 3.5-6.2 8.3-9.3 12.5-.8 1.1-.9 2.8-3 3.1-3.1-3.3-6.1-7-9.5-10.2-9.1-8.6-19.3-13.8-32.4-10.6-2.1.5-4.3 1.1-6.4.3-.3-.3-.6-.4-.7-.6-.2-.5-.4-.9-.5-1.4-2-7.6-6.3-12.9-14.5-14-2.1-.3-3.7-1.4-5.4-2.4-4.9-3-9.4-6.5-13.5-10.5-4.4-4.1-9.3-7.3-15.3-8.7-2.5-.6-4.8-.8-7.2.1-4.7 1.7-9.4 3.3-14 4.9-3 1.1-6 2.6-9.1 3.1-9.9 1.3-19.4 4-29.1 6.1-6.1 1.4-11.1 4.2-15 8.9-5.8 6.9-11 14.1-12.2 23.4-.4 2.8-1.8 4.5-4.5 5.2-3.4.8-6.7 2.1-10.1 2.6-11.3 1.7-22.6 3.2-33.9 4.6-5.1.6-9.7 2.1-13.5 5.5-1.3 1.2-2.6 2.3-4 3.3-4.3 3.2-7 7.6-8.9 12.6-2.2 5.8-3.9 11.7-4.8 17.9-1.9 12.1-2.7 24.2.5 36.2.7 2.6 1.5 5.2 2.5 9-6.9-.1-12.8 2.5-18.9 2.8-3.2.2-5.7 1.4-8 3.4-1.7 1.5-3.3 3-5 4.4-3 2.4-5 5.5-6.2 9.1-2.1 6.4-3.9 12.8-3.6 19.7.2 5.2.2 10.4.2 15.6 0 2 .1 4-.2 5.9-1.1 6.9-2.2 13.7-3.5 20.5-1.4 7.4-1.2 14.8.2 22.2.3 1.4.4 3.1 1.2 4.2C35 287.5 38 293.9 44 298c3.1 2.1 5.6 4.9 7.7 8.1 2.2 3.2 5.6 5.6 6.8 9.8-6.7 5.6-14.6 7.5-22.7 9-3.7.7-7.4.9-11 1.7-6.1 1.3-11.1 4.2-14.2 9.8-1.4 2.6-2.6 5.4-4.1 7.9-1.8 3-1 5.7.8 8.3 3.9 5.6 9.1 9.9 15 13.2 4.3 2.4 8.8 4.5 13.3 6.8 1.8.9 3.8 1.6 5.1 2.9 4.9 5.3 10 10.7 11.4 18 1.3 6.5 4.7 11.4 8.9 16 7.8 8.6 21.3 11.7 32.1 7.5 2.5-1 5-2.1 7.8-2.3.3.9.7 1.6.7 2.3 0 6.9 3.6 11.7 8.7 15.7 1.7 1.4 3.6 2.7 5.4 3.9 6.5 4.1 13 8.1 19.6 12.1 1.5.9 3 1.8 4.7 2.2 6.9 1.7 13.5 5.1 21 3.9.8-.1 1.5 0 2.2.2 8 1.4 15.8.1 23.7-.9 3-.4 5.9-.3 8.8.2 10.2 1.6 19.5 5.6 28.9 9.5 4.6 1.9 9.3 3.6 14.2 3.9 4.1.2 8.4-.5 12.5-1.5 10.9-2.4 21.5-5.8 31.4-11.3 4.1-2.3 8.4-4.4 11.7-7.8 8.3-8.5 14-18.4 16-30.4.8-5.1 1.5-10.3 2-15.5 1.2-11.1 2.5-22.2 2.3-33.3 0-2.2-.7-4.5.9-6.8 4 .7 8.1.8 12.1 2.1 4.1 1.3 8.2 1.9 12.5 1.8 6.7-.2 13.3.2 20 .6 11.8.6 22.6-2.3 32.3-9.2 2.6-1.9 5.3-3.8 7.6-6 4.2-3.9 8.8-7.2 13.6-10.4 4.9-3.3 9.8-6.7 14.7-10.1 1.2-.8 2.1-2.1 3.1-3.2 6.5-7.7 11.2-16.4 15.2-25.5 4-9.1 4.8-18.3 3.1-27.9zM340.7 89.9c3.8-7.9 8.1-15.4 16.5-19.5.7-.3 1.3-.7 2-.9 5-2.1 10.4-4.7 15.7-3 7.3 2.3 14.3 5.5 19.2 12.1 5.3 7.2 10.8 14.2 17.4 20.3 9.1 8.5 13 19.1 12.6 31.4-.1 1.7-.1 3.5-.2 5.2-.2 6.1.9 11.8 3.9 17.2 2.3 4.1 4 8.5 5.8 12.9 1.9 4.7 2.3 9.6 2.5 14.6.2 4.9-1.8 8.6-5.5 11.6-2.7 2.2-5.5 4.3-9.1 5.8-3.4-2.5-7.6-4-11.6-5.8-3.5-1.5-7.1-2.1-10.9-1.6-4.2.5-8.4 1-12.6 1.4-2.8.3-5.3 1.3-7.6 2.8-2 1.3-4 2.7-6.1 4.2-.6-2.2 1-3.4 2.1-4.4 1.8-1.7 3.9-3 5.9-4.5.7-.5 1.6-1 1.4-2.1-3.4.3-5.6 3.1-8.5 4.5-.3-.9 0-1.7.6-2.5 6.7-8.5 14.4-15.6 25.3-18.3.4-.1.8-.5 1.8-1.1-4.2-.7-7.6.3-10.7 2.1a67.1 67.1 0 0 0-14.6 11.3c-1.1 1.2-2.2 2.3-3.9 4.1-.1-4.1 2.2-5.8 3.8-7.8 1.6-2.1 3.5-4 5.9-6.6-4.4 1.4-5.9 5.2-9.2 6.8-1.3-1.8-.9-3.4-.2-5 .7-1.7 2.4-3.1 2.4-5.1l-3.6 1c-.7-2.3-1.1-4.7-2-6.8-1.9-4.6-2-8.9 1-13.1.3-.4.1-1.3.1-1.9-2.3.2-2.6 3.5-5 3.4-1.7-1.6-1.2-3.3-.4-4.8 1.8-3.4 3.9-6.8 5.8-10.2.9-1.6 2.7-2.8 2.6-4.9-2.8.9-3.9 3.5-5.4 5.6-2 2.8-3.7 5.8-5.7 9.2l-9.1-3.1c-1.1-1.9-.5-3.4-.1-4.7 2.2-7.7 3.6-15.5 1.9-23.5-.3-1.6.2-2.9.8-4.3.6-1.5 1.9-2.8 1.2-4.6-1.4.4-1.6 2.4-3.4 2.4-1.5-.6-1-1.8-.7-2.8.6-2.4 3-4.2 2.6-6.9-2.2.8-2.1 3.8-4.2 4.7-.2.1-.5.1-.7.1-.2-.1-.4-.2-.6-.4-2.8-3.1-5.8-6.1-8.5-9.3-1.5-1.7-1.5-3.6-.7-5.2zm26.6 134c.3 7.6-1.3 14.8-4.1 21.8-3.4 8.5-7.2 16.9-13.3 23.9-.6.7-1.4 1.4-2.2 2.1-1.7-1.2 0-3.5-2.1-4.7-1.9 6.4-5.8 11.3-11.2 15.1-1.4-1.1-.3-1.8.2-2.5 3.4-5.2 6.5-10.6 9.1-16.2 2.9-6.1 3.9-12.8 5.5-19.2.2-.6-.3-1.4-.4-2.1-1.9-.1-1.9 1.3-2.1 2.4-1.7 10.2-5.2 19.6-10.6 28.4-.7 1.1-1.2 2.7-2.9 2.6 1.3-4.7 2.8-9.3 3.9-14.1.8-3.3 1.9-6.6 1.5-10.1-1.5.2-2 .9-2.2 1.9-.7 3.4-1.2 6.8-2.1 10.1-2.7 10.7-7 20.6-15 28.5-2.1 2.1-4.3 4-6.7 5.7-1.7 1.2-3.7 2.3-6 1.8.4-1.8 3-2.1 2.9-4.2.5-.1 1.1-.1 1.4-.3 4.4-4.1 8-8.7 11-13.9 3-5.2 5.1-10.7 6.4-16.5.4-1.6 1-3.3-.4-4.8-1.5.4-1.7 1.6-1.9 2.9-1.8 11.1-7.1 20.4-14.5 28.7-1 1.1-2.2 2-2.2 3.7-2.6 1.5-6.1 1.7-7 5.5-.2.7-1.4 1.5-2.3 1.7-2.8.7-5.6 1.9-9.4 1.5 9.7-8.1 15.7-18.2 19.8-29.4 3.7-10 3.7-11.8 3.1-18-1.5.3-1.8 1.6-2 2.7-.5 2.4-1 4.8-1.4 7.3-1.4 9.9-6.3 18.2-11.9 26.2-2.6 3.8-5.9 6.8-9.9 8.9-1.2-1.6.5-2.2 1.1-2.9 4.3-5.3 7.1-11.2 7.2-18.2-1.5-.3-1.6.8-1.9 1.6-.2.5-.2 1-.4 1.4-3.6 10.9-5 12.9-13.8 20.3h-10.6c.5-1.1.6-1.9 1.1-2.4 4.1-5 6-10.8 6.9-17 .6-4.4 1.7-8.7 2.2-13.2 1.2-8.5-.2-16.8-.4-25.2 0-.9-.3-1.9-1.5-2.3-1.7.4-1.4 1.8-1.2 2.9 1.1 5.2.8 10.4 1 15.6.3 10-2.1 19.7-4.3 29.3-.7 3.1-2.1 6-4.7 8.4-3.2-1.7-4.8-4.4-5.9-7.4-1.9-5.6-3.8-11.3-4.5-17.2-.3-2.4-.4-4.9-2.3-7.8-1.4 7.2 1.1 12.9 2.2 18.9 1.1 6 4.8 10.7 7.6 15.7-1.4 1.3-3.1 1.1-3.3 0-.5-3.3-3-4.1-5.4-5.1-.1.9-.1 1.9-.2 2.8-3.4-.2-5.8-2.6-7.9-4.8-8-8.3-12.6-18.2-13.4-29.9-.1-2-.4-3.9-.8-5.9-1.6-7.2-.8-14.3-.2-21.5.7-7.5 3.7-14.4 5.9-21.4.4-1.4 1.4-2.6 2.3-3.8 1.8-2.3 3.7-4.7 5.7-6.8 1.1-1.3 2.4-2.4 3.9-3.4 4.1-2.3 8.2-4.8 12.5-6.6 12.1-5.2 23.2-12.2 34.3-19.4 8.9-5.8 17.8-11.8 26.8-17.5 4.6-2.9 9.4-5.5 14.2-8.1 3.5-1.9 7.2-3.2 11.4-3 3.4.2 6.3 1.3 8.4 4 2.2 2.7 4.1 5.5 5.1 9 1.7 6 3.1 12 3.3 18.2.2 9.7.5 19.3-.8 29-1 5.3-.9 10.8-.6 16.3zm-35.6 54.4c.2-1 .1-2.2 1.2-2.7.3 1.2 0 2.2-1.2 2.7zm-1.7 9.2c-1.8 2.6-3.8 4.9-7.4 4.1 1.7-1.9 3.3-3.9 5-5.9.8-.9 1.6-.8 2.3.2-.9.6-.6 1.1.1 1.6zm.1-1.3c.1.2.2.4.2.6s-.1.4-.2.6v-1.2zm-116.3 13.1c11.2 6.4 22.7 12.1 35.6 14 .7 1.7-.5 2.2-1.5 2.8-3.8 2.2-7.6 2.9-12 1-5.4-2.3-11.3-3.7-16.4-6.9-.3-.2-.9.1-1.9.2 1.5 2.3 3.8 3.1 5.8 4.1 2.5 1.1 5 2 7.6 3 2.3.9 4.5 1.9 7 2.8-4.9 3.7-9.3 4.5-14.1 3.2-4.3-1.1-8.5-2.5-12.5-4.7-.5-.3-1.3-.1-2-.1.2 1.7 1.8 2 3 2.7 2.3 1.3 5.1 1.8 7.1 3.8-.4 1.1-1.3 1.5-2.2 1.7-7.8 1.6-15.6 2.2-23.6 2.4-2 .1-3.9-.3-5.7-1.2-1.7-.8-3.3-2-5.4-2 .1 1.5 2.2 1.9 1.9 3.7-.9 1-2.1.8-3.2.4-3-1.1-5.9-2.5-8.6-4.1-2-1.2-3.9-3-6.5-3 .1 1.4 1.2 1.9 2.2 2.6 2 1.4 4.1 2.7 6.1 4-.1 1.6-1.1 1.8-2.1 1.7-7.9-1.2-15.4-3.2-21.7-8.8-3.9-3.5-8-6.6-12.5-9.3-9.7-5.6-15.7-14.3-20.3-24-2.7-5.8-6.8-10.3-10.9-14.9-3-3.3-6.1-6.5-9-9.9-5.1-6.2-4.5-13.3-2.4-20.4.3-1 .8-1.8 1.6-2.5 5.6-5.8 12.2-9.7 20.4-8.9 6.5.7 12.9-.1 19.3-.6 5.5-.4 10.7-2 15.5-4.7 5.7-3.3 12.1-4.3 18.3-5.8 1.5-.4 2.9-.5 4.4-.4 11.4 1.2 22.6 3.3 32.4 9.6 4.8 3.1 9.3 6.5 13.9 9.9 1.6 1.2 2.9 2.7 4.3 4.1 4 4.2 5.2 9.4 5.7 14.9.5 5.4 1.5 10.8 3.1 16 3.8 12.9 11.6 22.2 23.6 28 .9.4 1.7.9 2.7 1.3-.4 2.4-2.2 2.5-3.7 3-1 2.1-2.5 3.2-5.1 3-8.2-.6-15.8-3.4-23.2-6.9-5.1-2.4-10.1-5-15.2-7.5-.8-.4-1.8-.3-2.7-.5.2 2.1 1.7 2.6 2.9 3.2zm-57.9-129.4c5.4-1.8 10.7-1.9 16.1-.6 4.1 1 7.9 2.9 11.7 4.7 2.5 1.2 4.8 2.5 7.5 3.8 1.5 5-1.4 9.6-1.7 14.4-.1 1.5-1.2 2.7-3 3.5-2.4-.8-3.1-4.7-7.1-4.9 1.9 2.5 3.5 4.2 4.8 6.2 1.8 3.1.8 5.6-2.8 6.7-3.4 1-5.1 3-5 6.4.1 1.8-.2 3.3-1.5 4.5.2.7.3 1.4.5 2.4-3.1 1.6-5.4.3-7.8-1.6-5.8-4.8-12.5-8.1-19.6-10.5-1.7-.6-3.3-.9-4.9 0 0 1.4.8 1.8 1.9 2.1 7.4 1.7 14 4.9 20.2 9.1.8.6 1.7 1.1 2.7 1.7-2.7 2.9-5.2 3.2-8 2.3-2.1-.7-4.2-1.4-6.2-2.1-1 2.4 1.8 1.9 1.9 3.5-.3 1-1.3.9-2.2.7-2.3-.5-3.8-2.3-5.5-3.7-5-4-10.7-5.9-17-5.7-.4 1.2.2 1.6.9 1.8 2.8.9 5.7 1.7 8.5 2.6 2.1.6 4 1.5 5.8 2.7s3.3 2.7 4.7 4.4c-1.8 2.4-4.4 3.2-7 3.8-6.3 1.4-12.7 2-19.2 1.9-1.2 0-2.5-.2-3.4-1.1-2.4-2.5-4.7-5.1-5.9-8.5-1.4-4-1.2-7.8 1.7-11.2 1.9-2.2 3.7-4.9 6.2-6.4 9.8-6 16.5-14.9 23.1-23.9 2.6-3.8 5-7.5 9.6-9zm95 17.5c-2.2 1-1.1 3.2-1.5 4.8-.5 1.7-.7 3.4-1.1 5.1-.3 1.7.4 3.9-2.7 5 .2-3.3.4-6.2.7-9.1.3-2.8-.2-5.4-.8-8.1-.6-2.9-1.3-5.8-1.6-8.8-.3-2.7-1.1-5.2-3.1-8.1-1.3 3 .3 4.8.7 6.8.5 2.2 1.2 4.3 1.6 6.5.4 2 .6 3.9.6 5.9 0 2.1 1.5 4.4-.6 6.5-2.4-1.5-4-3.2-3.9-6.3.1-1.9-.4-3.9-.7-5.9-.1-.4-.6-.7-.9-1-.5-.3-1.3.6-1.1 1.4.8 2.6 1 5.2.7 7.9l-3.6 3.2c-1.1-1.4-2.1-2.9-3.3-4.1-1-1.1-2.2-1.9-3.5-2.7-1.9-1-3.9-.2-5.2 1.5-1.6 2.3-1.8 5.1-2.4 9.2-1.8-4.2-2.1-7.2-2.4-10.2-.4-5.1-2.4-9.5-5.4-13.7-1.8 1.9-.7 3.4.1 4.8 3.8 6.2 3.7 13 4.2 19.8-.8.2-1.1.4-1.2.3-2-2.3-1.4-5.6-3.1-8-1 0-1.2 1.7-3 .9-1.9-2.5-1.3-6.8-4.7-9.6-1 3.8 2.2 6.2 1.6 10-.2.5-.5.8-.9 1.1-3 1.3-4.8 3.3-4.7 6.8 0 1.8-1.6 2.3-3.2 2.5-.8-1.5-1.3-3.3-2.4-4.5-2.2-2.2-2.3-4.7-2-7.5.9-7 3.4-13.4 5.8-19.9 1-2.7 3-4.6 5.6-5.8 2.2-1 4.6-1.9 7.1-2.1 5.2-.4 10.4-1.1 15.6-1.3 4-.1 7.9-.9 11.6-2.5 2.3-.9 4.7-1.7 7.1-2.3 5.9-1.4 11.3-.6 15.8 3.9 5.7 5.9 9.3 12.8 9.5 21.1.1 2.5 0 4.9 0 7.9l-12.2 6.1c-1.9-2-.1-4.8-2.4-6.7-2 2.8-.1 7.2-4.1 9.1-.9-3.1 1.2-6.6-.6-9.9zM236 201.3c-.5-2.6-.3-5.3 2.5-7.1 3.5 3.2 2.5 6.9 1.6 10.7-2.6.1-3.7-1.7-4.1-3.6zm2.8 10.4c-1 .7-1-.4-1.3-.9-.3-.6-.5-1.3-.9-2.5 1.6 0 2.6.1 3 1 .6 1 0 1.9-.8 2.4zm-25.8 3.8c-.1-1.1.1-1.9 1.2-2.4.5-.2.9-.3 1.4-.3.5.1 1 .2 1.4.6 2.1 1.9 3.2 4.3 2.4 7.9-3.8-.6-6-2.3-6.4-5.8zm3.4 8.7-.5.2v-.5l.5.3zm-1.7 6.1-.5-.1.3-.5.2.6zm7.6-19.9c-5.8-3.9-6.1-4.9-2.7-10.6 5.1 3.9 5.4 5 2.7 10.6zm3.1-21.1c2.3.2 3.2 2 4.1 3.8.3.7.5 1.4.6 2.1.2 1.2.3 2.4.3 3.7 0 1.2-.2 2.4-.4 4.9-4.1-2.7-7-4.8-7.2-9-.2-2.7 1.2-5.6 2.6-5.5zm-3.6 36c3.9.6 6.1 2.9 6.9 7.1-2.6 1.5-4.8 1.4-7 .8-1.8-.5-2.9-1.8-3.4-3.6-.6-2.4 1.1-4.7 3.5-4.3zm8.9 10.5c.3 2.4-.3 4.2-.9 6.1-2.7-.2-3.9-2.3-5.5-4.5 2.2-2.1 4.3-1.5 6.4-1.6zm-6.2-13.7c-1.5-1.6-2-3.7-1.6-6l4.2 3.9c2.6 2.4 2.6 2.4 6.8 3.2.1 2-.6 3.7-1.6 5.6-2.7-2.2-5.4-4.3-7.8-6.7zm6.9-2.7c-2.9-.9-4.9-2.8-5.4-5.5-.6-2.9 1-5.1 3.6-6.5 2.8.5 4.4 2.3 4.8 4.9.4 2.8-.9 5-3 7.1zm-26.5 2c.2-1.6 1.5-2.3 2.9-2.9.3-.2.7-.2 1.1-.1.4.1.7.3.9.6 1.9 2.1 2.5 4.5 1.6 7.1-2.3.6-3.7-.6-5.1-1.5-.5-.3-1-.8-1.2-1.3-.2-.7-.3-1.3-.2-1.9zm-1-5.7c-4.7-.6-7.5-5.7-5.5-9.9.3-.6 1.1-.9 2-1.7 3.8 2.3 6.4 4.7 6.4 9 0 1.4-1.4 2.8-2.9 2.6zm5.8-8.3c-2.1-2-4.2-4.1-6.2-6.3-1.3-1.5-.9-4.1.7-5.2 1.6-1.2 4.2-1 5.4.5 2.6 3.5 3.4 7.4 3.2 11.5-1.4.6-2.4.1-3.1-.5zm-18.3 5.1c1.6-1.3 2.7-.7 3.5.2 2.3 2.4 3.3 5.3 2.3 8.8-2.3.2-3.8-.9-5.2-2.2-.9-2.4-.6-4.8-.6-6.8zm-3.5-9.1c-.6-1.2.1-2.4.6-3.4.4-1 1.2-1.6 2.2-1.5.5 0 .9.2 1.3.6.4.3.6.7.7 1.2.1.2.2.5.2.7 0 2.3.2 4.6 2.2 7.5-4.2-1-6.1-2.6-7.2-5.1zm56.7-50.8-12 4.4c-3.3-1-2-4.8-4.5-6-1.3 1-.6 2.1-.1 3.1.6 1.2.8 2.4-.6 3.2-1 .6-2.6-.3-3.3-1.9-.5-1.1-.8-2.3-2-2.9-1.4 1.5.4 3.4-.5 4.7-1.4 1-2.7.9-3.3-.4-.7-1.6-1-3.3-1.5-5-.8-2.9-1.6-5.7-3.7-8-1.5 1-.7 2.1-.3 3.1 1.3 3.4 3.4 6.7 2.2 10.6-2.4-.3-2.7-.4-4.3-1.8-1.2.6-2.3 2.3-3.9.2-.8 1.9-.6 4.5-3.3 5.1-3.7.9-5.8 3.6-7.4 6.8-.5 1.1-.7 2.4-2.2 2.8-1.9-.3-.5-3.3-2.6-3.5v6.1c-3.3-1.3-2-5.4-4.7-6.8-.2.4-.5.8-.5 1.2 0 1.1 1.5 2.7-.1 3.2-2.2.7-1.7-1.7-2.2-2.9-1.1-2.5-2.2-5-3.4-7.4-.2-.3-.6-.5-.9-.8-.2 2.5 1.4 4.5 2.1 6.7.3.9 1 1.8-.3 3-3.8-.7-7.3-3.3-11.5-3.5-3.9-.2-7.9-.4-11.8-.6-1.7-5-1.4-12.6.7-16.5 1.7-3.2 3.9-5.4 7.7-6.4 3.6-.9 7.3-1.3 11-1.1 1.7.1 3.5.2 5.2.5 9.5 1.8 18.6.7 27.7-2.5 6-2.1 12.3-3.8 18.9-2.4 2 .4 4 .7 5 2.7.6 1.4 1.4 1.5 2.8 1.5 2.8.1 4.2 2.4 5.7 4.3 1.8 2.2 1.9 2.9 1.9 7.2zm-57 66.7c-.9 0-1.8.3-2.2 0-2.8-2.1-5.2-4.5-6.3-7.9-.5-1.6.2-2.9 1.5-3.8 1.1-.9 2.4-.5 3.4.3 1.8 1.4 3.1 3.1 3.2 5.6 0 1.8.2 3.7.4 5.8zm69.5 80.2 1.7.3c-.2.2-.3.7-.5.7h-.4c-.1 0-.3-.1-.4-.2l-.3-.3c-.1-.2-.1-.3-.1-.5zm42.7-229.2c3.4-.4 7-.4 10.2 1.2 5.5 2.8 11.1 5.6 15.3 10.3 6.3 7 12.8 13.9 18.9 21 7.5 8.7 10.1 18.6 7.1 29.9-.9 3.6-1.8 7.2-2.9 11.3-3.7 2.1-8.5 3-12.4 5.7-3.8 2.7-7.9 4.8-12.3 6.3-.3-4 1.3-7.7 0-11.3-1.7.3-1 1.8-1 2.6 0 3.6-1.7 6.7-2.3 10.1-.2 1.4-1.6 2.4-3.3 2-1.6-2.6 1-5.2-.4-8.2-2 2.9-2.5 6.1-3.2 9.2-.6 2.7-2.2 4.4-5.1 5.4-.3-3.6 1.8-6.5 2.7-9.6 1-3.4 1-6.9 1.7-10.3.7-3.3.8-6.6.4-9.9-2.3 0-2.1 1.2-2.2 2.1-.2 5.2-.7 10.4-1.6 15.5-1 6.1-4 11.2-7.2 16.2-.6.8-1.3 1.5-2.1 2-3.7 2.5-7.4 4.9-11.2 7.4-1.2.8-2.3.9-3.3-.2 2-.9 2.9-2.4 2.8-4.6-2.1.6-3 2.2-3.1 4.3-2.3.8-3.5 2.6-4.6 4.6-.9 1.6-2.5 2.1-5 3.1 2.3-5.3 5.6-9 7.3-13.6 1.8-4.9 4.1-9.6 5.7-14.5 1.6-4.7 2.8-9.5 3.9-14.4 1.1-5.1 2.1-10.2 2.7-15.4.6-4.8 1.5-9.8.1-15.4-.7 1.4-1.2 2-1.2 2.7-.9 15.4-4.2 30.4-8.9 45.1-2.2 6.9-5.5 13.3-9.3 19.4-.2.4-.8.5-1.2.7-1.2 0-1-.9-1-1.6-.5-7.8-3.8-14.3-9-19.9-.7-.7-1.2-1.5-1.6-2.5-.3-.9-.4-1.9-.3-2.9.3-3.2.8-6.4 1.2-9.6.1-1.2.4-2.5-.6-3.5h-.5c-.2 0-.3.1-.5.2-.1.1-.3.2-.4.4-.1.2-.1.3-.2.5-.3 2.5-.4 4.9-.6 7.4-.1 1-.1 2-.5 2.9-.2.6-1 1.4-1.6 1.4-.9 0-2.1-.4-2.2-1.5-.2-1.5-.1-2.9.2-4.4 2.3-10.6 1.8-21.2 1.1-31.9-.2-2.4-.2-4.9-2.4-7.2-1.3 4-.5 7.7.1 11.2 1.9 11 .3 21.6-2.3 32.2-1.8.3-3.2-.2-4.8-1-.9-3.4-2.2-6.9-4.8-9.6-1.9-2-1.3-4.7-2.1-6.9-1.7-.2-1.6 1.8-2.8 2-2.1-.2-2.8-1.8-3.1-3.6-.6-3.4-1.1-6.9-1.7-10.3-.2-.9-.5-1.9-2.2-1.5.6 3.8 1.3 7.6 1.9 11.2-.6 1.2-1.5 1.7-2.6 1.5-5-.9-9.8-.5-14.8.5-2.3.5-3.8-.6-4.3-2.9-1.1-4.9-1.1-9.8-1-14.8.1-7.2 1.6-14.3 3.8-21.1 2.6-8.3 8.5-12.5 17.3-12.5 3.5 0 7-.2 10.4-.1 6.5.3 12.9-.9 19.3-1.7 2.5-.3 4.9-1 7.1-2 5.4-2.6 11.2-4.1 16.7-6.3 4.5-1.6 9.2-2.3 13.8-2.8zm-144.9 3.4c1.9-6 5-11.3 9.2-16 1.3-1.5 2.8-2.8 4.1-4.3 1.2-1.3 2.5-2.4 4-3.3 1.5-.9 3.1-1.5 4.8-1.9 10.2-2.2 20-5.7 30.5-6.6 1.5-.1 2.9-.5 4.3-1 4.7-1.7 9.3-3.3 13.9-5.3 7.3-3.1 14.1-2.1 20.3 2.5 3.8 2.8 7.4 5.8 10.8 9 1.8 1.7 3.8 3.2 5.9 4.4 2.9 1.8 6.1 3.2 9.5 4.1 7.6 1.9 10.3 5.9 10.9 15-7.6 2.4-14.7 6.8-22.9 7.9-2.7.4-5.3 1.1-7.9 0-1.9-3.2-.3-6.8-1.4-10-1.2.7-1.4 1.9-1.5 3.1-.2 2.4-.3 4.9-.4 6.9-.9 1.3-1.8 1.6-2.8 1.4-.7-.1-1.4-.2-2.1-.4-2-2.7.2-5.8-1.2-8.7-1.4 2.8-2.5 5.5-1.7 8.5-1.4.8-2.8.6-4.5.2-2.1-3.5.4-7.7-1.4-11.8-.9 4.1-1.8 7.9-2.6 11.5-1.5.2-2-.5-2.2-1.5-.6-3-.5-5.9.2-8.8.5-2.1 1.1-4.1 1-6.2-2.7 2.2-2.8 5.4-3.1 8.4-.3 2.7-.3 5.4-.4 8-3 2.8-7.5 2.3-10 5.3-2.2 2.6-4.1 5.4-6.6 8.8-1.7-7.6-1.1-14.6-1.3-22.4-1.7 6.9-2.8 12.9-1.7 20.1-4.7-3.6-4.4-8.1-4.9-12-.6-3.9-.3-7.9-.3-11.9 0-4.2 2-8 2.8-12.2-1.6-.7-1.9.6-2.2 1.2-2.7 5.7-2.9 11.9-2.9 18.1 0 2.9 1 5.8-.1 9.1l-13.2-6.7c-1.8-1.6-.4-4.7-2.8-5.8-1.3 1-.2 3-2.1 3.8-1.4.2-2.9-.2-3.2-2-.4-2.4-.5-4.9-.8-8.1-1.9 3.3-.4 6.5-2 9.7-3.2 1.2-7.2 1.2-11 1.9-3.6.7-7.1 1.9-10.5 2.8-1.8-1.5-1-3.3-.5-4.8zm-81.6 73c0-11.7 1.3-23.2 5.7-34.2 1.8-4.7 4.6-8.7 8.4-12.1l5.7-4.8c1.4-1.1 2.9-1.8 4.7-2 9.8-1.4 19.6-3 29.4-4.3 10.1-1.2 19.9-3.7 29.4-7.4 6.1-2.4 12.4-3.5 18.8-4.1 3.3-.3 6.4.1 9.5 1.3 9.1 3.4 16.9 8.3 22.3 16.5.8 1.2 1.9 2.3 3.1 3.7-2.5 11.7-2.5 23.7-.4 36-.3 1-1.5 1.3-2.7 1.8-1.2.4-2.1 1.4-4 .8-.8-2.2 0-5-.9-7.5s-1.1-5.3-2.9-8.1c-1.4 5.6 3.3 10.7.4 15.9-1.5 1.1-3.1 1.5-4.8.9-2.3-1.9-1.2-5.2-3-7.4-1.4 2.2.4 4.6-1.8 8.1.2-.2-1.1-.2-2.3-.4-2.4-.4-4.9-.9-7.4-1.4l-4.6-8.9c-1.9 3.5 2.2 5.1 1.4 8.1-2.2 1.2-4.2.6-5.7-1.4-1-1.4-1.7-3-2.4-4.6-1.9-4.3-4.8-8.1-7.8-11.7-.2-.3-.8-.3-1.2-.5-.3 1.6.8 2.6 1.6 3.8 2.3 3.5 4.5 7.1 6.6 10.7.5.7.7 1.4.8 2.3s-.1 1.6-.5 2.3c-3 2.4-8.2.4-10.2 4.8-3.3-1.7-4.1-5.2-7.2-5.9.4 3.4 3.7 4.8 5.5 8.1-.8 2.3-2.2 4.9-2.4 7.8-.2 2.7-.4 5.4-.6 8-1.8.7-2.2-.6-2.8-1.6-.7-1.1-1-2.8-2.7-2.9.1 3.2 2.5 5.5 3.1 8.6-1.3.4-2.1-.5-2.9-1.3-4.7-4.7-9.3-9.6-14.1-14.2-1.8-1.7-3.8-3.2-5.7-4.7-.6-.4-1.4-.5-2.1.5 7.3 7.2 15.5 13.6 21.8 21.9.4.6.6 1.3 1 2.3l-7.7 9.9c-3.6-1-5-4.9-8.3-5.9 1 2.5 1.1 2.4 2.8 4.3 1.2 1.2 2.8 2 3.5 4.3-1.9 3.5-4.3 6.5-7.2 9.2-1.8-2.3-3.4-4.5-5.1-6.5-2.1-2.4-3.7-5.3-7.2-6.1 0-.2 0-.6-.1-.7-4.7-5.3-18.9-13.8-25.2-15-.6-.1-1.1.8-.7 1.8 8.4 3 16 7.6 23.1 13.1.7.6 1.8.7 2.7 1.1l10.6 13.3c-1.2 2.1-2.9 3.4-4.9 4.7-.6-.1-1.4-.1-2-.4-1.6-.8-2.7-2.1-3.9-3.4-6.7-6.9-15.1-11.1-24-14.3-5.4-1.9-10.7-3.8-16.5-4.4-4.3-9.1-6-18.3-6-27.8zM44.9 295c-1.8-1.3-3.1-3.1-4.5-4.9-.8-.9-1.1-2.2-1.9-3.2-6.8-7.9-6.7-17.2-5.6-26.7 1-8.6 2.4-17.2 3.7-25.7.7-4.5.1-8.9 0-13.4-.3-7.5.1-14.8 2.1-22.1 1.4-4.8 3.3-9.2 7-12.9 3.6-3.7 7.6-6.3 12.8-6.8 1.5-.1 3-.4 4.4-.8 9.2-3 18.2-1.5 27 1.5 7 2.4 13.9 5.2 20.2 9.3 4 2.6 7.2 6 10.2 9.8-.9 3.7-4.5 5.3-6.1 8.3-1.4 2.8-2.4 5.9-4.6 8.4-.7 2.6 2.5 3.8 2.2 6.4l-3.8-.2c.1 1.4 1.4 1.8 2.3 2.4 1.6 1.2 3.3 2.1 4 4.1-3.4 2.9-7.1 2.3-10.8.9-.3.7.2 1.2.4 1.9.1.4-.2.9-.3 1.3-2.7 1.4-5.1-1.1-8-.9-.6 2.4 2.7 1.6 2.8 3.4-.9 2-2.9 3.1-4.4 4.4-3 1.3-5.3-2.2-8.1-.6 1.3 1.8 3.5 1.7 5.1 2.7 1.6 1 1.6 2.3.1 4-9.8-2.5-19.7-5.6-30.2-3.8-.5 1.6.4 2 1.4 2 4.5.1 8.9 0 13.4.3 2.4.2 4.8.9 7.3 1.4 2.6.5 5.1 1.5 7.4 2.8 1.3 2.6.7 5.1.7 7.6 0 3.6 1 6.8 3.5 9.5 3.5 3.8 6.3 8.3 10.4 11.6 1.5 1.2 3.1 2.5 2.8 5.1l-2.5.8c.1.3.2.6.5.9.3.2.6.4.9.4 1.7.3 3.4.5 5.2.8 2.4 4.3 5.1 8.5 7.2 13 2.6 5.6 6.6 9.8 11.2 13.7 1.9 1.6 3.7 3.1 5.7 4.8-2.4 1.8-5.1.2-7.4 1.6.5 1.4 1.8.9 2.8 1.1 3.4.5 6.9.8 10.3 1.4 1.2.2 2.2.9 2.6 2.6-6 0-11.9-.2-17.8 0-9.7.4-19.2 1.8-28.1 6.2-.7.3-1.4.6-1.4 1.6 1.1 1.3 2.3.3 3.2-.1 12.3-5.4 25.4-6.6 38.6-5.9 5.5.3 11.4.5 15.8 4.7.3 2.2-1.2 3.4-2.6 4.2-1.9 1.2-4 2-6 2.8-6 2.4-12 4.7-17.9 7.3-5.3 2.3-10.9 4-16.5 4.2-6.8.2-13.9-.2-19.7-5-1.9-1.6-4.3-2.4-6.5-3.6-6.6-3.5-12.7-7.7-16.6-14.4-2-3.4-4.3-6.7-6.3-10.1-4.7-7.8-10.2-14.7-17.6-20.1zm56.7 115.2c-1.9.7-4.1 1.3-6 2.3-5.8 3.1-11.7 3.2-18 2.1-6.7-1.2-12.1-4.1-16.1-9.6-2.8-3.8-5.4-7.7-6.3-12.5-1.5-7.1-6.2-12.3-10.5-17.7-2.1-2.7-5.4-4.3-8.6-5.8-4.7-2.2-9.4-4.4-14-7-5.7-3.2-10.4-7.5-13.4-13.3.3-3.6 2-6.4 3.5-9.2 3.2-6.2 8.2-9.6 15.2-10.5 4.9-.6 9.8-1.7 14.6-2.7 6.3-1.4 12.1-4.1 18-7.5 2.8 2.4 4 5.6 5.5 7.9.2 2.3-2.2 2.4-2.1 4l3.9-.7c5.8 5.8 12.9 10.3 20.6 13.7 2.5 1.1 4.7 2.5 6.6 5.3-5.7 3.1-11 6-17.2 7.3.6 1.8 1.9 1.3 2.9 1.3 2.3-.1 4.2-1.3 6.2-2.3 3.3-1.7 6.7-3.2 10.1-4.7.7-.3 1.4-.5 2.3.4-5.5 3.9-11.6 6.2-17.7 8.7-6.1 2.5-12.3 4.4-18.8 5.7.3 2.1 1.3 1.9 2.2 1.8 6.1-1.1 12-3 17.7-5.5 7.2-3.2 14.8-5.8 20.6-11.3 1.8-.1 3.3.1 4.2 1.7-.3 2.8-2.5 3.9-4.6 5.2-2.2 1.4-5.1 1.8-6.3 4.6 2.8.5 4.5-2.8 7.8-2.3.1 4.1-.8 8.1-1.2 12.1-2.4 2.1-4.7 4-7.4 5.3-2.5 1.2-5 2.1-7.4 3.3-2.6 1.3-5.8.9-8.9 3.4 5.2 1.3 8.9-.9 12.5-2.5 3.8-1.7 7.3-3.9 11-5.9 3.8 9.3 3.3 22.7-.9 34.9zM309.8 397c-.5 5.2-1.3 10.3-2 15.5-2.5 18.2-11.2 32-27.9 40.4-10.7 5.4-22 9.1-33.7 11.2-7.2 1.3-13.6-.7-20.1-3.3-10.1-4-20.1-8.5-31-9.9-2.2-.3-4.4-.4-6.6-.1-4.2.7-8.4 1.1-12.5 1.6-3.7.4-7.4.4-11.1-.1-1.5-.2-3-.6-4.4-.5-6.7.8-12.7-1.7-18.8-3.7-1.2-.3-2.3-.8-3.4-1.5-8-5-15.8-10.2-23.8-15.2-7.1-4.5-9.8-10.9-8.8-19 .6-4.7 1.2-9.3 2.1-14 1.2-6.4 1.4-12.9 0-19.2-.9-3.9-.8-7.9-.9-11.8-.2-5.4 2.1-10 4.9-14.5.9-1.4 2.2-2 3.7-2.3 8.9-1.5 17-5.4 25.2-8.9 2.5-1.1 5.2-1.8 7.8-2.6.4-.1.8.2 1.8.5-5 7.2-9.8 14.4-12.1 22.8-.1.4.3.9.6 1.9 3.8-5.8 5.6-12.3 9.6-17.4 4.1-5.2 7.4-11.3 14-14.3 2.3.1 4.3.8 4 3.8-1 .2-1.5.7-1.3 1.7-1.5 0-2.2 1.1-2.8 2.1-1.5 2.8-2.9 5.7-4.2 8.6-.3.6-.1 1.4 1.3 1.6 1.6-4.2 4.4-7.8 5.8-12.3 1 .2 1.5-.3 1.7-1.3 2.5-1 4.9-2 7.7-2.1 5.9-.2 11.8-.9 17.8-1.3.7-.1 1.4.3 2.2.5-2.6 6-5.4 11.7-7.7 17.7-2.3 5.7-4.2 11.6-6 17.5-.9 3-1.4 6.2-.6 9.5 1.6-1 1.5-2.3 1.6-3.5.5-5.5 2.3-10.6 4.4-15.6 2.1-5 4-10.1 6.1-15.1 1.5-3.7 3.3-7.2 6.1-10.1 1.7-1.8 3.5-2.6 6-1.7.2 2.9-3.5 3.9-3.3 6.8 3.6-1.4 5.1-4.9 7.5-7.7 5.6-1.1 11.4-1.3 17.1-3.6.7 3.4-1.2 6-1.1 8.9.1 2.9-.5 5.9-.4 8.9 0 3 .6 5.9 1.8 8.7.1-4.2.2-8.4.3-12.5.1-4.5 1-8.8 2.4-13 4.2-2.7 8.9-3.6 13.2-5.2 1.5.9 1.1 2.2 1.1 3.3.1 3.5.2 6.9.6 10.4.7-4.7 1.3-9.4 2.1-14.1.3-1.9.5-1.9 4.5-3.8-.5 5.6-1.3 10.9-1.5 16.2-.3 5.2-.2 10.4 0 15.6.2 5.3-.3 10.9 2.5 16.2 1.5-2.8.6-5.2.1-7.5-1.6-7.6-.9-15.3-.7-23 .1-3.4.8-6.9 1.3-10.3 1-6.3 3.3-11.9 9.1-15.3 1.7.9 1.1 2.3.8 3.3-1.6 5.6-1 11.3-.7 17 0 1.1.3 2.4 2 2.4-.4-15.7-.2-17.2 3.4-26.3 4.3-1 8.6-1.3 13-1 7.7.5 15.3.6 22.9-1.8 1.3 2.4 0 4.5.3 6.6.3 2 .3 4 .2 5.9-.3 5.3.7 10.4 2.1 15.4 1.5 5.3 2.9 10.5 4.4 15.8 2.2 7.9 3.1 16.1 3.1 24.3-.8 8-2 15.9-2.8 23.8zm133.9-96.5c-2.5 5.1-4.8 10.3-7.8 15.2-4.9 7.7-11.5 13.6-19 18.6-7.3 4.7-14.2 9.9-20.9 15.5-6.3 5.5-13.4 9.3-21.5 11.4-3.9 1-7.8 1.5-11.8 1.4-7.7-.2-15.4-.6-23-.9-8.2-.4-16.1-2.7-24-4.9-.4-.1-.8-.6-1.2-.9-7.3-22.8-8-25.8-7.7-31 4.7-.7 8.8 2.5 13.5 2.9.3-1.9-1-2.3-1.9-2.7-3.5-1.2-7.1-2.2-10.7-3.3-1.1-.3-1.6-1-1.5-2.1 1.7-2.3 4.8.1 6.6-1.9-1.7-1.5-3.9-.4-5.7-1.5-.7-.5-1.1-1.1-.9-1.8.2-.6.9-1.5 1.3-1.5 2.2 0 4.5 0 6.6.5 9.7 2.3 19.3 4.8 27.3 11.1.9.7 2.1 1 3.2 1.5.2-1-.4-1.7-1.2-2.2-5.6-3.7-11.2-7.4-17.7-9.2-6.4-1.8-12.7-4.1-19-4.8-1.8-2.3-.8-4.1-.2-6.4 4.1-1.7 8.4-3.6 12.7-5.4 1.2-.5 2.4-.4 3.6-.4 4.9.1 9.9.1 15.9.1-4-2.6-8.2-.6-11-3.5 3.8-4.8 9.4-4.2 14.3-5 4.7-.7 9.4.5 13.9 1.7 1.6.4 3.2 1 4.9.8-2.7-3.2-6.7-3.5-10.4-4.3-3.1-.7-6.4-.8-9.5-1.1-.8-2.2.6-3.2 2-3.3 3.7-.2 7.1-2.3 11.7 0-2.4-4.2-5.6-2.5-7.8-3.7-.8-1.4.5-2.2 1.1-3.1 3.1-4.8 7.7-8.4 10-13.4 18-2.6 34.2 2.3 49.6 9.3 1.2-1.1.8-1.8.2-2.1-9.3-4.9-19.1-8.1-29.5-9.6-5.6-.8-11.2-1.8-16.6-1.1-1.5-1.4-.8-2.6-.2-3.6 2.1-3.9 4.1-7.9 5.4-12.2.6-2.2 2.1-3.2 4.1-3.8 4.1-1.3 8.2-1.8 12.5-1.6 1.9.1 3.9.8 5.8 0 .5-1.6-.8-1.5-1.5-1.8-3.8-1.4-7.8-1-11.8-.6-1.9.2-3.9.6-5.5.9-1.6-1.1-1.4-2.4-.9-3.5 1.2-3.1.3-6.4 1.2-9.8 4.4-3.3 9.5-4.5 15.1-4.5 2.7 0 5.3.8 8 .1-.1-.3-.2-.7-.5-.9-.2-.3-.5-.4-.9-.5-5.1-1.6-10.2-2-15.4-.3-2.1.7-4.2 1.1-6.7 1.8-.1-3.4-.3-6.3-.3-9.3 0-1.7.3-3.4.4-4.9 2.3-2.7 4.9-4.6 7.5-6.5 2.9-2 6-3.5 9.6-3.7 2.7-.2 5.4-.6 8.1-1.1 8.2-1.4 15 2 21.7 5.9 1.4.8 2.4 2.5 3.4 3.9 5.8 8.9 9.6 18.4 10.2 29.2.2 2.9.9 5.9 1.4 8.8.6 3.5 2 6.7 4 9.5 3 4.3 5.1 9.1 7.2 13.9 5.3 11.7 5.9 23.7.2 35.7z"/></g></g><path d="M280.5 349.8c-.5-4.4-1.1-8.8-1.4-13.3-.3-4.6.9-9.2-.1-13.9-1.8.9-2.3 2.4-2.3 3.9-.1 5.4-.5 11 .1 16.4 1.1 10.4 3.4 20.5 5.9 30.6.3 1.2.6 2.4 2.3 3.1.5-4.6-1.5-8.7-2.3-12.8-.9-4.8-1.7-9.4-2.2-14zM232.8 337.4c-1.3 1.9-2 2.5-2.1 3.1-.7 5.1-1.4 10.3-1.7 15.4-.6 9.9 1 19.7 1.5 29.6.1 2.8 1.1 5.7 1.6 8.5l1.9-.2c-2.4-8.9-2-18-3-27-1-9.3 1.7-18.4 1.8-29.4zM268.6 383c-1-5.6-2.1-11.1-3.2-16.9-1.4 1.4-1.3 2.9-1.1 4.3 1.2 8.8 2.6 17.7 5.4 26.2 2.1 6.3 4.4 12.6 7.8 18.4.1.2.8.2 1.7.4-1.6-5.7-4.6-10.5-6.2-15.9-1.6-5.4-3.4-10.8-4.4-16.5zM224.3 375.9c.1-3.4.4-6.8.7-11.4-1.1 1.9-1.9 2.7-2 3.6-.8 4.7-1.7 9.3-1.4 14 .4 7.2.8 14.3 1.4 21.5.3 3.2.6 6.4 2.2 9.8 1.3-2.5.6-4.5.5-6.4-.8-10.3-1.8-20.7-1.4-31.1zM133.1 351.7l.1-.1.3-.3c-.2.1-.3.1-.5.2.1.1.1.1.1.2zM129.3 356c-3.9 6.3-7 13-9.3 20-1.3 3.8-2.5 7.7-2.4 12 1.5-.5 2-1.4 2.2-2.4 2-10 6-19.2 11.2-28 1-1.8 2.4-3.6 2.1-5.9-1.8.9-2.8 2.7-3.8 4.3zM169.4 384c-4.2 10.3-5.5 30.5-2.7 42.2 1.2-.4 1.1-1.4 1.1-2.3 0-2.7-.1-5.4-.2-8.2-.1-6.9-.5-13.8 1.2-20.6 1-3.7 1.4-7.6 2.1-11.6-.7.2-1.4.2-1.5.5zM258.3 360.7c-.2-4.7-.7-9.3-1.1-14-.1-.7 0-1.9-1.4-1.7-.7 7.7.7 23.5 3.1 33.7.3 1.3.5 3 2.1 3.7 1.2-1.7.4-3.3-.1-4.9-1.6-5.5-2.4-11.1-2.6-16.8zM214.4 382.8c0 2.7-.1 5.5 2.4 9.2v-20.6c.1-6.6 1.6-13.1 2.4-19.7-2.2 4.7-3.8 9.6-4.1 14.9-.3 5.4-.6 10.8-.7 16.2zM284 314.3c-.8 6.4-.2 12.8.8 19.2 0 .3.8.4 1.7.9-.3-8.1-.5-15.9.2-23.9-2 .9-2.5 2.3-2.7 3.8zM130.2 375.5h.1v-.1h-.2c.1 0 .1.1.1.1z"/><path d="M126.9 380c-2.9 5.7-4.8 11.7-5.6 18 1.2-1.6 1.7-2 1.9-2.6 2.4-6.2 4.8-12.4 7.2-18.7.1-.4 0-.8-.1-1.3-2.2.9-2.6 3-3.4 4.6zM174.9 406.3c.5-5.5 1-10.6 1.7-17.4-3.6 9.4-3.9 13.1-1.7 17.4zM194.4 350.2c.1-.1.1-.2.1-.2h-.1v.2zM191.3 360.7c2.6-4.2 3.7-7.2 3.1-10.5-2.8 2.4-2.7 5.7-3.1 10.5zM144.7 364.7c2.5-3.6 2.5-3.7 3.3-8.2-3.6 4.3-3.6 4.4-3.3 8.2zM148 356.5l.2-.3v-.2h-.2c.1.2 0 .3 0 .5zM278.6 309.7c-1.2 2.9-1.4 4.9.5 7.9.3-3 1-5-.5-7.9zM197.3 344.3l.2-.1v-.2l-.1.1-.1.2zM194.4 350c2.5-1.2 2.6-3.4 2.8-5.7-2.3 1.2-3 3.2-2.8 5.7zM132 373.9c1-.8 1.9-1.8 2.1-3.5-1.8.7-2.2 1.9-2.1 3.5zM200.3 339.8l.2-.1v-.2l-.1.1c-.1.1-.1.1-.1.2zM197.5 344c1.9-.8 2.6-2.3 2.8-4.3-2.1.7-2.9 2.3-2.8 4.3zM148.3 356c1.4-.4 1.9-1.4 1.9-2.8-1.7.3-1.9 1.4-1.9 2.8zM131.8 374.2h.2v-.3l-.2.1v.2zM130.3 375.4c.9.1 1.2-.5 1.5-1.2-.9-.2-1.4.3-1.5 1.2zM134.5 350.5l.3-.3.2-.3-.4.2c0 .1-.1.3-.1.4zM134.5 350.5l-.9.8c.4-.1.7-.4.9-.8zM418.8 285.4c-2.6-1.9-5-4.1-7.8-5.6-11.5-6.5-23.9-10.5-36.9-12.8-.6-.1-1.4.4-2.7.8 1.2.9 1.5 1.5 1.9 1.5 4.3.1 8.4 1.1 12.3 2.4 11.7 3.8 23.6 7.4 32.7 16.6.6.6 1.3.4 1.8-.3.2-1.3-.5-2.1-1.3-2.6zM369.9 302.7c-7.4-4.3-15.3-6.9-23.8-7.3-1.1 0-1.6.8-1.2 2.3 7.6-.7 14.5 2.2 21.4 4.9 1.3.5 2.5 1.5 4 1.3-.2-.5-.2-1.1-.4-1.2z"/><path d="M370.2 303.9v.1h.2s0-.1-.1-.1h-.1zM400.5 258.4c-3.8-1.2-7.5-2.3-11.4-3.3-.9-.2-2 .1-1.7 2.2 4.4.4 8.6 2.6 13.3 2.7.2 0 .4-.3.5-.5-.2-.3-.4-1-.7-1.1zM374.3 230.8c4.2-.2 8 .2 13.4-1-7.2-2.8-10.5-2.5-13.4 1zM362.2 293c2 .8 4.1 1.6 6.2 2.3.9.3 1.7 1.1 2.7.3-4.5-2.9-4.5-3-9.6-3.5.2.4.4.8.7.9z"/><path d="M361.5 292.1c0-.1-.1-.1-.1-.2h-.2l.1.1.2.1zM379.1 309.8v.1h.1v-.1h-.1zM374.9 306.9c.6 2.1 2.1 3 4.2 2.9-.6-2.1-2-3-4.2-2.9zM370.4 304c.8 1.9 2.2 2.8 4.3 2.8-.8-1.9-2.2-3-4.3-2.8z"/><path d="m374.7 306.8.1.1h.2v-.1h-.3zM380.5 309.9c-.4-.1-.8 0-1.2.1 0 .3 0 .6.2.9.2.3.4.4.7.5.4.1 1-.1 1.1-.3.6-1.1-.3-1.1-.8-1.2zM345 326.4c0-.1-.1-.1-.1-.1h-.1c0 .1 0 .2-.1.2.1 0 .2 0 .3-.1zM345.8 327.2c.3.1.7-.1 1.1-.2-.3-.2-.5-.6-.8-.7-.3 0-.7 0-1 .1.1.4.4.6.7.8zM394.2 219v-.1h-.2v.1h.2zM397 220.3c-.5-1.4-1.5-1.6-2.8-1.3.4 1.5 1.6 1.5 2.8 1.3zM397.8 221.1c.1-.4-.1-.6-.6-.6 0 .2 0 .3.1.5.1.1.5.1.5.1zM397.2 220.5v-.2h-.2c0 .1 0 .1.1.1l.1.1zM324.4 230.5c-.5 5.4-.9 10.8-1.6 16.2-2.1 16.8-7.2 32.4-18.6 45.3-.5.6-.9 1.2-.2 2.2 4.7-2.6 7.1-7.1 9.8-11.4 6.2-10.1 9.4-21.3 11.4-32.8 1-5.8 1.9-11.8 1.3-17.7-.2-1.1-.6-1.9-2.1-1.8zM288.2 232c-.3-4.2-1.6-8.3-3.1-12.2-.4-1-.9-1.8-2.4-2-.4 5.1 2.7 9.3 3.1 14.2.5 5.2.6 10.4.9 15.6.3 4.9.3 9.9.4 14.9 1.7-.4 1.9-1.8 2-2.9.3-2.7.4-5.4.3-8.2-.2-6.6-.7-13-1.2-19.4zM348.3 203c-1.1 5 1.4 9.7 1.3 14.5-.1 5 .2 10.1.3 15.7 3.1-8.4 3.3-15.1.8-28.2-.2-1-.8-1.7-2.4-2zM275.2 299.8c1.2 1.2 2.2.7 2.8-.1 1.3-1.8 2.7-3.5 3.7-5.5 2.6-5.6 4.7-11.4 5.2-17.6.3-3.1 1.7-6.2 0-9.4-2.5 11.5-3.6 23.3-11.7 32.6zM248 274v.1h.1v-.1h-.1zM247.8 269.7c-2.2-7.7-3.2-15.5-3.1-23.4 0-.5 0-1.6-1.1-1.4-.2.1-.5.1-.6.3-.3.4-.5.9-.5 1.3-.6 9 1.2 17.7 4.1 26.2.1.3.3.6.5.8.3.2.6.4.9.4 0-1.4.2-2.9-.2-4.2zM267.4 239.1c.5 4.5 1.1 8.9 1.3 13.3.3 4.2.1 8.4.3 12.6.2 4.3-2.2 8.5-1.1 13.5.7-1.2 1.2-1.7 1.3-2.4 2.3-11.3 1.8-22.6.7-34 0-1-.1-2.9-2.5-3zM315.7 214.3c2.2-11.7.8-21.2-4.8-27.8.8 5.6 2.3 9.7 3.4 13.8 1.1 4.7.3 9.4 1.4 14zM323.7 194.1c-.4 6.6 1.8 12.8 3 19.1 2-6-.1-11.6-1-17.3-.2-1-.4-1.9-2-1.8zM255.4 294.9v.1h.1v-.1h-.1z"/><path d="M254.9 294.9c.1.1.4 0 .6 0-.6-3.2-2.1-6-4.2-9.5 0 5.6.5 6.8 3.6 9.5zM248.1 274.1c-.2.8 0 1.6 1.4 3.1-.4-1.7.2-2.7-1.4-3.1zM257 296.3v.1l.1.1v-.2h-.1zM255.6 295c0 .9.5 1.4 1.4 1.3-.2-.8-.5-1.3-1.4-1.3zM173.2 279c.8.5 1.7 1 2.7-.3-10.2-8.1-17.3-18.9-25.6-28.9 1.1 3.8 2.8 7.2 5.3 10.2 3.5 4.5 7.1 8.9 10.7 13.3 2 2.3 4.3 4.2 6.9 5.7zM170.7 302.2c-1.1-2.7-3.5-4-5.7-5.5-.4-.3-1.2-.1-1.8-.1 1.7 2.8 3.9 5 7.2 6 .1.2.1.6.2.7 8.6 7.4 18.4 13.1 28.6 18 1.1.5 2.3.9 3.5 0-.3-.4-.5-.9-.9-1.1-10-4.2-19.1-10.2-27.8-16.6-1-.8-1.9-1.5-3.3-1.4zM219.6 294.9c0-1.1-.9-1.5-1.6-2-5.4-3.8-10.9-7.5-16.3-11.2-.3-.2-.8-.1-1.2-.1.1.4.1 1 .3 1.2 5.2 4.5 10.6 8.8 16.8 12 .5.3 1.3.1 2 .1zM222.6 281.5c-2.6-1.8-5.2-3.6-7.7-5.5s-4.8-4-8.4-7.1c5.3 7.9 7.9 10.1 16.1 12.6zM219.9 295l-.1-.1h-.1v.1h.2zM234.8 300.9c-3.7-1.8-7.4-3.5-11.1-5.2-1.2-.6-2.5-1.1-3.9-.8 4.6 4.1 10.2 6 16 7.3-.2-.4-.5-1-1-1.3zM184.1 277.1c3.1 4.9 6.8 7.6 11.9 7.9-4.3-2.9-7.3-6-11.3-8-.2 0-.4 0-.6.1zM174.2 266.7c-.1-.1-.4 0-.7 0 .1.7 0 1.6.3 2 2.6 2.8 5.3 5.4 8.1 8 .4.4 1.2.3 1.8.3-2.2-4.2-5.9-7.2-9.5-10.3zM183.8 277l.1.1h.1s0-.1-.1-.1h-.1zM155.5 306.4c-3.5-3.2-6.1-6.1-10.2-6.9 3.5 4.5 4.8 5.4 10.2 6.9zM145.2 299.5h.2-.2zM209 318.6l.2.2h.1v-.1l-.3-.1zM209 318.6c-3.3-3.2-5.4-4.4-9.9-5.7 2.7 3.4 4.5 4.4 9.9 5.7zM200.8 291.1c2.4 2.1 4 4.1 6.8 3.8-2-2.2-2-2.3-6.8-3.8z"/><path d="m207.6 294.9.1.1h.2v-.1h-.3zM248 305.7c3.7 2.1 6.1 3.3 8.9 2.6-2-2.2-4.7-2.2-8.9-2.6zM256.9 308.3l.1.1h.1l.1-.1h-.3zM195.8 311.3c0 .1 0 .1.1.2h.2v-.1l-.3-.1zM190.1 307c.9 2.7 3 3.9 5.7 4.3-.8-2.9-3.1-3.8-5.7-4.3zM166 323.2l.1.2h.1v-.2h-.2zM160.2 319.1c1.3 2.2 3 3.9 5.7 4.1-1.2-2.4-3-3.8-5.7-4.1zM185.6 304.1c1.2 1.3 2.3 2.6 4.2 2.7-.7-2-2.2-2.8-4.2-2.7zM189.8 306.8c0 .1 0 .1.1.1h.2c0-.1 0-.1-.1-.2l-.2.1zM182.3 326.2l.1.2h.2v-.2h-.3zM178.1 323.5c1.2 1.3 2.3 2.6 4.2 2.6-.8-1.8-2.1-2.8-4.2-2.6zM167.7 259.4c.3 1.8 1 3.3 2.7 4.2.5-2.3-1.1-3.3-2.7-4.2zM170.4 263.6v.2h.2v-.1l-.2-.1zM170.6 263.8c.3 1.6 1.1 2.7 2.9 2.8-.1-1.9-.9-3-2.9-2.8zM173.5 266.6s0 .1 0 0c0 .1 0 .1 0 0zM239.3 303.9v-.1h-.2v.1h.2zM242.3 304.7c-.9-1-1.9-1-3-.8.5 1.8 1.5 1.9 3 .8zM137.8 293.8c.9.6 1.7 1.1 2.8 1-.7-1.1-1.7-1.2-2.8-1zM198.8 312.8v.1l.3.1c-.1-.1-.1-.2-.2-.2h-.1z"/><path d="M196 311.4c.4 1.5 1.6 1.7 2.8 1.4-.5-1.5-1.6-1.6-2.8-1.4zM210.7 296.4v.1h.1v-.2l-.1.1z"/><path d="M207.9 295c.5 1.4 1.6 1.5 2.9 1.3-.6-1.4-1.7-1.4-2.9-1.3zM236.2 302.5v-.1l-.3-.1c0 .1.1.1.1.2h.2zM239.1 303.8c-.5-1.5-1.6-1.6-2.9-1.3.4 1.6 1.6 1.6 2.9 1.3zM137.5 293.3l.1.5h.2l-.2-.2-.1-.3zM142 296.3l.2.2h.2v-.2h-.4zM142 296.3l-1-1.2c0 .3.1.6.3.8.1.2.4.3.7.4zM140.9 294.7l-.3.1.1.1.2.2v-.4zM143.7 297.9v.1l.1-.1h-.1zM142.3 296.5c-.1.9.4 1.4 1.3 1.4.1-.9-.5-1.3-1.3-1.4zM145.2 299.5c0-.1 0-.1 0 0zM143.7 298h.1v-.1l-.1.1zM143.8 298c-.1 1 .4 1.4 1.4 1.4.1-1.1-.5-1.5-1.4-1.4zM157 315.5c0 .1.1.2.1.3h.2v-.2l-.3-.1zM156.5 315.2l.5.3c0-.1-.1-.2-.1-.2-.1-.1-.3 0-.4-.1zM158.5 317.2v.2h.2v-.2h-.2zM157.2 315.9c-.1.9.4 1.3 1.3 1.3 0-.4-.1-.7-.4-.9-.2-.3-.5-.4-.9-.4zM158.8 291.8l-.4-.2c.1.1.1.2.2.3h.2v-.1zM157.9 291.4l.5.2c0-.1-.1-.1-.2-.2 0-.1-.2 0-.3 0zM158.7 317.4c0 .3.2.7.4.9.2.3.5.4.8.5.2-.9-.4-1.3-1.2-1.4zM160 318.8v.2h.3l-.1-.2h-.2zM160.1 293.3v.2h.2v-.2h-.2z"/><path d="M158.8 292c-.1.9.3 1.4 1.3 1.3 0-.3-.2-.6-.4-.9-.3-.2-.6-.4-.9-.4zM161.5 294.8v.2h.2v-.2h-.2zM160.2 293.5c-.1.9.4 1.3 1.3 1.3 0-.4-.1-.7-.4-.9-.2-.2-.5-.4-.9-.4zM162.9 296.4v.2h.2s-.1-.1-.1-.2h-.1zM161.7 295c0 .8.5 1.2 1.2 1.4.1-.8-.4-1.2-1.2-1.4zM166.5 258.8l.9.2-.3-.9-.6.7zM167.4 259c0 .1.1.2.1.2l.2.1v-.3h-.3zM171.5 317c0 .1.2.1.4 0-.4-.5-.6-.5-.4 0zM171.9 317l.1.2.2.2c0-.1 0-.3-.1-.4h-.2zM173.3 318.5l-1-1.1c0 .3.1.5.3.7.2.2.4.4.7.4zM173.3 318.5l.2.2.4.4c-.1-.2-.1-.4-.2-.6h-.4zM174.5 319.8l.5.5h.2v-.2c-.3 0-.5-.2-.7-.3zM174.5 319.8l-.6-.7c.1.3.3.5.6.7zM176.4 321.7v.2h.2v-.2h-.2zM175.1 320.4c0 .3.1.6.3.9.2.3.5.4.9.4.1-.9-.4-1.2-1.2-1.3zM176.6 321.9c.2.7.6 1.1 1.2 1.4.1-.9-.3-1.4-1.2-1.4zM177.8 323.3v.3h.4c0-.1-.1-.1-.1-.2l-.3-.1zM183.7 302c.1.1.1.2.2.4.1 0 .1.1.2.1v-.3l-.4-.2zM183.3 301.9l.4.2-.1-.1c0-.2-.2-.1-.3-.1zM185.3 303.9v.3h.3l-.1-.2-.2-.1zM184.1 302.5c.1.7.6 1.1 1.1 1.4 0-.3-.2-.6-.4-.9-.1-.2-.4-.4-.7-.5zM196.7 277.9l.4.2c0-.1-.1-.1-.1-.1 0-.1-.2 0-.3-.1zM197.2 278.2c.1.1.1.3.2.4h.2v-.2l-.4-.2zM197.5 278.6c0 .8.4 1.4 1.3 1.3 0-.3-.2-.6-.4-.9-.2-.2-.5-.3-.9-.4zM198.8 279.9v.2h.1v-.2h-.1zM200.3 281.5v.1h.2v-.1h-.2zM199 280.1c-.2 1 .3 1.4 1.3 1.4.1-1-.5-1.3-1.3-1.4zM76.6 226.9c3.8.5 7.2 2.9 12.9 2.8-11.6-5.9-22.6-6.1-33.5-7.4-.9-.1-2 .1-2.4 2.1 4.2.3 8.1.4 12 .8 3.6.5 7.3 1.2 11 1.7zM93 288.7c5.8-.6 11.6.8 17.4 1.1-4.8-3-10.4-1.9-15.5-3.4-6.2 1.1-12.7.4-18.6 3.9 5.5-.6 11.1-1.1 16.7-1.6zM101.9 210v.1h.2l-.1-.2-.1.1zM101.4 208.8c-5.5-3.9-19.1-8.9-26.7-9.9-.1 1.2.7 1.6 1.7 1.9 8.3 2.4 16.5 5.1 24.2 9.2.3.2.8 0 1.3 0-.2-.5-.2-1-.5-1.2zM150.5 330.2c-.2-1.7-1-2.1-1.6-2.2-5.7-.1-11.4-.3-17 0-2.6.2-5.2 1.4-7.7 2.3-.9.3-1.7 1.1-.7 2.6 8.3-5.1 17.5-4.2 27-2.7zM102.3 227.7c-5.5-3.3-11.4-5.6-17.6-7.3-.6-.2-1.3.1-2 .1.2 1.1 1.1 1.3 1.9 1.6 5.8 1.9 11.6 3.8 16.8 7.1.5.3 1.2.1 1.9.1-.3-.6-.5-1.3-1-1.6zM103.5 229.3h-.2s0 .1.1.1.1-.1.1-.1zM70.2 282.9c1.9-.3 3.9-.2 5.8-.3-8.6-1.4-12.6-.8-17 2.2 2.1.9 3.7-.5 5.5-.7 1.9-.2 3.7-.9 5.7-1.2zM62.5 252c2.1 0 4.3-.2 6.4-.2-.2-.4-.4-.9-.7-.9-5.9-.9-11.8-1-17.7 0-.2 0-.2.8-.4 1.6 2.2-.1 4.3-.3 6.5-.4 1.9-.2 3.9-.1 5.9-.1zM82.3 220.3c-4.2-3.1-9.1-3.4-15.2-4.4 5.2 3 9.7 4.2 15.2 4.4zM82.3 220.3l.2.2h.1v-.1l-.3-.1zM104.8 282.9l.3.1.2-.1v-.1l-.5.1zM94.3 283.8c4.2.5 7.3-.6 10.5-.9-3.3-1.9-6.5-1.8-10.5.9zM107.8 214.2c.1.1.1.2.2.2h.2v-.2h-.4zM102.1 210.1c.5 1.2 1.3 2.1 2.3 2.8 1 .7 2.2 1.2 3.4 1.3-1.4-2.1-3-3.9-5.7-4.1zM69 251.9h.3l-.2-.2h-.2c0 .1.1.1.1.2zM74.9 253.2c-.1-.6-.3-1.2-1.1-1.2-1.5-.1-3-.1-4.5-.1 1.5 1.7 3.7 1 5.6 1.3zM100.8 218.4c.8 1.6 2.3 2.1 3.9 2.1-1.6-2.8-1.7-2.8-3.9-2.1zM104.7 220.4c0 .1.1.1.1.2h.2l-.1-.1-.2-.1zM105 220.6c.6 1.3 1.6 1.7 2.9 1.3-.4-1.8-1.6-1.7-2.9-1.3zM107.9 221.9v.1h.1v-.2l-.1.1zM76.7 254.1c.4-.4.2-.7-.5-.7h-1c.3.2.5.4.8.6.3.2.6.2.7.1z"/><path d="m75.3 253.4-.2-.2c-.1-.1-.1 0-.2 0v.2h.4zM108.1 214.5c-.2.9.3 1.4 1.3 1.5 0-1-.6-1.3-1.3-1.5zM302 131.6c2-9.6 3.5-19.3 2-29.2 0-.3-.7-.5-1.6-1 .4 10.3-.7 20.2-.4 30.2zM282.3 154.9c1.6-4.9 1.9-10 1.8-15.2 0-.8.1-1.9-1.9-2.3.8 6.4-1.6 12.4-1.3 18.7.3-.1.6-.2.9-.4.2-.2.4-.4.5-.8zM280.9 156.2h-.2c0 .1 0 .2.1.2l.1-.1v-.1zM290.2 166.1c-.3 3.2-2.4 5.2-1.9 8 3.5-3.6 3.9-4.6 1.9-8zM288.3 174.2zM278.1 165.5c1.7-3.8 3.4-6.1 2.6-9.1-1.9 2.2-3 4.7-2.6 9.1zM182.4 114.8c.3.6.7 1.2 1.5 1.2.3-1.2 0-2.3-.6-3.4-3-6-6.7-11.5-11.3-16.4-.6-.7-1.2-1.4-2.3-1.4-.1.2-.4.4-.4.6.2.7.3 1.5.7 2 5.1 5.1 9.1 11 12.4 17.4zM137.6 133.9c-.2-.6-.3-1.4-.7-1.8-5-4.9-10.7-8.6-17.1-11.3-.2-.1-.6.5-1.2 1 6.2 4.1 12.3 8.1 18.4 12 .3.2.4.2.6.1zM107.8 122.9c-.2-.1-.6.5-.9.8 8.5 6.4 12.2 8.6 16.6 9.5-3.9-4.2-9.9-8.1-15.7-10.3zM140.9 137.1c0-.1-.1-.1-.1-.2h-.1v.1l.2.1zM148.8 146.3c-2.1-4.9-3.4-6.5-7.9-9.2 1.8 3.8 4 6.3 7.9 9.2zM136.5 143c.1.4 0 1 .3 1.3l7.8 7.5c.1.1.3 0 .5 0-2.5-5.6-4.8-7.9-8.6-8.8z"/><path d="M145.1 151.8s0 .1.1.1l.1.1v-.2h-.2zM184.1 116.4l-.1-.4h-.1v.1c.1.1.1.2.2.3zM184.1 116.4c.7 4.5 1.8 7.1 4.6 11-1.3-7-1.3-7.1-4.6-11zM154.3 111c-.8-.8-1.5-1-2.4.2 2.3 2.5 4.6 5 7 7.4.2.2.7.2 1.2.3-.7-3.5-3.6-5.4-5.8-7.9zM160 119v.2h.1v-.2h-.1zM134.5 184c-3.2-4.1-3.2-4.2-6.2-5.3 2.8 4.6 2.8 4.6 6.2 5.3zM188.4 108.7c0 .7-.2 1.6.1 2.2 3.2 7 5.6 14.1 6.5 21.8.1.9.8 1.7 2.2 1.9 0-1 .2-2 0-2.9-1.7-7.4-3.8-14.8-7.1-21.7-.3-.6-1-.9-1.6-1.4.3-2.1-.5-3.5-2.5-4.9-.5 2.7.3 4.1 2.4 5zM148.1 156.3v.1h.1v-.1h-.1zM145.3 152c-.2 2.2.8 3.6 2.9 4.3.2-2.3-.9-3.6-2.9-4.3zM140.7 136.9c0-2-1-2.9-2.9-2.9.2 1.8 1.1 2.8 2.9 2.9z"/><path d="M137.8 134.1v-.1h-.2v.1h.2zM150.2 136.4l.8.4c.1-.5.2-1.1-.8-.4zM358.2 115.6c1 .2 1.4-.6 1.8-1.2 3.3-5.2 7.4-9.8 12-13.9.7-.6 1.4-1.2 1.3-2.3-.5 0-1-.1-1.3.1-5.9 4.5-10.6 10.1-14.4 16.4-.2.2.4.7.6.9zM385.5 149.7c-4.4 3.2-8.1 7.1-10.6 11.9-.1.2.4.7.9 1.5 3.3-5.4 7.9-9.4 12.2-13.6.1-.1.1-.4.1-.6-1-.1-1.8.1-2.6.8zM388.1 148.9h.1v-.1h-.1v.1zM379.5 126.4c-.1 0-.2.1-.3.1v.1h.1l.2-.2zM387.9 119.3c-3.9 1.6-6 3.4-8.4 7.1 3.8-1.2 6.2-4.1 8.4-7.1zM382 162.4c-3.6 1.1-6.3 3.2-7.1 7.2 3.2-1.6 5.3-4.2 7.1-7.2z"/><path d="m374.9 169.6-.2.1v.2h.1c.1-.1.1-.2.1-.3zM370.4 148.7l-.2.1v.2h.1c.1-.1.1-.2.1-.3zM375.3 142.3c-1.9 2.4-4.6 3.5-4.9 6.4 3.1-2.3 3.1-2.4 4.9-6.4zM393.3 145.8l-.5.2-.1.1c.1 0 .2 0 .3.1l.3-.4zM393.3 145.8c2.3-.8 4.5-1.7 6.6-3.6-4.2.8-4.4.8-6.6 3.6zM387 159.6c-2.3 0-3.7.9-4.7 2.6 1.9-.3 3.6-.7 4.7-2.6zM382.4 162.2h-.2l-.1.2.3-.1c-.1 0-.1-.1 0-.1zM388.3 119h-.2c-.1.1-.1.2-.2.3l.3-.1c0-.1.1-.2.1-.2z"/><path d="M391.7 116.6c-1.8-.1-3 .7-3.5 2.4 1.9.2 3.5.1 3.5-2.4zM373.4 98.1h-.2v.1h.1s.1 0 .1-.1z"/><path d="M377.4 95.2c-1.7.4-3.5.8-4 2.9 2.7-.1 3.3-.6 4-2.9zM358.7 94.9c-1.2.8-1.9 1.8-1.7 3.2 1.3-.7 2.3-1.5 1.7-3.2z"/><path d="m357 98.1-.1.1v.2h.2c0-.1-.1-.2-.1-.3zM358.5 138.1c-.1.4.3.8.4 1.2.3-.3.7-.6.9-.9.1-.4.1-.9.1-1.3h-.5c-.2 0-.3.1-.4.2-.1.1-.2.2-.3.4-.2.1-.2.2-.2.4zM359.9 137.1h.2v-.2s-.1 0-.1.1v.1zM360 136.9c1.2-.6 1.4-1.7 1.2-2.8-1.1.6-1.4 1.6-1.2 2.8zM361.2 134.1l.1-.1c0-.1 0-.1.1-.2h-.3c.1.1.1.2.1.3zM380 94.9c-.2-.3-.6-.8-.7-.8-.5.2-1 .5-1.5.8.5.1 1 .2 1.6.2.2.1.4-.1.6-.2z"/><path d="m377.9 94.9-.4-.1c0 .1-.1.2-.1.3l.3-.1.2-.1zM382.4 187.4h-.4c0 .1 0 .1.1.2h.1l.2-.2z"/><path d="M384.5 187.2c-.3-.2-.7-.7-.8-.7-.5.2-.9.5-1.3.9.5 0 1 .1 1.6.1.1-.1.3-.2.5-.3zM389.8 147.3c.5.1 1.1 0 1.6-.2s.9-.5 1.3-1c-1.2-.3-2.2.1-2.9 1.2zM356.9 98.3c-.9-.1-1.3.4-1.5 1.2 1 .3 1.3-.3 1.5-1.2zM355.4 99.6h-.2v.2l.1-.1c.1 0 .1-.1.1-.1zM356.9 107h-.2c0 .1.1.2.1.2h.1c-.1-.1 0-.2 0-.2z"/><path d="M358.2 105.8c-.7.1-1.1.6-1.3 1.2.9.1 1.3-.4 1.3-1.2zM358.6 105.3l1-.7c-.4.1-.8.3-1 .7zM358.6 105.3l-.4.3v.2h.2c0-.2.1-.4.2-.5zM360.1 103.9l-.1.4-.3.2h.5l-.1-.6zM362.7 132.6h.2c.1 0 0-.1.1-.2h-.2c-.1 0-.1.1-.1.2zM361.4 133.8c.8 0 1.3-.4 1.3-1.3-.7.2-1.1.7-1.3 1.3zM362.9 132.3c.9 0 1.3-.4 1.3-1.2-.3 0-.6.2-.8.4s-.5.5-.5.8zM364.2 131.1h.2c0-.1 0-.1.1-.2h-.2c-.1.1-.1.1-.1.2zM365.6 129.6c.1 0 .1 0 .2-.1 0-.1.1-.2.1-.2-.1 0-.2 0-.3.1v.2zM364.4 130.9c.3 0 .6-.2.8-.4.2-.2.3-.5.4-.8-.6.1-1 .5-1.2 1.2zM367.1 128.3h.2l.2-.4-.4.3c.1-.1.1 0 0 .1zM365.9 129.3c.6-.1 1-.5 1.2-1.1-.5.2-.9.6-1.2 1.1zM373.3 132.6v-.1h-.1v.2l.1-.1zM374.7 130.9v.1h.2l-.2-.1zM374.7 131.1c-.9 0-1.4.4-1.4 1.4 1 0 1.4-.5 1.4-1.4zM376.2 129.6c-1-.1-1.3.4-1.4 1.3.9 0 1.4-.4 1.4-1.3zM376.2 129.4v.1h.1l-.1-.1z"/><path d="m374.7 130.9.1.1v-.1h-.1zM377.7 128.1c-.9-.1-1.3.4-1.4 1.3.9 0 1.3-.5 1.4-1.3zM376.2 129.4l.1.1v-.2l-.1.1zM379.2 126.6c-1 0-1.5.4-1.3 1.4.8-.1 1.3-.5 1.3-1.4zM377.9 128h-.2v.1h.2v-.1zM387.3 185.5l.5-.1-.4-.2-.1.3zM388.2 148.8c1 0 1.6-.3 1.3-1.4-.8.1-1.4.5-1.3 1.4zM389.6 147.4h.1l.1-.1h-.3l.1.1zM64 334.3c-2.1.7-4.2 1.6-6.2 2.5-6.3 3.1-12.9 5-20.1 3.9-1-.2-1.9-.2-2.7 1.8 5.9 1 11.3 1.2 16.5-.9 5.6-2.3 11.2-4.7 17-7.2-1.6-1-3.1-.6-4.5-.1zM73.8 339.8c0-.1-.1-.1-.1-.2h-.1l-.3.2h.5zM70.2 340.1c-4.1 1.8-8.7 2.8-13.6 5.6 5.5-.4 10.8-2.4 16.7-5.9-1.1 0-2.2-.1-3.1.3zM87.2 367.7c2.8-1.9 6.7-2.1 8.7-5.5-3.2.1-5.8 2.2-8.7 3.2-.9.3-1.5 1.1 0 2.3zM95.9 362.1h.2s0-.1.1-.1H96l-.1.1zM63 330.9h.4v-.2h-.1c-.1.1-.2.2-.3.2zM63 330.9c-5.2.1-5.3.2-9.4 2.8 1.7.1 3.3-.2 4.9-.6 1.6-.5 3.1-1.2 4.5-2.2zM100.2 381.4h.2l.1-.1h-.3c.1 0 0 0 0 .1zM94.7 384.3c2.4.1 4.7.1 5.5-2.9-2.1.3-4.2 1-5.5 2.9zM101.2 380.5c-.3.1-.5.5-.7.8.3.1.7.1 1 .1.3-.1.5-.4.8-.6-.3-.2-.8-.4-1.1-.3zM74.1 338.7c-.2-.2-.6.4-.4.9.6-.1 1.7.1.4-.9zM93.8 385.1c.4.1.6-.1.6-.6-.2 0-.3.1-.5.1-.1.1-.1.5-.1.5zM94.4 384.5h.2c0-.1.1-.1.1-.2h-.3v.2zM232.4 59.5c-.2.4-.5.7-.5 1.1v1.8c.9-.8 1.2-1.7.5-2.9zM231.9 62.4l-.2.1v.3c.1-.1.1-.1.2-.1v-.3zM251.7 67.9l-.4.4h.2c0-.1.1-.3.2-.4zM251.3 68.2h-.4c0 .1.1.2.1.2h.1l.2-.2zM165.4 185.2c4.1 2.8 8.2 5.6 11.4 9.5.2.2.7.2 1.1.3-3.5-7-7.6-10.4-14-11 .3.5.9.8 1.5 1.2zM169.4 196.6c2.3 3.5 2.5 3.6 6.9 5.3-2.3-2.3-3.9-4.7-6.9-5.3zM178.1 195.2v-.2h-.2c0 .1.1.1.1.2h.1zM181 199.6l.4 1.1.7-.6-1.1-.5c.2-2.2-.8-3.7-2.9-4.4-.3 2.2.9 3.5 2.9 4.4zM166.2 207.8c1.4 1.1 2.4 2.5 4.2 2.2-1.7-2.3-1.8-2.3-4.2-2.2zM170.4 210s.1 0 0 0l.2.1v-.1h-.2zM158.9 187.7c0-.1-.1-.2-.1-.2h-.2c0 .1 0 .1.1.2h.2zM161.9 189.7c-.3-.5-.7-1-1.2-1.3-.5-.3-1.1-.5-1.7-.6.3 1.2 1.2 1.8 2.9 1.9zM174.8 214.5v.2c.1 0 .1-.1.2-.1l-.2-.1zM172.1 211.6c.3 1.5 1.3 2.3 2.7 2.8-.1-2.1-.4-2.4-2.7-2.8zM155.8 186.2v-.2h-.2c0 .1 0 .1.1.2h.1z"/><path d="M158.6 187.5c-.5-1.3-1.6-1.4-2.8-1.3.3 1.6 1.6 1.4 2.8 1.3zM169 196.4l.1.1.3.1-.2-.2h-.2zM168.2 195.6c-.3-.1-.8.2-1.2.3.3.3.5.7.8.7.4 0 .8 0 1.1-.1-.2-.4-.4-.8-.7-.9zM154.7 185.8l.9.2c-.2-.5-.2-1.2-.9-.2zM171.9 211.5v.2h.2v-.2h-.2zM170.6 210.1c-.1 1 .5 1.3 1.3 1.4.2-1.1-.3-1.5-1.3-1.4zM179.4 159.2v.2c0 .1.1.1.2.1v-.3h-.2zM175.8 154.4c0 .8-.2 1.5 0 1.7 1.1 1.1 1.8 2.8 3.5 3.2-.1-2.3-1.3-3.8-3.5-4.9zM188.4 159.1v.2c.1 0 .1 0 .2.1v-.2c-.1-.1-.1-.1-.2-.1zM184.6 156.3c2.3.8 1.9 2.8 3.8 2.8-.2-1.4-.1-3.1-3.8-2.8zM191.2 166.8c0 .1 0 .2-.1.2h.2v-.2h-.1zM190 162.5c-.2 1.6-.2 3.2 1.3 4.3.3-1.7.5-3.3-1.3-4.3zM188.6 159.4c-.1 1.2-.3 2.4 1.3 2.9.2-1.3-.1-2.4-1.3-2.9z"/><path d="M189.8 162.2v.2l.1.1v-.2l-.1-.1z"/></g></g></g></g></svg>